/* XPM */
static char *_aa73d9b778e4b6295fde41244740978VmsNuY6pP9nBtdWe[] = {
/* columns rows colors chars-per-pixel */
"64 64 129 2 ",
"   c #000000",
".  c #060807",
"X  c #090708",
"o  c #070908",
"O  c #0A0A0A",
"+  c #131313",
"@  c #191718",
"#  c #171918",
"$  c #1B1B1B",
"%  c #222322",
"&  c #2C2C2C",
"*  c #2E302F",
"=  c #343434",
"-  c #3C3C3C",
";  c #403E3F",
":  c #3F4140",
">  c #444343",
",  c #4C4B4B",
"<  c #4E504F",
"1  c #535353",
"2  c #5B5B5B",
"3  c #646464",
"4  c #6B6B6B",
"5  c #747474",
"6  c #7B7B7B",
"7  c #848484",
"8  c #8C8B8B",
"9  c #908E8F",
"0  c #959595",
"q  c #9A9A9A",
"w  c #A3A3A3",
"e  c #ABABAB",
"r  c #B6B6B6",
"t  c #B7B7B7",
"y  c #B5B5B5",
"u  c #B2B3B2",
"i  c gray72",
"p  c gray73",
"a  c #BBBBBB",
"s  c #BCBCBC",
"d  c #BEBCBD",
"f  c gray",
"g  c gray75",
"h  c #BABABA",
"j  c #BFC1C0",
"k  c #C0C0C0",
"l  c #C2C0C1",
"z  c gray76",
"x  c #C3C3C3",
"c  c gray77",
"v  c #C6C6C6",
"b  c #C4C4C4",
"n  c #C9C7C8",
"m  c #C8C8C8",
"M  c #CACACA",
"N  c #CACCCB",
"B  c gray80",
"V  c #CDCDCD",
"C  c #CECECE",
"Z  c #CDCBCC",
"A  c #CED0CF",
"S  c #D0D0D0",
"D  c gray82",
"F  c #D2D2D2",
"G  c LightGray",
"H  c gray83",
"J  c #D5D7D6",
"K  c gray84",
"L  c #D1D3D2",
"P  c gray85",
"I  c gainsboro",
"U  c gray87",
"Y  c #DFDFDF",
"T  c #DEDEDE",
"R  c gray88",
"E  c #E1E1E1",
"W  c #E2E2E2",
"Q  c gray89",
"!  c #E4E2E3",
"~  c gray90",
"^  c #E7E7E7",
"/  c #E5E5E5",
"(  c gray91",
")  c #EAEAEA",
"_  c gray92",
"`  c #EAECEB",
"'  c #ECECEC",
"]  c gray93",
"[  c #EDEFEE",
"{  c #EEEEEE",
"}  c #EFEFEF",
"|  c #EBECEB",
" . c gray94",
".. c #F1F1F1",
"X. c #F0F2F1",
"o. c gray95",
"O. c #F3F3F3",
"+. c #F5F3F4",
"@. c #F4F4F4",
"#. c gray96",
"$. c #F6F4F5",
"%. c #F7F5F6",
"&. c #F5F7F6",
"*. c #F6F6F6",
"=. c gray97",
"-. c #F4F4F4",
";. c #F9F7F8",
":. c #F7F9F8",
">. c #F8F8F8",
",. c #F9F9F9",
"<. c #F8FAF9",
"1. c #FBF9FA",
"2. c #F9FBFA",
"3. c gray98",
"4. c #FBFBFB",
"5. c #FCFAFB",
"6. c #FAFCFB",
"7. c #FBFDFC",
"8. c gray99",
"9. c #FDFDFD",
"0. c #FEFCFD",
"q. c #FCFEFD",
"w. c #FFFDFE",
"e. c #FDFFFE",
"r. c #FEFEFE",
"t. c #FFFEFF",
"y. c #FEFFFF",
"u. c white",
"i. c #FDFEFE",
/* pixels */
"                                                                                                                                ",
"                                                                                                                                ",
"                                                                                                                                ",
"                                                                                                                                ",
"                                                                                                                                ",
"                                                                                                                                ",
"                                                                                                                                ",
"                                                                                                                                ",
"                                                                                                                                ",
"                                                                                                                                ",
"                                                                                                                                ",
"                                                                                                                                ",
"                                                                                                                                ",
"                                                                                                                                ",
"                                                                                                                                ",
"                                                                                                                                ",
"                          O .   X     .             .   .         .   .     O       .         .               .                 ",
"                O   . O       O       . .   O   +     .   .     .   X     +   .           . O .   O .   X                       ",
"                        X O       + .   . O         O   . O                     O     .     O     O     O .                     ",
"                  O         O . O , 4 %   +   + 1 1 -     O       O & 2 2 %   .     2 5 3 3 5 4 4 5 =                           ",
"                      .     O   2 u.u.1 O   > ~ u.u.} u .     O O 4 u.u.4.O.2     $ ~ u.4.u.4.u.4.*.6 O                         ",
"                    O   O O   - 4.u.4.>   O Y u.u.4.u.4.6 O     , u.u.8.4.u.u.$   O O.u.u.u.O.u.u.u.6     X .                   ",
"                O       .   - } u.O.u.1 O , u.4.;.4.u.*.I       y 4.O.u.4.4.u.5   + } O.;.u.*.u.*.u.5 . O .                     ",
"                      O   2 u.u.4.*.u.-   0 4.u.u.4.u.u.=.$ + . ( u.u.u.*.u.u.u   $ *.u.u.8.8.u.u.u.4         O                 ",
"                .         w u.O.u.u.4.,   p 4.u.q , O.u.*.-   = *.u.*.1 8 u.u.S   O - = > > = c 8.u.@   .   .                   ",
"                      O   1 u.u.u.} u.1   Y u.~ O   w u.u.2   = u.4.0   % } u.H     .   .   O I u.H O                           ",
"                O   .   . ; *.4.} u.u.,   ~ u.S   O 7 u.4.2 O 1 O.u.3   + ~ 4.*.+   .   .   = u.u.0                             ",
"                    . O   % x & y u.O., O 6 0 7   . 7 u.u.3   & q w >   $ ~ 4.~         .   5 u.u.2   .                         ",
"                        +       g u.u.1     .   O   8 =.u.2         .   . E u.R O O       O x u.u.=   .                         ",
"                  O         +   p *.u.>     O       e *.u., O O   +     $ } 4.~ .         O ( 5.( $                             ",
"                .   .   . .     S u.4.1 + . O   O & S u.u.=     .     O 3 u.;.x       O   - u.u.b .     .                       ",
"                        O   .   x 4.c 7 4     = O.} u.O.Y .         0 *.u.u.u.6   O     . 4 u.4.e   O   O                       ",
"                                p u.u.>   O   ; 4.u.=.*.p   .   . . q u.6.6.u.1   O     X q 8.! 9 *   O     O                   ",
"                                H *.4.,     . $ Y u.u.u.x     O     3 :.&.q.u.4   O     2 8.8.9 0 1 +         X                 ",
"                        .       7 u.u.1 O       ~ u.u.O.4.=         , q.q.:.4.y       @ 7 5.8.8.1 + X   . .                     ",
"                              . 7 u.4.>   +     w u x u.u.e       . = f u ` u.u.1 O     7 8.%.5.3     .     X                   ",
"                                B u.u.1   .       . 7 *.*.S   O o       # J u.u.3   X X 8 5.u.8.2   .                           ",
"                                m *.u., .       O   C 5.u.g       . +   * u.u.X.2       9 8.u.w     .   . .                     ",
"                                u u.E -   O         u u.O.C   O   .     & :.4.u.4   X > +.u.5.r   O           X                 ",
"                          .     0 u.} 0           O e u.u.C       .     & 6.u.u.2     > 8.5.8.l .     O                         ",
"                                7 u.u.g % c P 3   . e u.y 8 4 p N f % . & q.:.9 7 7 $ - 8.8.8.7                                 ",
"                                6 4.=.e - u.*.8 O   e u.m 0 1 g :.u.$   * q.} y 6 2 O , 8.u.d X                                 ",
"                                8 u.u.e % t u.8   + e u.u.S   4 [ q.: O : X.4.u.3   + = %.%.! X                                 ",
"                            .   5 u.u.e = u.4.=.E u.O.4.*.x   w 6.q.[ ^ ` u.4.u.4     ; 8.u.n                                   ",
"                                w u.*.y > } u.4.u.O.u.} u.R   q u.:.q.q.q.&.u.-.4     > =.8.!                                   ",
"                              . g u.u.t   & u.*.4.*.4.u.( ,     7 &.-.q.q.q.u.w % O   ; u.+.C                                   ",
"                                e O.u.p   $ 8 u.u.u.-.p 5   O   > J q.q.:.A w -     O e u.u.Z O                                 ",
"                        .         + > >       = , , >     O   .     < > 2 # .   .     , , > >                                   ",
"                                                  O .   O   O     .                           .                                 ",
"                                .           . $ $ + * * O O % = + % - O % & % + + . .     .                                     ",
"                                .       O   . , 6 8 8 w $ 8 q y 1 4 e 3 7 0 5 , & .       .                                     ",
"                                        .     1 w x 4 e = u Y e 2 5 p 5 0 9 2 & &                                               ",
"                                    O         = 3 1 6 3 & 3 3 7 % , 6 4 5 3 &   %     .                                         ",
"                                    .     .   $ 1 , > 1 2 > 1 , 1 2 > , , 1 2 2 +     .                                         ",
"                                          .   O X $ O + O O O + . + . + + O X . O   X                                           ",
"                                  .                 O   X         O         .             .                                     ",
"                                                                                                                                ",
"                                                                                                                                ",
"                                                                                                                                ",
"                                                                                                                                ",
"                                                                                                                                ",
"                                                                                                                                ",
"                                                                                                                                ",
"                                                                                                                                "
};
