/* XPM */
static char *cbe36398aa5b472cff7c8539f5b7c933ixPeZUbCTX5c6xkV[] = {
/* columns rows colors chars-per-pixel */
"64 64 199 2 ",
"   c #3F161D",
".  c #39191C",
"X  c #3E1921",
"o  c #4C1916",
"O  c #44171F",
"+  c #4C171B",
"@  c #441B1E",
"#  c #4D1B1E",
"$  c #5D1E16",
"%  c #52171D",
"&  c #531B1D",
"*  c #5B1D1D",
"=  c #641D17",
"-  c #621E1C",
";  c #47201B",
":  c #4D211E",
">  c #5D2117",
",  c #53211E",
"<  c #5C211D",
"1  c #602017",
"2  c #64221D",
"3  c #69231D",
"4  c #65291E",
"5  c #692B1E",
"6  c #441B22",
"7  c #4C1C22",
"8  c #541D22",
"9  c #5B1E22",
"0  c #521F28",
"q  c #5B1F29",
"w  c #621E23",
"e  c #4D2124",
"r  c #542223",
"t  c #5D2224",
"y  c #5A2924",
"u  c #57242B",
"i  c #5C2329",
"p  c #5C282A",
"a  c #5F2E31",
"s  c #5E3B3E",
"d  c #642424",
"f  c #6A2524",
"g  c #652A25",
"h  c #6B2B25",
"j  c #64252B",
"k  c #6A262A",
"l  c #65292B",
"z  c #6C2B2B",
"x  c #752723",
"c  c #712C25",
"v  c #722D2C",
"b  c #792E2B",
"n  c #6D3026",
"m  c #65352D",
"M  c #6E312B",
"N  c #6B392E",
"B  c #743126",
"V  c #73332D",
"C  c #79352E",
"Z  c #75382D",
"A  c #7A392E",
"S  c #642632",
"D  c #6B2732",
"F  c #652931",
"G  c #6D2C32",
"H  c #732E32",
"J  c #7A2F34",
"K  c #722F38",
"L  c #792F39",
"P  c #663731",
"I  c #6E3232",
"U  c #653F36",
"Y  c #693C33",
"T  c #6F3B3D",
"R  c #743333",
"E  c #7A3534",
"W  c #763933",
"Q  c #7C3A34",
"!  c #753339",
"~  c #7B363A",
"^  c #743A3A",
"/  c #7D3B3B",
"(  c #5A413D",
")  c #6D403A",
"_  c #744032",
"`  c #7D4134",
"'  c #734339",
"]  c #7D413C",
"[  c #7D3D41",
"{  c #4E4E4D",
"}  c #5C4444",
"|  c #5B4844",
" . c #55444A",
".. c #544C4C",
"X. c #594C4B",
"o. c #4E504F",
"O. c #56524F",
"+. c #5B4D52",
"@. c #475556",
"#. c #4A5354",
"$. c #47565D",
"%. c #4D5758",
"&. c #47595D",
"*. c #4A595C",
"=. c #535254",
"-. c #5C5050",
";. c #555259",
":. c #50585B",
">. c #654246",
",. c #6B4545",
"<. c #644945",
"1. c #6D4A43",
"2. c #65464A",
"3. c #614C4C",
"4. c #744345",
"5. c #7E4242",
"6. c #7D4943",
"7. c #74464A",
"8. c #7B464B",
"9. c #744C4B",
"0. c #60514E",
"q. c #604F55",
"w. c #784D50",
"e. c #823D2F",
"r. c #803634",
"t. c #823D36",
"y. c #81363D",
"u. c #823D3C",
"i. c #8A3E3E",
"p. c #824235",
"a. c #8D4634",
"s. c #86463E",
"d. c #84423C",
"f. c #89453B",
"g. c #88413F",
"h. c #8A453D",
"j. c #8D473F",
"k. c #8D473D",
"l. c #8A443D",
"z. c #8B493F",
"x. c #8D4A3F",
"c. c #8B4A3E",
"v. c #90463B",
"b. c #92483F",
"n. c #914C3F",
"m. c #803E40",
"M. c #863E41",
"N. c #843D43",
"B. c #843E41",
"V. c #893E44",
"C. c #834342",
"Z. c #874342",
"A. c #854042",
"S. c #834641",
"D. c #864642",
"F. c #864246",
"G. c #874546",
"H. c #854243",
"J. c #884240",
"K. c #8A4442",
"L. c #8B4543",
"P. c #884741",
"I. c #8C4742",
"U. c #8A4345",
"Y. c #8E4347",
"T. c #8B4547",
"R. c #884647",
"E. c #894546",
"W. c #8C4646",
"Q. c #8A4444",
"!. c #8E4942",
"~. c #8C4C42",
"^. c #8F4946",
"/. c #8C4946",
"(. c #844448",
"). c #8D4749",
"_. c #8F474B",
"`. c #8C474A",
"'. c #88454C",
"]. c #8C4549",
"[. c #8B494A",
"{. c #8D4C48",
"}. c #8F4B4C",
"|. c #8D4A4A",
" X c #904647",
".X c #914546",
"XX c #924A40",
"oX c #924C42",
"OX c #914B43",
"+X c #91464C",
"@X c #98474E",
"#X c #924B4C",
"$X c #994D4D",
"%X c #9A504F",
"&X c #8C4650",
"*X c #934751",
"=X c #964D52",
"-X c #975056",
";X c #9A5354",
/* pixels */
"l t./ W.{.D.s.C.d.t.8 E A M R C R Q Q E z r h.` ] d.h.f.] D.x.p j './ 5./ / +X^.}.u.9 V ` ` !.z.Q p.` d.d.8 C ] Q d.J.K.t.Q d.l ",
"D / d.).^.S.g.s.s./ # E Z M R V R Q C C f & g.] ` g.!.p.p.s.b.r q U.~ N./ 5.^.R.^.u.8 V ` W ` d.A ` W p.u.8 / Q / / J.J./ Q t.z ",
"z ~ g.W.R.5.g.g.C.d.8 R Q M V V V A t.C d # x.p.t.d.~.p.d.s.b.r j F./ B.Q Z.'.Q E.g.* N Q p.z.A Z Q W ` p.8 t./ / ] P.P.p.Q p.l ",
"I / D..XP.d.s.d.d.u.8 C Q M V V M C t.A h 8 k.p.p.p.x.] p.f.b.r S Q./ N.Q F.D.R M.E.9 Z ` p.z.x.` A ` ` h.8 M./ Q / I.J./ / u.l ",
"z ~ T.[.D.] D.u.d.t.8 C t.n V V Z C Q E h , x.p.p.d.P.p.h.d.oXu S (./ F./ F.M.F.Z.E.9 C ` s.c.n.' <.Q C u., J.] / / W.P.] / g.l ",
"I Q W.^.Z.p.Z.t./ g.< C t.n C V M C t.E h , n.s.p.f.h.p.s.p.oXp S Q./ u./ (.u.E.Z..Xd Z A a.c.h.1.*.Y A s.8 E.M.u.t.K.W.p./ p.l ",
"G / s.I.C.] Z./ / s.r A t.n C Z Z C t.C z < n.f.t.] s.d.t.t.oXr F M.^ Z.~ T.t.).D.).g m X.] v.c.] m B V f.t U.g.] / Q.W.p./ d.l ",
"G / u.5.#.2.g.Q / d.t Q p.h Z Z C B ' ) z t n.f.) $.1.p.E ` oXy D +.;.M.Q F.] T.P.D.d _ @.1.h.c.s.` V V p.r W.P.u.C.J.).d./ u.l ",
"R ~ ~ N...T s.~ W S.t Q ' M V C V Z =...h k x.f.` | ] f.h p.OXy l 2.} B./ u.u.Q.[ E.z C W c.x.c.c.` B n p.j ^.E.C.u.Q.^.' u.u.j ",
"R Q R u.u.Q p.~ R g.k W &.( B Z B Z U m n < A p.a.e.t.V & A ~.p F / J M.Q ! u.q.#.C.v g Z C n 4 > 2 & N s.j }.}.5.d.E.^.t.] t.p ",
"d l j t.OXQ Q V v d.h p.<.m Z B B C t.A h & < g t t e @ @ V n.y D u.! M.u.H ~ ,.| Z.l @ 7 : 8 7 7 r 8 z C l ^.+Xd.] D.^./ ] u.l ",
"6 6 6 k l 9 # 7 # u * V p.B Z h n A t.W n $ r # e r & & & h oXl S Q.R d.r.i W N.i.g.g z W 2 V h < v v 6   r #X{.g.(.R.#Xd.C.g.l ",
"< < < # 6 7 7 r r @ : * d h C 1 h Z e.Z h * * w f f * * % d h.< K / H J.G   v W G r # V C h Z h 4 b V k < j #XR.C.S.^.+X/ D.g.z ",
"2 4 4 r 4 B 2 5 c c 2 y , , < o h A C B c % * - f 3 w $ * 7 # # l G l U.l & 8 7 6 7 & C C h A h h C V h 5 k =XT.C.s.R.^.] ' S.I ",
"$ 4 5 2 5 B 2 c B B d f 4 r r 6 , n c Z c & 9 w k k w - * & 8 * 9 7 r j 8 * 9 * - 3 * C E h C h V C C h h G =XT.M.N. XR.d./ S.G ",
"> 2 4 k 5 V d c C C 9 k 5 r d h e @ < C h * $ - f f 2 * 9 $ - 9 - 2 9 8 * 2 w 3 f w * E C v C g C E C h H I -XC.^ ..w.K./ [ p.R ",
"d 5 h h 5 V 4 B V B 9 h f d d h R z r 7 # 9 * * k f f 9 * * $ t - 3 - f f - f - 3 f 9 E V V R h C r.C h V R -X~ T =.9.^./ ! h.I ",
"d 5 h h h V h E C C 9 z g j g z E E l r p t 9 - f x k - * w 9 < w 3 w f x - f 3 3 k w / V C V M y.A E h V R -XI K ^ 5.K p I D.R ",
"d h h n h C c C C C * z z j z h E J ~ R b w d * f D k - d 9 - * 9 f f f f f w f k f 9 u.V E V z y.Q V h E t G k # # @ & # I s.! ",
"4 V c h h A B E Q E 8 z h z l h V J ~ V v 9 t 9 w v v w t 2 d q d 3 d f f k 2 f x f t d.V E V z t./ R c Q # # 9 $ * $ 3 3 z C.W ",
"2 C M h B Q M Q E r.8 z v l M l V ! / E v q j < d z v d d d d t d f k c k h k d z f i M.V Q R M / t.v V ! - f = - - $ 2 2 & 8 u ",
"d V V M C Q V t.t.E 8 v V l M z H E ~ ! H 9 d d d c H w d d d q 9 f z c z x c f v f i u.I Q E V t.y.V V ! * 3 1 2 2 > f 3 2 < * ",
"t V V V R / E t./ t.8 H R z z G v r./ Q H q k d q k H h d k k 9 w k k c c D c k H d j Z.R E E M t.i.R V E 9 k 2 2 f = 2 f w 4 - ",
"d B M C Q p.E u.u.r.8 v R l R I G Q / y.v 9 j j d k H z d d k 9 d c k H v v z z H f t Z.W Q Q M u.u.R V ! $ x f - 3 2 f x 2 3 f ",
"< C W Z t.] / u.u.u.8 z ~ z I G z E C.~ H 9 j j k t R v d j z d q c c H v R z v H k d E.R t.W R t.g.R R R 9 x k 2 f 2 d x = f f ",
"* R Q V t.C.u.u.g.u.8 v u.z I R I ~ Z./ H 8 k g f d H H k z h q q v v D z ! z R R k i [.E / / M C.g.R R ! 9 k x d f 3 4 k 4 k 2 ",
"9 Q Q R g.S.u.Z.u.Z.8 G u.G R H I E C./ H 9 k j l k v H k l D w t v v c v E g ! J z i ^./ ~ ~ R u.Z.~ Q E 9 v v h f f f c f f f ",
"d / Q E g.D.u.J.J.J.8 G B.R I W R ! D.u.G 9 k z z j k J k G z i q v R R / R z E R z i ).] Q / R u.M./ E E 9 v c h k k h c c k d ",
"9 t.Q t.J.D.d.F.Q.U.q l Q.! I ^ R ! (.B.G 9 z k H k k J z G D w t v v ~ B.V G E ! v d T.E.^ / W / Q./ ~ E 9 v v c k h k H v k w ",
"d p.Q u.P.D.g.T.W.W.q k u.~ R ! R W Q.C.G q z z H l k ~ v D H j t R z / / G H / E H i Q.[.~ / W B.F.u.Q ~ 9 H C v k h k b v v f ",
"t t.Q Q.P.J.d.T.W.W.i l u.u.R ! ! W F.B.H q H k H v j L H H v w q V G / / R R ~ ~ H i Q.}./ / ! / Q.B./ / q R b E c c z R v H w ",
"d t.t.).W.J.d.T.W.W.q G B.M.R ^ ^ ~ F.M.G q J k H H k ~ R H H j w E R / [ R H u.~ H u Q.[.5./ ! / E.C./ / 9 J ! v z z z b H H f ",
"k / g. XJ.g.] ^.W.}.u H B.N.W ! ~ ~ F.C.G q ~ k v K k ~ ! H L S j R H / / R R / / J i E.+XB./ [ ~ F.V./ / d R ~ v v I z E R V j ",
"j t.P.W.Z.E.] }.E.#Xq H B.V.^ ~ ~ ~ F.B.G 9 ~ k K K z y.~ H J w j R R / / ! R ~ [ L q ).T.C.^ / W F.(./ / q ! E H c V z ~ R E d ",
"d ] ^.^.t.).Q R.E.#Xi L [ N.N.~ / / F.B.K q y.k H H l ~ ~ K ~ j S ! R ~ / ! ! B.u.L q W.T.W.~ / ~ V.V.u.y.j E y.R v M z ~ R v 9 ",
"d h. X^./ +X' #.7.$Xp ! M.Q.[ / / / N.N.K q y.z H ~ l ~ ~ H L j l ~ R / / ~ R u.N.R j R.+.8./ ] ^ F.V./ u.j E E H H R R ~ H J d ",
"z [.6..X/ #X]  .4.$Xl ~ N.F.N./ [ / N.M.K q [ G H ~ D N.! R ~ S F ~ R ~ / ! W [ V.H l 4.#.7.M.^ { -.B.~ B.l ~ ~ G R v ^ / R ~ k ",
"v 3.%.R.E .XD./ u.;XS L D.N.F.[ [ B.V.M.! i ~ k H ~ k ~ ! J r.D l ~ R [ / ~ ! u.).! q ).5.]./ ^ | ,.[ j L D u./ R W z [ ~ R ~ l ",
"! 6.<.z.G ;X{.p.M.=XD ~ R.V.N.[ B.B.(.B.L i y.k ! E z y.~ ! ! D l ~ W B.u.~ / [ T.R q ].*X'.! u.~ / G . 6 i y.~ H R R / u.H y.k ",
"z u.I.Z.p ! Q R H D 7 [ W.N.Q.u./ B.F.B.~ j y.c ! ! F N.H  .;.k l / W B.B.[ / / +Xy.q F.=X&Xp l p r 6 r 0 q u.~ R W R B.~ ~ u.l ",
"O O 7 6 r e , , 6   7 N.N.Z.'.B.[ N.Q.B.~ j ^ s L H z B.! s } H l / W M.u./ [ N.*XB.9 l ! ! 7 e # r 7 l H d B.R ! ! ~ C./ ~ ~ k ",
"t r 7 # I h y p p M - t.Z.N.V./ [ u.E.[ ! j X.*.H J z 5.! ! r.H G [ E ].[ [ / C.+XR.q r , : t k h k t k z j N.R ! R ~ C./ / ~ k ",
"h A E V C C c B e.t.* N.(.M.Q.B.B.C.Q.B./ D I a H G H '.! ! H p I / E R.C./ [ C.}.'.j k M M f v b k d v v j M.R / W B.M.~ u.N.G ",
"h C t.Q A C z Z e.Q 9 M.V..XC.u./ M.F.B.~ F J H F p j p 8 8 6   K / W *Xd.[ B.Z.@X_.w c y.W f c V g f R H S M.R / ~ B.N.~ B.V.G ",
"h C Q C t.C V C t.C < N.,.9.N.C./ F.].B.B.8 r l r @ 6 X @ O 7 9 H +.=.U.i.B.N.>.w._.w v y.Q z J H h z ! R l N.R / ~ V.V.B.t.F.G ",
"h Q Q C t.V A B t.A * M.=.;.~ N./ 5.(.t.M.8 e e : 7 8 i t j l z H }  .V.] [ ^ { O.+Xk v Q / h C v h c E H S M.! [ / (.V.N.~ F.H ",
"k Q n Q Q V Q A i.C d / / 8.~ D.Q { O.y.C.9 h d < z h f k k z f G R t./ ] N.C.[ 8.*Xk v r./ M V C h v r.R l E.~ [ ~ F._.F./ V.H ",
"f u.C t.t.Z Q Q p.E $ R ].}./ C.T [ ,.t.P.d v z d k v h k z z z , g F F u.R.u.^.*X].k v Q ] c E R z E r.R F ).~ [ / V.'._.M.N.K ",
"k p.d.d.Q W Q ` s.Q & , p z W T.Q F.+X~ / t J n d g v z z z M j r , : p I G I p p , # C Q ] M C C n Q / R D +X/ / [ N.].Q.V.[ H ",
"k Q t.d.V W Q Q f.C & r , ; r [ R d./ 7 O r b v h z R v z z v j z E k t @ 6 e e 7 , 7 h t.g.V C R z ~ t.V D +XO.+.[ N.F.F._.5.L ",
"d p.i.t.C Q Q u.u.C & g z t r # e 7 7 0 e * C v z z E C z V V t z Q v v p m z z j R t v t.u.M Q E M E u.k D +XX.} N./ Z.V.].M.R ",
"d u.g.Q Q Q t.d.l.r.& k R f z p r 7 p H H 9 v V M M E E z R R j G E v R v E V R k E r g t.g.W C E V E t.J K  XZ.R N.[ Q M.+.X.v ",
"w Q / V Q ] p.g.s.B % k H h z H v v J R H 8 C V M Z Q t.v K R t G E Q E G R R W v E * h t.g.Q W Q Z t.u.E H *X#XC.B.5.! N.X.3.H ",
"d v R W ] Q g.g.p.v 8 z v z z J R h J ~ H & h V M V t.t.V R V j j R / W I R V E R E 9 h Q s.Q Q Q C Q u.Q t I [ / / Q.H N.V.].! ",
"q R Q Q ] t.D.P./ V & z z V z ! ~ k ! ~ H 8 h V R W Q t.Q R W t j ~ B.W R ~ R ~ E E 8 h A p.p.C E Z Q g.E 7 : & 8 p l 8 ~ .X~ j ",
"d Q / Q Q p.P.h.Q C # G v H h E ~ v V E H % C V R Q t.Q Q R / t l N.N.I R W Z y.u./ 8 V E p.p.R Q E Q d.R 7 l y p e 6 7 j 8 6 6 ",
"d Q Q ' / s.P.g.Q Q & z v H z R E v v r.H 8 V V W t.u./ Q R t.t k N.C.W R ~ R / Z.~ 8 v A t.d.A Q C R s.E + C V Q j z V 6 6 p z ",
"w Q / / p.h.I.Q p.r.7 z c R V v ~ E H E H 8 C C / p.h./ t.Q g.q S V.C.! ~ ~ ! d.u./ 9 B Q t.d.Z Q Q Q h.Q # V V t.h / ` V V Q V ",
"q Q / d.g.P.P.Q d.Q & H z R R v t.! v r.v 8 C C Q s.s./ p.] d.r l V.d.W / ~ W Z.Z.~ & V Q t.h.Q Q W E g.t.7 C V Q v t.] C C A z ",
"d E ' / J.I.D./ h.E # V v V R M E E v E H % E A ] s.g.t.d.d.s.9 j ]./ ! ^ ~ ~ F.Z.E % B ` t.h.Q A Q C f.y.7 E C Q Q u.s.C Z Q v ",
"j E / / W.P.d.] h.E & V V V V V E E v E z & Q A / s.p.d.d.] h.u S ^./ ! / / / R.J./ 8 V p.Q x.Q Q Q Q s./ 7 E E Q t.t.s.A C / v ",
"w ~ / S.!.^.p.d.g./ + R V z R M E / C E V & t.Q Q s.p.d.p.] P.8 j }.^ / / ~ Z.^.E./ 9 V ` Q k.p.Z Q A s.t.& V / E M.p.E.Q C Q z ",
"j E Q D.^.R.d.g.g.Q # C C M V R C E C E I & u.Q / p.p.s.p.s.I.i p _.^ / / ~ D.E.E.t.8 Z t.` h.p.Q ` Z s.u.# V / R g.t.J.Q Q p.z ",
"j / Q E.{.R.u.s.D.Q # R V M V M V E E C z + f.` t.p.Q d.t.d.I.8 q _./ / [ / T.Q.W.~ 9 Z ` Q h.s.W Q A d.u.7 v / Z d.d.D.t.W Q h "
};
