/* XPM */
static char *f80322f7161b4c7ea8d2bae75bdd2c46tnQ0CU0YefTEOqCp[] = {
/* columns rows colors chars-per-pixel */
"64 64 256 2 ",
"   c #040202",
".  c #0B0301",
"X  c #080909",
"o  c #160905",
"O  c #191408",
"+  c #0B0B15",
"@  c #171719",
"#  c #101115",
"$  c #280902",
"%  c #251607",
"&  c #361804",
"*  c #251A16",
"=  c #37130D",
"-  c #1E211C",
";  c #292517",
":  c #372719",
">  c #3D250A",
",  c #161A22",
"<  c #0D1923",
"1  c #251E23",
"2  c #1A2528",
"3  c #102830",
"4  c #272828",
"5  c #352A27",
"6  c #27333A",
"7  c #383637",
"8  c #323030",
"9  c #461A09",
"0  c #472609",
"q  c #552607",
"w  c #472819",
"e  c #573518",
"r  c #523114",
"t  c #6A3717",
"y  c #472D24",
"u  c #493428",
"i  c #573A28",
"p  c #513632",
"a  c #65372D",
"s  c #3B423B",
"d  c #6E421B",
"f  c #594329",
"g  c #4B453B",
"h  c #584639",
"j  c #5C5239",
"k  c #66452B",
"l  c #674938",
"z  c #785639",
"x  c #724F2F",
"c  c #6D5A30",
"v  c #383A46",
"b  c #2A3B49",
"n  c #153C59",
"m  c #4C3C47",
"M  c #713E47",
"N  c #3A434A",
"B  c #3A4754",
"V  c #384E5D",
"C  c #174C74",
"Z  c #36516B",
"A  c #1D4B64",
"S  c #474747",
"D  c #544C47",
"F  c #58544B",
"G  c #464C57",
"H  c #554D55",
"J  c #4B545A",
"K  c #575758",
"L  c #4F564D",
"P  c #665849",
"I  c #765947",
"U  c #655B56",
"Y  c #735051",
"T  c #596159",
"R  c #6B655A",
"E  c #776758",
"W  c #73634A",
"Q  c #4A5866",
"!  c #595B64",
"~  c #465971",
"^  c #665D67",
"/  c #596566",
"(  c #4C6478",
")  c #586676",
"_  c #4E616F",
"`  c #676768",
"'  c #776B67",
"]  c #77736A",
"[  c #6B6B72",
"{  c #646975",
"}  c #6B767B",
"|  c #777678",
" . c #6F716F",
".. c #87471C",
"X. c #855936",
"o. c #8C532C",
"O. c #8B623A",
"+. c #956737",
"@. c #AB6B36",
"#. c #AE582C",
"$. c #865B47",
"%. c #886846",
"&. c #976B49",
"*. c #9C744A",
"=. c #887758",
"-. c #997758",
";. c #8D6C54",
":. c #A57647",
">. c #A77855",
",. c #AE724B",
"<. c #977868",
"1. c #867977",
"2. c #8D6E6D",
"3. c #A3796E",
"4. c #8C5861",
"5. c #C47949",
"6. c #A35929",
"7. c #7D837A",
"8. c #99825C",
"9. c #A9835C",
"0. c #B58658",
"q. c #B4864A",
"w. c #988669",
"e. c #8A8579",
"r. c #958679",
"t. c #8A8568",
"y. c #A88868",
"u. c #B58966",
"i. c #A78A78",
"p. c #B89979",
"a. c #B6916E",
"s. c #BBA17C",
"d. c #C38B58",
"f. c #C89759",
"g. c #C78D4E",
"h. c #C79969",
"j. c #C99B75",
"k. c #D29B6C",
"l. c #D1A674",
"z. c #E8B574",
"x. c #D2A35D",
"c. c #F2C17D",
"v. c #B5803E",
"b. c #2E5A82",
"n. c #37688C",
"m. c #2B6B98",
"M. c #566B83",
"N. c #59728A",
"B. c #4F7592",
"V. c #697785",
"C. c #797B85",
"Z. c #687C96",
"A. c #606D80",
"S. c #4A668C",
"D. c #847C84",
"F. c #9E7789",
"G. c #A6798E",
"H. c #56849B",
"J. c #7A858A",
"K. c #67879D",
"L. c #778897",
"P. c #5A8CA9",
"I. c #6888A6",
"U. c #7796B3",
"Y. c #6E92AA",
"T. c #76A2B5",
"R. c #75A4C7",
"E. c #838385",
"W. c #8B8C8C",
"Q. c #878789",
"!. c #978A84",
"~. c #9B9488",
"^. c #8C8D93",
"/. c #868C95",
"(. c #928E93",
"). c #8B9299",
"_. c #939294",
"`. c #95979A",
"'. c #8A928B",
"]. c #A58B85",
"[. c #A69689",
"{. c #A79793",
"}. c #B5978D",
"|. c #BAA798",
" X c #B0A48F",
".X c #8C98A6",
"XX c #959AA6",
"oX c #8C9BB1",
"OX c #98A3AA",
"+X c #99A6B7",
"@X c #90ACB9",
"#X c #A5A5A9",
"$X c #B5A9A6",
"%X c #A7ACB4",
"&X c #AAB3B8",
"*X c #B8B7B7",
"=X c #B4B3AD",
"-X c #9C9E9A",
";X c #D9BA97",
":X c #CCAD8E",
">X c #E3B68B",
",X c #C7BBBA",
"<X c #CEB5AA",
"1X c #C19E8D",
"2X c #BDC1BD",
"3X c #E9C496",
"4X c #F3C58B",
"5X c #D2C3B8",
"6X c #E6C7A7",
"7X c #EFD0B0",
"8X c #D9C29C",
"9X c #84ABC5",
"0X c #96ACC3",
"qX c #98B4C9",
"wX c #91B7D1",
"eX c #AAB9C6",
"rX c #B5BBC3",
"tX c #A5BCD5",
"yX c #A0AFC2",
"uX c #C3BEC5",
"iX c #D5BFC1",
"pX c #97C2D3",
"aX c #BBC4CB",
"sX c #A7C7DA",
"dX c #B8C8D5",
"fX c #B6CED5",
"gX c #B4D1E8",
"hX c #BCE8F5",
"jX c #9BCDE4",
"kX c #C8C6C8",
"lX c #D5C8C7",
"zX c #C8CAD4",
"xX c #D2CCD7",
"cX c #CBD3DA",
"vX c #D5D6D9",
"bX c #DCD3CB",
"nX c #E4D3CE",
"mX c #F3E6D6",
"MX c #C6D7E7",
"NX c #D8DCE5",
"BX c #C7D6EF",
"VX c #D8E5EA",
"CX c #C7E8F7",
"ZX c #D7EBF6",
"AX c #CCF4FA",
"SX c #D9F7FC",
"DX c #C6E2ED",
"FX c #E6E4EA",
"GX c #E4FCFE",
"HX c #ECFDFE",
"JX c #E8F5F8",
"KX c #F4FEFE",
"LX c #FCFEFD",
"PX c #F8F8F8",
"IX c #F3F0EE",
"UX c #E1DCE1",
/* pixels */
"sXhXgXtXtX0XyXoXXX.X/.)././.(./.`._.W.(._._.(.Q.[ C.` [ [ K ^ ! { C.XX5X*X2XcXvXNXNXVXJXFXJXPXIXmXnX<XnXJXGXPXIXLXPXPXKXGXAXhXhX",
"9XsXgXtXtXyXoXoXXXXX).).)./.(.D._.^./.^.^.^.XX/.C.^ [ { ! { ! ! ) ^ D.kX2XaXcXFXFXNXKXJXJXJXPXFXiX|.G.].bXHXPXPXLXLXPXKXHXSXhXhX",
"U.wXgXtXtX0XoX+XoX.X^.).^.W.^./.(._.(.(.W./.(.W.[ ` [ [ ^ ^ ! ! ^ D.xXxXkXkXvXFXPXIXHXPXJXPXIXvXnX}.$.<.vXSXIXLXLXLXLXLXGXSXAXAX",
"U.U.tXjXyXyX+XoXXXXX/.^.^./.).(.(.(.W.W.W.W.(.D.! [ ^ ^ { ! K H m G /.+X=XvX#X=XFXPXLXIXPXLX$X|.7X6X}.].=XVXKXPXLXLXPXLXHXSXAXAX",
"U.Z.Z.wXtX0X0XoX.X.X/.).(.^.(.^.W.W.W.W.W._.'.| ` [ ! K [ [ ! ^ | ` | Q.#X*XF ] nXLXIXLXIX=X'.7X<X6X;X].| fXPXKXLXLXPXLXKXSXSXAX",
"Z.R.B.oXtX0X0XoX.XXX).^.^.^.(.^.W.Q.e.'.^._.Q.` ` [ U ` ^ ` Q.(.rXkXcXrXxX$X: ; F 5XLXFX|.[.5X5X;X:X1X$X'.%XJXPXLXLXLXPXKXGXSXSX",
"Z.R.Z.Z.tX+XoX0X).XX).(.(.(.`.^.W.W.Q.Q.W.(.| K ` [ ^ [ [ K E.(.#XaXaXzXkX1.= y u h !.E [.mX7X:X;X;X;X<X-XY.ZXKXLXLXLXLXPXHXGXGX",
"Z.I.U.N.0X+XG.oX).(.(.(.(._._.^.Q.'.Q.'._.(.E.K  .^ ! ` [ ^ S | _.=X&XrXvX1.i u u h y j 8XmX8X6X;X;X<X$XOXL.fXKXLXLXLXLXPXHXGXGX",
"Z.Z.oXZ.Z.+X+X+X.XG.(./.(.(._.(.Q.W.W.W.'._.C.K ` | ! H | W.| H ` '.%XaXkXP w r $ $ W w.mX6X6X6X6X1X{.D.G b Z.PXKXLXLXLXLXHXHXGX",
"Z.Z.Z.Z.~ .XXX.X.X.X(.^.(._._.!.W.W.`.`.`.`.W.` ` | | K C.C._.[ ` ` OXrX,Xh i q f h l <X6X7X7X;X1X1X' 6 A Z C jXKXLXLXLXPXHXHXHX",
"Z.Z.Z.D.Q C.+XD.^.).(.^._._._.W.W.Q.`.#X#X#X#XE.J.| E.J E.| Q.E. .` ).OX~.f e 9 z =.;.;X6X6X:X;X:Xr., G oXS.m.Z.KXLXLXLXLXKXHXGX",
"Z.N.Z.Z.! A.oXD.D.^.`.(._.(._.(.(.`.#X%X*X*X=X`./._.#X{ C.C.[ OX_.^./.).' k t d k > i.;X3X7Xs. Xw.: G Z.B.S.m.m.HXLXLXLXPXHXHXHX",
"Z.M.A.V.) G C.^.D.Q.(.(._.W._._.-X#X%X*XkXuX*X&XOX%XrX/.V./.! J.`.XX).`.U W &.&.z %.y.8X7X3X Xw.: 7 } n n b.m.P.HXLXLXLXPXPXGXGX",
"Z.A.M.C.{ m { ).E.E.Q.Q.~._._.~.-X%X*XuXcXxXzXzX*XaXcX#XC.J.J.[ C.^.).'.W s.l.:.z w.s.3X7Xs.i.j ; ` V n n b.P.P.HXLXLXLXKXHXHXGX",
"A.) ! A.V.G J E.Q.C.E.| W.'._._.*XuXzXFXFXFXcXcXNXJXJXcXOX/.+XC.D.(.OXQ.=.;Xj.9.j.:X:X8Xz.8.t.; F } n A C m.m.R.HXLXLXPXPXHXGXGX",
"A.! ! A.C.G G { Q.E.J.1.e.'._.`.#X#XXX#XXX+XeXzXrXzXdXaXNXaXrXOXJ..XXXW.t.p.O.j.1X3X;Xs.y.8.f : ~.Q A n C m.R.wXKXLXPXPXPXHXGXSX",
"^ ^ H H C.{ v G Q.J.1.1.Q.(.'.`.'. .{ Q Q Y.+X+X.X%XzXaXcXNXrXtX+XOXXXe.t.p.:X>Xa.3Xl.w.E E O R '.b n C b.b.P.CXPXLXLXLXKXHXGXSX",
"^ ^ ! H C.A.G G | E.D.1.Q.(.).`. .T ! G G Z..XoX/.XXaX%XOXdXBXdXfX+X#X~. X7X7Xp.l.0.8.W ' 4 f E U 6 n b.b.b.gXKXLXLXLXLXKXKXSXSX",
"^ ^ K S { | Q v / E.1.D.W.(.#X).K K ! B ~ D..XoX).D._.,X%X%XzXNXaX#X*X(.nXIX:X<.u.%.c D g ; t.F # 3 n C C B.NXLXLXLXLXLXLXHXGXSX",
"` K H H ! [ Q m S | E.E.W.XX%X/.K / G v ! A.C.C.D.1.' | =X#X%XFXcXaX=X~.bX7X[.4.9 $ . u @ D ~.D < 3 A C n.9XGXLXLXLXKXLXKXKXHXSX",
"` L S H H [ ^ S g ` Q.Q.`.#XOXJ.! K S N ^ [ ^ ^ D.2.U 2.F.*XrXiXvXkX=X' {.,X2.9 & 9 @ 4 7 ' 1.m 2 3 _ ( H.pXLXLXLXLXLXLXKXKXGXSX",
"K F S S S '  .H N K Q._.OX&XU.} Q G S ! C.^ E E ;.Y I l 1.{.G.#XzXkX<XD 2.4.9 $ &.a o , * # 5 7 2 < H.H.pXgXLXPXLXLXKXKXKXHXGXJX",
"R L D S g ` ] K g S | `.%X&XL._ J G J  .' R Y Y $.I l $.2.1X$X$X&XlX$Xr.}.w = ..o.a @ 8 + + , , 6 3 K.T.GXHXPXPXLXLXLXKXHXHXGXSX",
"R K D g S U  .R S S  .XXeX&XL.Q G G ` | U E E z $.z x 4.}.}.<XiXnXkX}.|.<X4.,...o.9 + , + , + < < 3 fXpXHXKXPXPXLXLXKXHXHXGXSXZX",
"` K F g g F ]  .F S ` .XdX.X_ Q Q J [ ' R E c =.*.X.&.;.3.3.<XiX5X|.[.i.;Xj.@.t ..e = + + @ , 1 < 6 JXHXLXPXIXPXLXLXHXKXGXSXSXAX",
"` F F D D D ' R R J / `.eXJ.Q B Q Q ` ` E E *.8.0.%.X.;.a.}.1X<X:Xw.i.<.6X>.....t a + + + + 5 5 , N JXLXLXPXIXPXPXLXKXKXHXSXSXAX",
" .U F F h F ` ' / J / XXoX) Q v v ! ] R W c 8.h.&.X.x &.3.p.i.j.;Xy.y.y.6X,.5.#...w . + + o 5 : 8 ` PXLXLXLXPXPXLXLXHXHXSXSXAXAX",
"] R F D D F U '  .J { OXV.Q v v N [ ] P W 8.9.a.>.o.X.$.;.a.a.7Xl.0.y.%.>X5.,.h.,.w . X + * : y 7 (.LXLXLXPXLXLXLXLXKXHXGXSXAXhX",
"' U F D F F U | D.! L.).Q B v v G [ R P %.9.q.u.>.X.o.%.u.:X:X3Xk.h.p.%.k.5.d.k.>.w o + # 1 w u p *XLXPXLXLXLXLXLXLXKXKXHXSXAXhX",
"2.' U D F F H | | [ OXV.V N G p K ] P W W 8.8.0.&.&.$.>.u.0.3X>Xf.x.s.=.,.5.g.5.&.= . + , , y j U vXLXPXLXKXKXLXLXLXLXKXJXAXAXCX",
"1.' U D D F H 1.C..X.XQ G N v 8 ^ R P j +.8.@.9.o.X.O.u.j.j.6X0.k.l.8X%.#.5.#.5.&.= X + + , p 2.1.FXLXLXKXLXKXKXLXLXLXLXJXSXAXCX",
"' ' ^ H F D D [ | %XV.J J 6 7 5 H I I z +.8.q.h.,.&.>.j.j.>X4X:.>Xj.8X9.#.#.v.5.&.$ = , + 2 5 1.{.PXKXLXKXKXKXKXLXLXKXPXHXZXsX@X",
"| 1.' U F j K K C.XXQ { G 6 7 7 g R c +.c 9.9.f.d.3.p.j.z.7Xz.0.d.&.6Xu.,.#.#.#.&.$ a F.v m m ^ XXPXPXKXKXKXKXLXLXLXKXPXGXMXwX@X",
"1.| ' U P F U K D.XX! { Q m D 8 D j W c q.q.x.h.0.h.>Xl.7X4X,.0.d x 7X>.#.o.@.@.z = 4.G.D.v H ^ uXPXJXPXKXLXLXLXLXKXLXHXDXDX@XY.",
"D.2.' U P P P T XX/.Q J v v m * D P c *.v.q.x.f.h.l.z.:X4X0.k.k...X.7X%.@.,.@.v.l $ m F.D.v ^ m vXKXJXKXKXLXKXLXLXKXPXHXGXgXT.pX",
"D.2.' P j P T 7.%XC.Q m v v 7 * F %.c *.:.x.z.x.z.k.f.l.4X9.l.>.q +.>X&.X.,.o.:.a o $ 4.D.M m v vXKXKXKXJXPXKXKXKXVXcXgXfX@X@XpX",
"].1.' U j W T 7.%X! J S v 7 7 * P ;.%.>.f.x.z.f.g.v.f.x.u.h.d 9 ..:.9.a.q q z -.i . . p F.Y v m VXLXKXLXJXHXHXHXGX@XL.T.T.P.T.P.",
"!.2.2.E F W R '.#XQ K G 6 4 1 * E -.&.h.z.z.x.v.@.g.q.q.h.:X0 t ,.,.0.9.i e $ I Y . . * 4.Y m H IXKXPXJXJXHXHXJXGXAXSXCXjX@XY.P.",
"].1.1.|  .7. .=X)./ } L 4 , @ % W y.9.l.c.c.f.v.g.q.h.k.>XO.q t ,.,.u.a.d e e = P 1 . o 4.M M ! KXKXJXPXKXJXJXGXHXGXKXBX0XqXY.Z ",
"{.Q.W.Q.7.7.7.aXJ.T [ L 1 @ @ O j a.h.g.c.z.g.+.@.k.k.*.t $ t t o.,.&.a.c r q 9 l 2.o + 4.M m D.PXPXJXPXKXJXJXHXSXHXgXL.N.K.V.V.",
"rX#X.XXXQ.'..XaX7._ 7.T - < X % W >.,.f.c.x.@...q q q 9 t a t x ,.,.-.3.+.q t d d ' g . 4.Y M #XLXKXIXKXHXHXGXHXSXsXK.7.n.@XY.HX",
"*XeXyXOXOXL.T.2X7.T J.s # - . O <.*.o.f.4Xg.@.q q a q a 9 q t d X.-.%.>.+.t d x z z Y $ 4.4.m uXKXKXKXHXHXGXVXAXhXK.H.H.pX@XY.SX",
"J..XeXeXpX&X2XOXT 7.e.s O X   : i.*.+.z.c.q.*.q a w y a I %.*.k &.;.e 3.:.d d +.$.z I o p 3.M ,XZXCXhXhXgX@XT.P.P.P.n.P.jXN.@XZX",
"} V.V.L.OX@XfXL.L 7.7.; # X   7 y.9.0.4Xx.q.c d a a = $ $ 9 ;.%.$.9 & $.&.o.o.*.O.z $.Y w F.Y (.gXpXsXjX@X@XgXjXH.Y.B.pX@XZ sXDX",
"/ '.J.H.'.&XsXJ.L L 7.; # X X : 3.u.d.z.@.+.r x a = $ = % & & 0 & & = p z X.z +.O.&.4.3.a 2.4.D.JXSXJXGXSXGXGXwXH.H.R.jXA H.pXfX",
"L / } 7.L.7.-XJ.s 7.7.O X X X ; -.j.d.f.@.x q k w y $ : w 9 i r r & 9 $ l l %.&.&.&.3.4.D 4.2.H rXHXGXZXSXJXSXtXP.H.jXP.B.@XK._ ",
"-XL s / 7.T 7.J.s t.t.; O + X 8 ;.>.d.0.@.d 0 0 & % w & % y y a f e i a % W c %.&.j.-.3.E E p 1 eXJXVXZXZXZXZXwXP.H.R.b.9XK.qXqX",
"-Xt.L N T T  .7.R s.7.; - < X 7 <.+.>.q.O.r & > w i : : % y i : > > u o ] nX~.c >.1X3.3.3.w : + XXJXZXZXZXSXSX9XI.9Xn.R.R.I.qXpX",
"e.-Xt.] 7.R T 7.t.7.7.; - < X s W x +.:.t 0 $ w p u p : : ; % 5 ; ; ; E.NXzXcX{.2.p.3.>.3.z p , /.HXVXSXZXSXCX9XR.Y.P.wXP.B.wX0X",
"'.~.e.r.t.7.7.t.s.8.c O - < X - W k &.x > & & f y h u u : . o 4 s / *XxXuXuXxXrXR |.>Xo.,.I p p V.HXGXVXDXAXCX9XR.H.R.R.P.Z.qXyX",
"Q.~.r.~.r.-Xr. X8.*.f O # # X - P j X.0 o o > f 5 P p % O % O < < &XvXxXuXuXzXxX{.}.:X&.X.z y 4 J.GXVXAXSXSXgXwXT.n.9XT.Z.S.eXOX",
"[.r.r.~.~. X X X8.7.j ; # < X s E j o.d $ % h j p h : o * ; - X s aXcXuXrXuXzXrXvX<Xy.&.d i u 4 / SXDXDXsX9XU.wXH.S.9XY.S.( .Xb ",
"{.!.!.].~.|.i.w.f 0 ; X < 3 X X P f 8.*.: O h y p u O O ; O - X N MXzX5XxXkXaXzXkX=X-.;.x > o X V.AXBXgXtXqXqX9Xn.B.9XI._ ( _ 6 ",
"].].{.[.~. Xw.8.z u * X < - X   8 P *.d %   p : ; ; O - O ; # X Z fXzXaXkX*XzXaXxXlXE I f > O X %XCXgXhXsXsXgXY.n.B.U.N._ _ N ) ",
"{.F.!.[.~.r.%.8.e > @ # 2 2 X     E X.0 O @ 5 ; % X O @ @ 5   4 _ XXcX2X*XkXzXzXuXlX}.w u : . v ZXBXBXBXgXtXwXS.Z Z.I.M._ V b B ",
"}.].{.Q.e.t.c O.0 o O < 2 s X X   u *.> : O ; O O O O O * @ + B 6 .XzX=XkXuXrXuXzXxXbXR . . . XXNXgXgXgXgXgXU.b.S.S.I.M._ b b v ",
"<X$X Xt.7.c %.r & o @ < 4 7.2     o a.x : s ; O X O - - X   4 6 < %XzX=X*X5XaXkXkXkXxXxX(.H C.NXMXxXBXtXyXtXS.N.b.S.Z.M.G 3 ) Q ",
"<X<X$X7.t.7.c r % . , < N e.` ; . . %.y.: 5 o O % O O . X   4 @ 4 &X2X=X2X,X2XkXxXkXlXUXFXFXNXzXxXyXxXBXtXY.( N.Z Z N.( Z b ( G ",
"<X[.=X7.w.W e > % . - < T R r.e.S u l -.g 7 D j O X . . . @ 4   L aX2X=X2XlX5X5XkX,XuXxXiXxXuXxXNX%X+XMXBX( Z.Z.Z Z S.~ b 6 Q V ",
"<Xi.e.7.s.W f > . X 4 4 ] ' 1.{.{.r.$.;.=.R ~.]   X o ; O @ #   7.5X=X=X,XkXkX5XlXlXxXxXxXBXNXxXNXzX+XeXeX~ U.M.Z G M.G < N ! Q ",
"<X<X X~.[.E u %   X 5 K e.!.<.!.{.].;.-.w.f t.R X o o g 2 4   @ =X,X*X,X,XlXlX,X5XlXxXxXxXNXNXxXNXNXVXtXM.L.0XS.V V 7.V < J J./ ",
"<X<X|.[.i.E : % X O g Q.2.!.].].[.].<.].r.g w.R   o o j p 8   p bX=XkX,X,XlXlXlXbXnXbXbXuXuXFXFXUXFXaXyX~ 0XoXM.N N / 2 < / `.T ",
"5X].{.[.}.E ; O X O | |.' ].1X].].3.i.}.}.k E P . O $ f D ; . ' 5X,XiXiX,XiXnX,X5XmXnXbXUXUXFXrXcXrXV.) Z I.K.M.V N J 2 4 L '.7.",
"7X:X<X X$XW ; O - O {.<X2.3.}.<X|.].<.|.p.e u g . % & y g # o $X5X*X,XiXiXiXnXnXmXIXmXIXIX=X%XD.XXV.V.Q Z ( Z V V 6 s - 4 s L L "
};
