/* XPM */
static char *_f1722bb78614c7fddc1c025a582419ezz96pPk6JscQUEOu[] = {
/* columns rows colors chars-per-pixel */
"64 64 234 2 ",
"   c #090908",
".  c #141414",
"X  c #1B1B1B",
"o  c #171819",
"O  c #0B1213",
"+  c #241B18",
"@  c #311813",
"#  c #1D201F",
"$  c #27211E",
"%  c #39201E",
"&  c #1C1E21",
"*  c #1C2223",
"=  c #232323",
"-  c #292726",
";  c #252A2C",
":  c #2B2B2B",
">  c #272728",
",  c #392825",
"<  c #2B2E31",
"1  c #2D3132",
"2  c #343434",
"3  c #3B3B3B",
"4  c #363837",
"5  c #2F3030",
"6  c #211F20",
"7  c #5D1D12",
"8  c #4D1A0F",
"9  c #671F10",
"0  c #432219",
"q  c #5B2719",
"w  c #692819",
"e  c #752B1B",
"r  c #782B18",
"t  c #7D321D",
"y  c #75311C",
"u  c #462A24",
"i  c #5C2D23",
"p  c #532B25",
"a  c #593228",
"s  c #483836",
"d  c #533D3D",
"f  c #573B37",
"g  c #43352E",
"h  c #682E22",
"j  c #6C3325",
"k  c #6C3A2D",
"l  c #673428",
"z  c #743424",
"x  c #7C3524",
"c  c #7D3826",
"v  c #7B3629",
"b  c #743A2C",
"n  c #7C3A2A",
"m  c #763728",
"M  c #663C35",
"N  c #763D32",
"B  c #3D403E",
"V  c #59423C",
"C  c #4D423C",
"Z  c #69423C",
"A  c #7C4234",
"S  c #7C4539",
"D  c #77463B",
"F  c #7F402F",
"G  c #3C3F41",
"H  c #563F41",
"J  c #3D4243",
"K  c #424242",
"L  c #4B4B4B",
"P  c #554343",
"I  c #5B4545",
"U  c #5C4A47",
"Y  c #5D4A4A",
"T  c #5B4749",
"R  c #5E514D",
"E  c #585857",
"W  c #4E5253",
"Q  c #634644",
"!  c #624C4C",
"~  c #6C4E4B",
"^  c #694945",
"/  c #744B46",
"(  c #6D504D",
")  c #66514D",
"_  c #76514E",
"`  c #634F50",
"'  c #645253",
"]  c #6B5454",
"[  c #6C5659",
"{  c #6D5A5A",
"}  c #665A5A",
"|  c #725452",
" . c #725C5C",
".. c #795957",
"X. c #7C615E",
"o. c #6B605E",
"O. c #745E60",
"+. c #6F5F60",
"@. c #6D6D6C",
"#. c #666565",
"$. c #756264",
"%. c #7A6465",
"&. c #7C6669",
"*. c #7D6A6C",
"=. c #766868",
"-. c #7C7776",
";. c #7E6D71",
":. c #83331E",
">. c #8D331F",
",. c #812E1E",
"<. c #823622",
"1. c #8B3522",
"2. c #853925",
"3. c #8B3C26",
"4. c #843D2B",
"5. c #8B3E2A",
"6. c #903F2A",
"7. c #963C25",
"8. c #883F30",
"9. c #85412E",
"0. c #8D422D",
"q. c #8D4026",
"w. c #91432D",
"e. c #9B4229",
"r. c #844334",
"t. c #8C4532",
"y. c #8D4836",
"u. c #864C3D",
"i. c #8B4B3B",
"p. c #854739",
"a. c #924632",
"s. c #954A35",
"d. c #994C36",
"f. c #954C39",
"g. c #9A4E39",
"h. c #984732",
"j. c #95513D",
"k. c #9A513B",
"l. c #A1422C",
"z. c #A1503B",
"x. c #8A4E41",
"c. c #854E43",
"v. c #8B5245",
"b. c #87554A",
"n. c #9B5543",
"m. c #9D5C4A",
"M. c #955748",
"N. c #8C5D55",
"B. c #845C57",
"V. c #915C51",
"C. c #A05644",
"Z. c #88635D",
"A. c #96655A",
"S. c #9F624F",
"D. c #A46A59",
"F. c #A0624D",
"G. c #836564",
"H. c #836B6C",
"J. c #896968",
"K. c #986C64",
"L. c #9A736B",
"P. c #846E71",
"I. c #886F72",
"U. c #857374",
"Y. c #897375",
"T. c #8A7679",
"R. c #8C7A7B",
"E. c #877879",
"W. c #927A7A",
"Q. c #84706E",
"!. c #A87669",
"~. c #AB7D73",
"^. c #A37871",
"/. c #AB786B",
"(. c #93817B",
"). c #AC8378",
"_. c #B48578",
"`. c #8C7E80",
"'. c #927E80",
"]. c #898585",
"[. c #938484",
"{. c #968888",
"}. c #989595",
"|. c #AA8B86",
" X c #B78D83",
".X c #B99389",
"XX c #A79997",
"oX c #B99D96",
"OX c #B0A29E",
"+X c #A8A9A9",
"@X c #B7A9A8",
"#X c #B5B3B4",
"$X c #BAB4B4",
"%X c #BBBABA",
"&X c #B3B0AF",
"*X c #C19C93",
"=X c #C09A8F",
"-X c #C5A39A",
";X c #C6ABA5",
":X c #CBB2AC",
">X c #C8B2AB",
",X c #D1B3AC",
"<X c #CBBAB7",
"1X c #D3BBB5",
"2X c #D1ACA3",
"3X c #D8C2BD",
"4X c #C7C6C7",
"5X c #DCCAC4",
"6X c #D9CCC8",
"7X c #DAD1CD",
"8X c #D7D6D6",
"9X c #E1CEC9",
"0X c #E3D1CB",
"qX c #E7DAD8",
"wX c #E8E1DD",
"eX c #E4E4E4",
"rX c #ECE5E3",
"tX c #EDEBEA",
"yX c #ECE9E8",
"uX c #F2ECEB",
"iX c #F1E8E6",
"pX c #F3F0EF",
"aX c #F4F3F4",
"sX c #FBFBFB",
"dX c #FDFDFD",
"fX c #FFFFFD",
"gX c #FEFEFE",
"hX c white",
"jX c #FEFFFF",
"kX c #FEFEFE",
"lX c #FEFEFE",
"zX c #FAF5F4",
"xX c #EDEFF0",
"cX c #E0DEE1",
/* pixels */
"hXhXhXhXhXhXhXhXhXhXkXkXhXhXhXhXhXhXhXhXhXhXhXhXhXhXhXhXhXhXhXhXhXhXhXhXhXhXhXhXhXhXhXhXhXhXhXhXsXhXhXhXhXsXhXkXhXhXhXhXhXhXhXhX",
"hXhXhXhXhXhXhXhXhXhXkXkXsXsXsXhXhXhXhXhXhXhXhXhXhXhXhXhXhXhXsXsXsXkXhXhXhXhXhXhXhXhXhXhXhXhXhXhXhXeX+X#XaXhXhXhXhXhXhXhXhXhXhXhX",
"hXhXhXhXhXhXhXhXhXhXsXkXkXhXhXkXsXhXhXhXhXkXhXhXkXhXhXhXkXhXhXhXhXhXkXhXhXkXhXhXhXhXhXhXhXhXhXhX}.> . . 4 4XkXkXhXhXhXhXhXhXhXhX",
"hXhXhXhXhXhXhXhXsXhXhX7X].-.#XhXhXkXhXhXhXhXhXhXhXhXhXkXhXhX&X-.}.aXkXkXhXhXhXhXhXhXhXhXhXsXhX}.  = = = X o 8XkXkXhXhXhXhXhXhXhX",
"hXhXhXhXhXhXhXhXhXhX-.o O . O W eXhXkXhXhXhXhXhXhXhXkXhX8XL O . O : %XhXkXhXhXhXkXhXhXhXhXhXhXE X > * = : . }.kXsXhXhXhXhXhXhXhX",
"hXhXhXhXhXhXhXhXhX@.  > > > - . 4 xXhXhXsXhXhXhXhXhXhXsX4 . : ; : X o 8XhXkXhXhXhXhXhXhXhXhXxXB . X X o X . @.hXkXhXhXhXhXhXhXhX",
"hXhXhXhXhXhXhXhXeX= = = = = $ > X &XhXsXhXhXhXhXhXsXhX%XX ; = = = - . ].hXsXhXhXhXhXhXhXsXhX8X< + = $ = X # U sXhXkXhXhXhXhXhXhX",
"hXhXhXhXhXhXsXhX#XX = > = = = = X -.hXsXhXhXhXhXhXsXhX}.o = = + = = X #.hXkXhXhXhXhXkXhXhXhX].: : * = = # 5 p <XhXsXhXhXhXhXhXhX",
"hXhXkXhXkXhXsXhX].* X X X X X X > W sXhXhXhXhXhXhXhXhX#.X X X X X o > s pXhXhXhXhXsXhXhXhX~.q 4 2 & > = + 2 a y @XhXsXhXhXhXhXsX",
"hXhXhXhXhXhXkXhX#.- X X = 6 X X 5 4 tXhXhXhXsXhXhXsXaXL : X = > = X 5 ; 4XhXhXhXhXhXhXhXL.:.y.- 3 X = = > 3 l d.e -XhXsXhXkXhXhX",
"hXhXhXkXkXsXhX6X2 5 = = = = = X 2 $ XXhXhXhXsXhXhXhXaX3 : = * = $ X 2 = 4XsXhXhXhXsXhX,X:.k.d.u 4 = = X < s m k.s.c rXhXsXhXhXhX",
"hXhXkXhXkXhX6Xx , 2 = X > = X = 2 - w oXsXhXhXhXsXhXzXf : = X + o # 2 $ 9XhXsXsXhXhXhXA.a.f.g.b < 5 X X 2 p t.d.k.1..XkXsXhXhXhX",
"kXhXhXkXhXaXi.e.a : - o X X X > : , d.t 7XhXdXhXhXhXzXp.- > . o . - ; p 9XsXhXhXkXhXqXc g.s.d.d.u 1 X * s z d.f.g.w.v.hXhXhXhXhX",
"hXhXhXsXhX;X5.C.9.= : o . . o : = l z.3.!.hXsXhXhXhXpXn., ; X o X ; : 5.9XsXsXhXdXhX>Xt g.d.f.g.0., * - h h.s.f.g.t.2.qXhXsXhXhX",
"hXhXhXhXhXA.w.g.s.0 = # o . + ; $ w.d.s.n yXhXhXhXhXuXC.N * X . X X M e.3XhXsXhXsXhX_.t f.f.d.f.d.z 0 h t.d.f.s.g.0.t 1XhXsXhXhX",
"hXhXsXhXiXA a.d.k.F $ = o X & & l d.f.k.r <XhXsXsXhXiXj.z.a X X o , d.0.3XhXkXhXhXhXD.2.f.f.g.a.v x x v c c s.d.k.0.:.oXhXsXhXhX",
"hXhXsXhX5Xx a.f.d.a.i o o X o , a.d.d.f.r  XhXsXhXsXiXk.d.d...& { y.d.0.1XhXsXhXhXaXm.2.s.d.d.4.v 8.A.v.e v d.d.d.8.2.~.gXgXgXgX",
"hXhXsXhX-Xt y.d.f.g.3.Z ; ; f t d.s.f.s.x !.hXhXsXhXwXg.s.t.K.q K.4.5.6.1XhXdXdXhXqXf.5.t.d.t.x a.d.n.d.t.<.4.d.g.8.3.D.gXgXhXhX",
"hXhXsXhX_.<.t.k.d.g.:.A.f s A.e a.g.f.a.x m.aXhXsXhXqXa.0.v !.x K.x 4.0.:XsXdXdXhX5Xw.0.t.g.5.4.d.g.8.3.a.g.v t.g.n a.n.uXgXgXhX",
"hXhXhXhXD.5.t.d.f.a.e K.y.r.A.e t.g.g.t.4.g.rXhXdXhXqX8.x y./.3.!.y.x :.2XhXsXgXhX:X6.t.t.s.0.g.f.n m z n d.s.<.d.4.a.s.qXgXgXhX",
"hXhXhXzXm.t.9.k.a.x 2./.n.m.!.<.x a.g.0.9.w.6XhXdXhX9X2.<.n./.3.K.C.d.e -XhXsXhXhX*X3.y.t.t.a.g.N ! Q ` T A d.4.8.4.d.5.6XhXgXhX",
"hXhXhXrXf.a.9.g.t.4.a.~.f.y.!.d.5.c k.0.y.w.,XhXzXgX5X<.s.m.K.e A.i.h.<.).hXdXsXhX_.3.a.5.4.a.a.` ` Y ! ' Q h.a.2.4.f.3.1XgXgXhX",
"hXsXhX7X0.s.9.d.5.f.h.!.N N K.5.k.2.a.9.t.0.-XhXsXgX>X1.g.v.-.d E.[ 8.w.~.sXsXhXsX!.0.a.4.a.g.S O.` I Y O.' p.z.v x f.3.-XgXsXgX",
"hXsXhX1Xq.s.9.a.t.g.r.R.` ~ `.M g.t.4.r.y.q._.hXsXhXoX3.y.G.U.H U.=.Q 7./.hXsXhXhXD.0.0.4.y.a.( O.P O.` O.O.Q h.z v a.6. XgXdXhX",
"hXsXhX;X3.a.t.4.t.d./ [.! ' [.R r.g.2.v y.3./.hXsXhX Xw.D U.U.H U.R.! 9.D.hXhXhXaXm.w.0.c s.r. .%.P $.} O.&.! t.c v a.6.~.hXhXhX",
"hXsXhX.X3.y.r.8.g.t.{ {.Y ! {.+.Z d.t.z y.0.D.hXhXsX).q./ `.;.H ;.R.] Z n.aXhXhXiXf.s.q.4.s./ $.&.` P ] *.&.' r.5.c t.w.D.hXsXhX",
"hXhXhX_.0.t.9.9.d.D =.{.! T [.%.! y.2.z 9.h.m.aXhXhXD.3.[ `.=.d ;.R.$.^ a.rXhXhXqXa.s.5.4.0.| &.%. .T [ O.&.$.^ 5.4.0.s.m.sXsXhX",
"hXsXsX!.w.t.c 0.a.] ;.[.Y I {.H.' S 5.z r.s.j.iXhXaXj.S o.[.E.d E.[.$.] b 6XhXhX5Xw.k.4.2.S $.%.P ] ! s s %.&.! 4.c 5.s.n.aXhXhX",
"hXsXsXD.w.9.n s.p. .H.{.I ! XX%.O.^ a.v 4.f.h.qXhX7X2.| %.R.E.P *.U.$.$.l -XhXhX1X0.f.4.t / H.' s T Y T P ' *.{ k 2.0.d.f.iXhXhX",
"hXhXaXm.d.9.m w./ $.H.}.T ` }.*.%.` t.v 4.f.w.5XhX-Xe &.{ { ;.H $.}  .*.f L.hXhX2X3.k.5.t ~ *.Y H Y ! Y s Y *.$.f <.0.g.a.qXsXsX",
"hXhXiXk.d.t.m 9.| H.` {.' P -.{ G.+.N v F k.0.1XhX-Xl ;.! #.*.H -.$.Y H.Q J.hXhX*Xw.g.5.z [ *.Y C U Y ` s T &.=.Q x t.g.w.9XhXhX",
"sXhXqXs.d.y.c b %.O.I `.T I ].I &.O.H x r.g.6.;XhXoXM U.I $.;.P *.} U Q.` H.hXhX Xw.k.3.b O.&.Y s s ;.{ g ! %.&.Q t a.k.q.1XhXsX",
"hXhX0Xw.d.y.x Z *.' U [.Y Y (.Y  .*.U j 9.d.e.*XhXoXQ U.U =.$.P $.R ` H.' U.hXhX~.7.k.0.n O.&.' g I [ T g [ %.&.^ x t.k.q.2XhXkX",
"dXhX1Xw.k.y.z ^ *.` R ].Y U ].P  .H.) m 0.k.6. XhXOX! H.' P ' Y } P ] *.] U.hXkX!.a.k.3.n O.*.' Y Y Y Y I { &.&.~ z w.k.w.-XhXsX",
"dXhX,Xw.k.t.z ( H.` R ].U Y E.`  .*.[ j 9.k.6.~.hX+X! H.] R ' Y ' R { *.' R.hXkXD.a.g.5.b  .&.O.P U Q T ' %.%.&.( c 0.k.6..XhXsX",
"dXhX-X6.k.t.m _ &.{ P -.Y T -.'  .H.[ k 9.g.w.!.hX@X` *.$.Y Y ! P ' &.&.' R.kXsXS.a.g.q.v O.&.O.' _ G. .! $.%.&.( c a.k.w._.hXgX",
"sXhX=X6.k.t.c ] *. .' $.Y Y $.' %.&.[ b r.g.w.D.hX@X! H.%.' / G.[ ` %.*.~ R.hXaXm.s.d.3.b { &.X...J.*.H.[ ] &.=.~ c a.g.w./.hXhX",
"dXsX_.6.k.a.b _ &.$.` } ^ U { =.&.&.{ b 5.g.s.m.hX@XI H.$.| J.Y.H.] { H.! R.hXiXj.s.g.5.b { &. .Z.U.H.H.&. .&.%.( v 0.k.w.!.hXhX",
"sXhX_.w.k.t.x ] &.%.} ^ G.G.Y { %.%.[ b 0.f.s.n.hX@XH H. .Z.I.H.P.&. .*.! R.hXwXf.s.s.5.b  .%...Y.&.) U.Y.| $.%.( v w.g.h.D.hXhX",
"sXhX/.w.d.t.b ( %.%...G.Y.H.$.) %.&. .b 4.g.f.g.dX$Xf &...I.;.V H.I.| *.Y W.hXqXh.d.f.3.b [ $.B.E.H.Y.(.U.B.[ &.( c 0.g.a.m.dXhX",
"sXhXD.w.k.t.b ( &.O...I.P.P.U.[ $.*.| A F s.s.a.zX$Xd O.B.R.U.%.U.T... .Q W.hX6Xa.j.d.3.D { ..K.R.P.H.H.Y.J.b.%.( S 0.g.s.m.zXhX",
"sXhXD.w.d.t.z ~ &...Z.R.Q ] W.X.[ &.[ M 9.s.s.s.uX<XI ..K.Y.P.T.U.Y.K.V.I W.hX6Xw.d.s.2.B.] b.W.U.H.H.Y.T.I.M. ...v.2.g.s.n.aXhX",
"hXsXm.s.j.q.A ] &...I.T.X.%.Y.J._ &.[ D 4.d.j.0.wX<XI ^ K.U.I.U.U.E.J.b.P [.hX3X0.k.f.3.L.! b.W.Y.U.P.E.Y.U.V.~ X.A.2.k.s.f.uXhX",
"hXzXn.a.g.9.c... .N.W.P.U.U.Y.Y.V...| b.n d.d.0.qX<XT / ..^ ^ ~ ^ ^ ^ b.f {.hX,X3.k.a.0.|.Q c.W.Y.Y.H.Y.T.U.V.r.$.!.2.k.d.f.rXhX",
"hXuXk.s.k.4.A. .^ A.R.U.U.I.I.T.V./ [ K.4.d.g.3.0X>XP / c.i.u.u.i.i.u.S U {.hX:Xw.g.s.9.XXM b.R.U.I.H.T.Y.T.N.r. .|.2.g.f.s.qXhX",
"hXiXj.s.g.2.L.X.D K.T.P.Y.U.Y.T.A.f.' (.r.s.k.3.5X$Xs N u.i.u.u.x.x.u.M ! (.hX-X3.k.w.v.OXp N.R.Y.Y.H.Y.Y.U.N.r.( oX2.g.s.a.qXhX",
"hXrXs.f.d.c |. .A I.T.Y.Y.Y.Y.E.J.a.^ |.p.f.k.3.3X$X, A u.u.c.u.u.u.u.N ! R.hX-Xq.g.0.m.+Xq Z.E.Y.P.[.R.U.U.B.y.^ >X4.s.g.a.0XhX",
"hXqXa.d.k.4.oX( S W.Y.Y.Y.Y.Y.E.J.y.Q oXx.a.k.3.1X#X, A u.u.c.u.u.u.c.A d U.sX*Xw.k.3.D.&Xq A.U.Y.P.R.R.Y.;.b.r.V <Xy.s.d.7.7XhX",
"hX0Xw.g.s.9.@XZ S W.I.T.Y.I.T.U.J.n.M OXV.6.k.3.,X$X, N u.x.x.u.u.u.r.p.u ;.hX.X6.n.1.).$Xj b.U.Y.Y.H.Y.T.O...N M 6Xv.h.g.0.5XhX",
"hX7Xw.g.f.t.4Xf u.Y.Y.Y.Y.Y.Y.E.G.g.f @XA.5.g.3.2X#X% t.u.x.u.u.v.u.S p.p =.hX.Xw.k.:. X%Xw c.H.Y.I.I.Y.O.[ b.l a 8XS.8.g.6.3XhX",
"hX5X0.k.a.i.7Xf i.I.U.T.Y.Y.Y.P.O.f.i @X~.3.g.3.2X@X0 t.S x.u.u.u.r.u.p.p $.hX_.6.k.:.;X%Xw S O.Y.U.J.T.| O.c.a l cX!.3.k.0.1XhX",
"hX5X6.k.w.V.8XM y.H.Y.Y.Y.Y.Y.O...D i $X.X2.n.3.-X@X8 p.p.u.i.v.u.S u.i.q =.sX).q.k.:.1X<Xq D | O.W.Y.R.` O.c.u N cX~.3.k.3.,XhX",
"hX1Xq.k.0.K.cXk 4.%.T.I.Y.T.H.[ ..M h &X-X<.k.q.*X;X8 5.y.S i.v.S p.p.y.q Z.hX/.3.k.<.7X1Xw z ..Q R.'.| ] G.8.p c iXoX:.k.2.:XhX",
"hX1X3.n.2.).eXk b | H.T.P.T.O.] B.f w $X3Xt k.1..X>X8 N t.S S S S u.p.9.7 K.hX/.2.d.2.uX1X9 e x.' H ] ! O.v.1.7 x uX:X:.j.:.2XsX",
"hX,X2.k.2.oXuXm a _ } E.W.'.| O.b.p i ,X7Xc k.2..X>X7 z 4.p.A A r.t.t.b q K.hX^.:.a.t.kX,Xe w 1.c.Q &.G.c.7.e e c iX6Xx f.r ,XhX",
"hX>X<.f.<.;XuXz w v.` O.|.H.! %.y.w q :XrXc d.<.|.:X7 j j t.t.5.9.t.n j w K.hXoXe 3.v.hX;Xr c r 7.6.5.7.7.>.x 1.<.rXrX2.5.y 7XhX",
"hX>Xt f.c 3XuXh 9 5.| H ` I O._ 7.w 9 >XaXp.f.t _.>X7 j j h m 4.9.m j l q K.sX+Xu w ).kX7Xl 2.:.1.l.h.e.:.t 2.t Z pXhXv.w 4 8XhX",
"hX6Xz p.c wXrXz w r 8._ H ~ c.1.:.w r -XhXx.4.e @X>Xw z z j j j w j j b w !.hX}.4 : +XkXcXJ f k x >.1.t x m k s W aXhX@.1 J 7XhX",
"hX8Xu z u.sXxXA 3.e 1.1.1.1.1.1.<.5.j 3XhX^.y 0 &X4X+ p p i i h i i i a @ ].hX}.: 3 +XhXcXK B J s s C d s 3 J G L xXsX-.4 : 4XhX",
"kX7X* + o.hXaX< 0 v 1.7.7.l.7.,.c p + eXhXXX+ O +X3X# < = * = = = = * < * ].hXeX@.: %XhXcX4 J B J J #.3 J J C 2 L pXhX].< }.kXhX",
"kX4X. & @.hXkXXX* O % u a p u % . o ].kXhX+X& . ].%Xo ; 2 2 2 5 2 2 2 5 X ].hXkXhX8XaXhXxXE 1 3 B K E G J 4 2 J #XhXkXyXeXhXhXsX",
"kXxXW   @.hXsXhXcX-.; O O O . = #.8XhXkXhX+X  2 4XkX#X#.2 = * = = - 2 E +XaXhXkXkXhXhXhXhXsX&XE 4 4 E : 2 L }.xXhXkXkXhXhXhXhXhX",
"hXhXhX#X4XhXkXkXkXkXxX4X%X%X4XyXhXhXsXkXhXeX+XxXkXkXkXkXeX4X&X+X+X4XyXhXhXhXsXhXhXkXkXhXhXhXkXhXcX#X+X&X7XsXhXhXkXhXhXkXgXhXhXhX",
"hXhXhXhXkXhXhXkXkXsXhXhXhXhXhXhXsXhXhXhXhXhXhXhXkXkXsXkXhXhXhXhXhXhXhXsXsXhXhXhXhXhXhXhXhXhXkXhXhXhXkXkXhXhXsXkXhXhXhXkXhXhXhXhX"
};
