/* XPM */
static char *_28e32d7d9724ce38467458391f75decMwUNvT6RHnHbhLZl[] = {
/* columns rows colors chars-per-pixel */
"64 64 62 1 ",
"  c #370B0C",
". c #3D0B0C",
"X c #3D130F",
"o c #2E1416",
"O c #341615",
"+ c #3C1615",
"@ c #351916",
"# c #3C1816",
"$ c #351719",
"% c #3C1718",
"& c #371919",
"* c #3C1919",
"= c #480E0D",
"- c #421614",
"; c #4C1614",
": c #441916",
"> c #4B1A16",
", c #411718",
"< c #441B1A",
"1 c #4B1D1B",
"2 c #511714",
"3 c #541916",
"4 c #591C16",
"5 c #521E1C",
"6 c #5A1E1B",
"7 c #621E1D",
"8 c #4D211E",
"9 c #54211E",
"0 c #5C211D",
"q c #62241E",
"w c #67281F",
"e c #68281F",
"r c #471D21",
"t c #4C1E20",
"y c #531F21",
"u c #5C1F20",
"i c #4E2121",
"p c #542221",
"a c #5C2422",
"s c #5E2925",
"d c #5C2528",
"f c #642622",
"g c #692723",
"h c #652925",
"j c #6C2A25",
"k c #632729",
"l c #642A29",
"z c #6D2C29",
"x c #712C26",
"c c #732E2A",
"v c #792F2C",
"b c #6E312B",
"n c #713027",
"m c #75312C",
"M c #79322D",
"N c #732F30",
"B c #6E3130",
"V c #763331",
"C c #7B3532",
"Z c #7D3833",
"A c #803637",
"S c #823935",
/* pixels */
"cmmmMmmccxha#aVNcpavmmcMMcx59ffjgcxcMxjqfq<sfjjjxf1jjxxxxxx5&*sj",
"czvMcvccvjf,1CcvvapMmvMMcjftOaffhjxxcxgggg19gjgf6%9jjjxjxxz<O<jz",
"xccmMvccjj5ivmmmmz9xjzvxjjf#%<0gjjxjxjgjja<,fja1,+sfgjjjej9%$ykh",
"gjxxxxjggatcMmVmmj9gjjjjjg1cVh81ggjjjhj05:#&,<,1119jjgejw0O&<1gk",
"ggjjjgxgh1hmvMvcjj89qgjjg9cMvcc81afffgg5#115i<*-5>1fs091t<tt<1uf",
"ghjjjgjf<5jxxxxxjw1%18558jMccccxp%-<1-<%pzmMCmlp,#&<%<pkcCZZl11f",
"fggjggs<Oaexexjggg8>:-#+ammvmcxgf1#+O%azCCMmcmmjf<-<kVZASCCVZj&1",
"<90008>115jjjgxjjg11-,+axjcmcjggf>>,5jcmMMMmczjfhp<mZCZVZZVVVVa@",
"<<1p1*111#sggefgj9<11:5xjjjxjjfa<%80gjjccMvjjeggl9pCMVZCZZZCVMz<",
"mVmzmvzhfr,p9s06<<>>1#sqfjjjfa5y<1fffjgxcxxxxggeh0immCCZZCVMZmz*",
"czcVVmcczz<@&t9pp99ssp<9fqay1azvz1afggjxjxxxjjgqff8zmMmMCCCMmml*",
"zzcmvmcxjzipmvCSSCMZCCh8<<1hcmzCk<51afhxjxxcxggff0<znbmmmmMmcci8",
"zccmmcccck<VCVVZCZCMmzch-pcmCMCMhy%&185pqqs9hjgf01@aczmmmmmnml&9",
"cVmMMccbzutmvVVCVMVzhzxz5acVMMcxff&hjjhsaapai511<<r<hmnmmmmmc1Of",
"ccccvmxjj<avmmCCmmbnzjmh$acjMMnjgq<jzNMCMMCMcs%<198p1pnmmmmlp*&l",
"xccvcxgja&aczcmmMnmMMmh<>5hfjxjgg010hcvmMCMmcvk#<>>95#pslsaslbp0",
"ggcxxxjf,,<zxcbmzmjbmj80g10jjgjgs,-fggjcMMmmcjs%#-<115plppjcVCzy",
"jgnjjxf>67%tcxmzmjzbma1qga1a0ff9,y<1gjxjxxxjjf11>+O#jzmzkacxmmma",
"gjgjjf10fu4,yhzvmmbja10fqq:&,1%O0js-89fjxxjga<-:18ap5fhfapxcMMv0",
"wggfp1fqqa3+*tazjs98<+440>,szdl<5jq-@#<<11f9+++scMAMsyaqa5gxxmcj",
"fff<,qfff4;+p<#&psbmVp,-+9czmCvl80>9fghh0<&&;:avzmMcMf<81,gxjxjj",
"11%%60qf062-11%aVVmCCZi#kmmNvNzza-,6fgjjjja,11jxjmMMnmg<#11fgxxg",
"%<o;640666;:1O8MVCMVVmpamzccNvjzg&140qfhffq5+sggjxcvmccg1jf8fjgf",
"cMa+266643--1s1jMMMMmmsajccxxzfgf$660qqqf034:fjggxcxcxjg9fzg5159",
"vmCtX22;;+O1vChammmmbcf0jjgjxxjj:O%-5qsq0063&azjghjjxxjja5jzl8:<",
"jzCa++X+#OpvMmCllmmnmjpsjhznxxj5<ssp1113061-;<1115apfagzf5wgjg88",
"MvMa9g1#1<ccvMMMlbmmmm19gggxjxspCCCSCbfi%,-;2; 1hmccjaps98qq0q:s",
"Mcca5jj><9gjccMMmpjbzf&50wfgjg<lcmCVZSZCj,=46>aMMCCvNchy-<00q41x",
"xjz<1qq5OagjxzvvMg*99>O5qqfgfp@8zmmMVMbmVh.;0zMMccMczjj518*>4>ax",
"xf1951q;O5jgjjxvjx9:q0+<f9sa5#ah9lMMCmnzmh+accxxcxxjjg5%<<#<+-jj",
"qpffa1+yl11gjjjxjfw90489<,*<#,mmbpazmmmbcp9cjhxxcxjej9O9zbj<-<hg",
"9fgfq0%cMm9<gjjxjwgg:8mmzzf8,9bzbMlfss9ap<fhgjxxjf09p*<zmVCz8<af",
"jxjgf99cMcv91ahqf6aa,zMcMmmj%amcmmMMccs3@1ffgffp1hVVCkpmVmzMa@&1",
"jjjgg9hxcvxxa<<1111<axxvxgxj<phzcmMcxczj8-11>1i1<VCZZSszmmMMm,<f",
"xcjjg0fmxxxjg15ffhf3sjjgxxj0@1ggjjnvjfgf<#,,plcm9fCZZZbhmmMmma9g",
"exjgf1qgjxjhu>qfkf75fjgjjxf,1-0qegxjxgj9-8<axjcchpmVMVVscvMcmj8j",
"ggjq9<f0gju5%:5qq6;#tfgfqg<aj51jgxhgjf51pitagxccc9cmcmm0jvMMcc<a",
"jwq1%<ffg31au-;;-###$<:1<-9jgq:0hf0a0<iffa9ffexxxspjmjp%qvcvcx8O",
"01:56;<<,-ff6$$pdzzVBzsaa1qgf0,#<5upu:ajhfufgjxjjxs98ph99cjxcx01",
"<O5qf,8a5%jj6rBZZAVVZCVBm94sg8,11fffq1azjf1qgxxxcmMfimVM9qxgjz1<",
"V8-00>0fh1365zVCCVVVZVVbzi6q1ry,20qq0<ggjq,-9exjjjxajMcMj9jggq#h",
"VVp:8>qfhf<3pVNVZZZZCmzlj53:ijzp-19;%*0fh9<018ejgfg8zvMcx9sgg5pC",
"VVCpO>qffh5#kvVVVZZVmzzjz5OavVjNa%-#a1151+<fq9ajwg5<mMxxcg9qa<bZ",
"CMmm*50fjq3,czcVVmMmmmzzj,pmzzcjf11hMh+<9f10g9,581%9mjxxxj1#%*cV",
"CVVMa16q6a;%fzzjmjzcjklm99cmcjvja,jmzz,ajja56;psjl1ajxxjjf1hz<hC",
"CCCch,40671$<pazzcmcmjfs1jjzMccjaaMCzmy6hjf:1zNvcCh5aff0a1bCCspM",
"MmVzs&;;42#tk658ahhzha5<<jqjxcxqpMMMmj16q001fbVVVmMf99py<jMcMmpz",
"mjjjp<p:,O<jjh6Oo#1<<9fg6fqexjj9hMMMmc15qqq3hcNmMmMmxxghacMMMMha",
"ljjf8BBl8@qwqq;9s%<-1gbjf5fggjf9xMMMc9%,531-fzcmmMMcxjffsxMxcxf*",
"sfa*sbblp800098mck:<fgjf0<1gggpacxjjx8>6u6;<fgjcccxxxjgq5jxxjx8:",
"@<%<bbbbl8000<zmzma,qqfq8:-801#sxjjxj83ggff<5511exxxjxh1#ajjx91l",
"8#-sbmmhb800<lVzvNz1400;<9p<:059jgjeg160ff6<pahkujxexf11><5fs<0m",
"j6&sznbhz531sMmVjzz5;1,,sfkk,0g>fggjq-50fq;ucvzmf5gjf1pmbml8O>qq",
"008sllwzl,Xpccjvmcjf@1,<ahzjk13:1gjf11;7641zccNxj5aatzVCCCCms#6q",
"1;-pwhhs9*pcjcMccxj9acz16hczza<+<,1%pp#;;>fcxcmmcf$<VVVVCCVVVz<1",
"908,8p98##pzcxmjgjhpcNCh<gxxzlpibBzshbb9+axcxcmxzj$sccmmCVVMmCaO",
"exjga<%:><9jghejgg0fmmcm10ggh01lCCZZCMMmpajxxvmjgs%accMmmVmMbbh,",
"jxxjcg119h9q0gjggg5lmmcMa1fkf0<kmCVZVZbnaaggjxxjj91accnmbnmmcc9a",
"gecxgqa+0j1sfgjgga9jcmmcc<1655,smmMCZmjb1fgjxjxj919<azmcmnbmzz9f",
"xxjq111<0g8-6ffff5ajjxncmpO-%+#8ccmVmmjp@swgegq18slh*acznbjmgf#f",
"51<%1hz50q9#<1600<pjjjjjc0,a951:ammMnbs:-aggf19jcczma&iphjjlf<$1",
"151<:95:5q5:11,,,@8qggjgjf3gljj0-9sp98<1%<891hccczxzfpk1&*<8*#>-",
"zNVjla9,+;->fzz9@-+1qjhffa56gf05#<aklhf1;1&1hjcmmmccazCzs<o%t#1-",
"kjzBzbzzl0<,0gjf:->%10a606160q31lmvCmvm915<0fgxcxjjgfmczvz%aza*i"
};
