/* XPM */
static char *_38e5612259b44afafef75a4447da71e0YhOMVaE5HPnfMLz[] = {
/* columns rows colors chars-per-pixel */
"64 64 215 2 ",
"   c #030302",
".  c #0A0401",
"X  c #060807",
"o  c #0B0B05",
"O  c #070908",
"+  c #0B0D0B",
"@  c #060608",
"#  c #110B05",
"$  c #130D0A",
"%  c #1A0E0B",
"&  c #140606",
"*  c #0E110E",
"=  c #08100B",
"-  c #13120D",
";  c #1A130C",
":  c #1C1B0E",
">  c #131609",
",  c #0D0E10",
"<  c #0E1211",
"1  c #0E1915",
"2  c #131513",
"3  c #1A1612",
"4  c #151915",
"5  c #1A1A15",
"6  c #161B19",
"7  c #1A1D1B",
"8  c #181719",
"9  c #190E12",
"0  c #21130F",
"q  c #231412",
"w  c #221C15",
"e  c #221E1A",
"r  c #291A18",
"t  c #331E1D",
"y  c #16211C",
"u  c #1C211D",
"i  c #1D2015",
"p  c #232215",
"a  c #22231D",
"s  c #2B241E",
"d  c #2D2A1D",
"f  c #272719",
"g  c #31251F",
"h  c #1E1F21",
"j  c #172421",
"k  c #1D2321",
"l  c #1E2925",
"z  c #1F2B29",
"x  c #222522",
"c  c #2C2622",
"v  c #242925",
"b  c #2A2A25",
"n  c #252C2A",
"m  c #2B2D2A",
"M  c #292728",
"N  c #332421",
"B  c #342C24",
"V  c #332D29",
"C  c #3A2C29",
"Z  c #2E3023",
"A  c #26312C",
"S  c #2C322D",
"D  c #343226",
"F  c #32332D",
"G  c #3A342C",
"H  c #36392D",
"J  c #3A3A2E",
"K  c #302E31",
"L  c #2D3431",
"P  c #2F3835",
"I  c #333533",
"U  c #3C3631",
"Y  c #343A34",
"T  c #3B3B34",
"R  c #353C39",
"E  c #3B3D3B",
"W  c #433C34",
"Q  c #423E39",
"!  c #443B2C",
"~  c #3F402E",
"^  c #3E4133",
"/  c #3C423D",
"(  c #324237",
")  c #424236",
"_  c #43443C",
"`  c #4A453A",
"'  c #4A4B3D",
"]  c #47463A",
"[  c #514B3E",
"{  c #4F503E",
"}  c #3D4340",
"|  c #3C4B44",
" . c #444642",
".. c #464A42",
"X. c #4B4C43",
"o. c #454B49",
"O. c #4D4D4A",
"+. c #4A4742",
"@. c #534D42",
"#. c #534F4A",
"$. c #4C5144",
"%. c #46514A",
"&. c #4B524A",
"*. c #535345",
"=. c #54544B",
"-. c #595649",
";. c #57594B",
":. c #5B5B4C",
">. c #5B5947",
",. c #4C5652",
"<. c #555652",
"1. c #5C5C54",
"2. c #575C57",
"3. c #605E4E",
"4. c #635E54",
"5. c #655D5A",
"6. c #5E604F",
"7. c #5F6153",
"8. c #586157",
"9. c #636454",
"0. c #6A6A56",
"q. c #64645C",
"w. c #6A6559",
"e. c #6B6B5C",
"r. c #676A5F",
"t. c #726F5E",
"y. c #6F705D",
"u. c #72715F",
"i. c #6D6B63",
"p. c #676D61",
"a. c #716C65",
"s. c #6B7266",
"d. c #737363",
"f. c #7A7A67",
"g. c #75756C",
"h. c #7C7C6B",
"j. c #797669",
"k. c #7B7B72",
"l. c #757470",
"z. c #817D6C",
"x. c #847D72",
"c. c #7F806E",
"v. c #82816F",
"b. c #848473",
"n. c #8A8774",
"m. c #8D8B77",
"M. c #85857A",
"N. c #8B8C7B",
"B. c #878878",
"V. c #918D7B",
"C. c #93917E",
"Z. c #8D8B84",
"A. c #928F80",
"S. c #8F9082",
"D. c #939384",
"F. c #999783",
"G. c #9C9B86",
"H. c #97998A",
"J. c #9C9C8C",
"K. c #979789",
"L. c #9D9D92",
"P. c #9D9E98",
"I. c #A29C93",
"U. c #A19E8D",
"Y. c #9FA091",
"T. c #A4A18C",
"R. c #A8A68F",
"E. c #A3A493",
"W. c #A7A895",
"Q. c #A9AA97",
"!. c #A4A49A",
"~. c #ABAA9C",
"^. c #A8A696",
"/. c #B0AD9D",
"(. c #B4B39E",
"). c #ADADA2",
"_. c #B2AFA3",
"`. c #AFB0A3",
"'. c #AEB1AA",
"]. c #B2B3A4",
"[. c #BAB4A3",
"{. c #B7B8A6",
"}. c #B4B5AB",
"|. c #BABAAC",
" X c #BDB9A6",
".X c #BCBDB2",
"XX c #B9BAB4",
"oX c #C2BDAC",
"OX c #C2BEB2",
"+X c #BFC0AE",
"@X c #BFC1B9",
"#X c #C3C2B5",
"$X c #C4C5BB",
"%X c #C7C9BD",
"&X c #CBCCBC",
"*X c #CBC6B3",
"=X c #D6D1BE",
"-X c #CACCC2",
";X c #C5C6C0",
":X c #D2CDC2",
">X c #CED0C4",
",X c #D3D3C4",
"<X c #DADBCC",
"1X c #D8D7C9",
"2X c #DADBD5",
"3X c #E1DECE",
"4X c #E2DBD1",
"5X c #DFE2D3",
"6X c #E5E2D5",
"7X c #EBEADD",
"8X c #E8E6DA",
"9X c #F0EBDB",
"0X c #F9F3E4",
"qX c #FBF7E9",
"wX c #EDEEE8",
/* pixels */
"+ + X @                   @ + = 2 , 1 h S   3 c S D F J ) @.-.:.:.>.{ $.' / / i 5 i   b y     < + O , 2 2 2 < 2 2 , + X X O , , ",
"+ + X @             @     + * 2 2 < 2 j S   5 c F J ^ ' *.-.1.3.>.6.6.6...' ' Y 2 4   y a o @ , + + , 2 2 2 2 2 2 , + X X X + + ",
"+ X X           @ @ X X + + 2 6 2 , 2 l A + 5 c F ^ ..*.>.-.3.9.9.6.6.;.X.] E m d i o 4 b O O X + + < 2 2 8 6 6 2 < + X @ @ O + ",
"O X X @         @ X X + O + < 2 1 < 4 A v > a b J ^ X.=.>.3.9.0.c.6.9.9.1.1. .G S 5 *   x + + @ , 2 < < 8 7 h 7 2 * + X @ @ X X ",
"O X             O O + X O X + + 2 , 6 P i * x c J _ { ;.6.0.h.m.m.z.N.h.e.a.1.#.S : +   7 , , + 2 2 2 2 7 k x 8 2 * O X     X X ",
"X X X X         O X O X X @ O O < 6 k } y + c c H ^ ' >.0.c.C.T.D.F._.h.X.X.Q  .T x i   2 8 X + 2 8 8 2 8 x h 2 < = O @     X X ",
"@               @ @ X X @   X O 2 7 n %.4 * b V Z ~ $.9.c.C.G.R.U.E./.:.3 c 3 q T S b 5 2 u   2 2 6 h 8 7 x 7 + + + X       X X ",
"X @                 @ X   @ X O 2 k S ,.- * M V ^ { 7.c.m.G.R.T.Q.U.J.W # c 3 o 7 i u 7 + b X 8 4 7 7 6 7 x 6 + + + X   @ @ X O ",
"O @                     X + , < 6 R L } 8 * M ` 9.' u.G.J.J.Y.J.R.J.j.o 2 E Q :   $ M e a 7 < 7 7 M M x 7 6 2 + + O X @ X O + X ",
"O         @         O + + < 6 7 j P n R 5 5 G W ~ p f [ z.`.~.J.t.h.:.  +.2.X.) # o h h x b 7 y h x k 6 2 8 2 , + + @ @ X X O X ",
"X @         @       + = 2 8 h x n A k I 4 s I b : : . ; @.I.d.:.{ :.T   l.5.T =.3 . 7 a 7 m v u 7 h 7 2 2 2 2 2 < + O O O + + O ",
"X X   @   X @ @   X O < 2 6 k x L k j S 5 m b ;   d 0 & g x.@.@.;.) d o k.=.V =.3   x M 4 x v i 7 8 6 2 2 8 2 < , + + + + + O X ",
"X X O O X X O + = + + 1 6 j k 7 L j 7 S 5 b 3 o H 4.[ 0 & 4.! :.;.J s   +.O. .X.9 . F T 8 8 u u 7 6 2 8 8 8 4 2 , + + + + , + O ",
"O + + + + + + + 1 1 1 6 j k k k L j u n a a . 3 e.i.a.! & @.D T ' T V   + E  .c 9 + I E x 8 6 u u 6 8 7 h 6 4 2 2 2 < + < + + O ",
"+ + < * + + , < 6 j l l j j l n n z j b c a   Q 1.D 4.W ; ` ^ T ' ) m +   7 3 2 - + c K b x 2 6 x 4 2 6 6 8 2 2 2 < , < < + + O ",
"+ + < 2 < + < < < j n n u y k A z v k b m 7 . 5.s.5 1.Q   m ^ ^ *.T a I 8 @   e 9 . 2 7 m x + 2 x 8 < 2 6 2 2 8 2 2 2 < 2 < + O ",
"2 < , 2 + < 2 , 6 6 l A j j n A z 6 v S m 5 ; _ v.0.] O > 7 T H $.] f i J F i a F   b 7   c K   8 k < 7 6 O h , < < 2 6 , O O < ",
"2 2 2 < 2 + + < 6 k n n y u z n L l A n x o   e ] J f   w b ) J ;.' A d T F 4 + ^ p   e 5 + F x O < v 4 h 6 6 1 4 4 4 6 2 = , < ",
", 2 , < + 2 2 + 6 j v l j l v k z l n x a 2   . > o o X V ) ] ) 6.' Z Z ] ^ a 5 O.^   > x + e  .+ @ L , 4 k < h h 6 6 6 1 , O < ",
"2 , * + + , + , 1 j j 6 n P A l j k L k b c . .     . > _ $.X.' y.;.F D $.1.` m 1.&.Y   $ 7 + E j 4 h 4 = h , k h 6 6 6 1 , = , ",
"< < , + + + , < < y 6 j R / A k n L L l m m $ .   3 $ f ' ;.' =.h.6.) J -.k.i.W q.1.1.7   2 + a v n   L 2 1 2 h j 6 6 6 1 , , O ",
"2 , + + + + + + 1 j y l / R j j A S L x m D > . @ h 5 D *.;.] 0.u.6.) ! w.J.M.G 1.i.=.X.8   3 * h n @ } v 6 6 h x h 6 6 1 , O , ",
", + + O X + < + 6 l y l P z 1 z z z n x F m $ .   M f ] :.6.] f.n.z.3.` e.].J.G ) =._ O.I   + - 6 v K K n h k k n h 6 6 6 2 , < ",
"2 < + O X + + < 1 l y l P 6 = P A v m n F c .     L D *.0.9.[ v.*X(.n.3.j.OX^.G a F  .F U x   2 h x ,.4 x h n n n k 6 h 6 4 < < ",
"2 , + X + + < , 6 2 n x +.6 I u l n R m b Z >   . w @.>.t.>.z.*X8X*X&X}.c.~.`.:   ^ T T E M 8   2 I I 8 u m v v n h h 6 6 6 6 4 ",
"2 + + O + , 2 2 y u x 7 S 4 L l P x L S v i O > $ 5 @.3.z.z.V.=X8X&X>X+XD.}.`.i Y   I o.K m , , + G E k y v A l x h 7 h 6 6 6 6 ",
"< + + + + 2 2 2 4 n x i 5 2 A u 6 4 A F S f o > 5 0 *.0.C.V.Q.1X<X%X|.`.Y.+X{.' i u $ 4 K I c +   e F a - x S u h h 6 6 h 6 h 6 ",
", + + + 2 2 6 2 1 I v x > y x y 2 x Y x a F 5   p w 3.z.C.C./.*X+X}.Y.D.H.|.+XB.$ ^ o   7 7 m x   X 5 4 O y S x h 6 6 6 j h h 6 ",
"< + + 2 2 8 7 6 y R k x + a v y ( Y S = - S a : d d t.V.R.T.R.R.~.).D.N.H.'.$X`.7.* f c       E 8     + + 1 v A k 6 6 6 7 h 7 6 ",
"2 < 2 2 8 6 8 8 A ( 6 5 O x A l Y u i * i Z a d D ` m.C.(.R.C.C.Y.!.D.H.Y.Y.|.{.`...5 A b o   2 c o   X + * k I n x 6 6 h k 7 2 ",
", , 2 2 6 6 6 2 S I * - - x S l < + 2 5 m T Z m [ w.U.T. XR.C.C.D.S.B.H.J.J.`.}.|.`.T f X.F a   2 5 +   X = x E I m k h h k 7 6 ",
"2 2 2 6 7 7 7 8 A v = 2 u x S y = k n 1 i .._ F :.x.Q.T. XC.v.C.c.g.s.N.S.D.`.}.`.!.Y.=.a  .U 2   7 a     < x } } P x 7 k j h 6 ",
"6 2 2 6 8 8 7 x I 5 2   4 T a X U m h h m | ' ) 6.y.`.+XQ.C.H.c.b.Y.T.D.D.Y.Y.).}.P.Z.l.K 2   M + c , * h   o I 2.L j v k h 8 6 ",
"2 8 4 8 6 8 h x a b i o x x 5 a x 6 1 6 L  .../ 6.y.Y.Q.{.H.c.f.].>X1X{.H.Y.).!.XXH.k.p. . .+   a O.M o 5 M m x 2.o.v j x 8 6 8 ",
"8 6 4 2 7 7 7 x > b 5 o T 2 5 J e 7 6 h v R ~ H ~ 0.Q.Y.(.C.s.C.&X&X&X].Y.'.+XY.}.M.8.=. .O.h   8 n 2 X + 5 M 2 R ,.z 1 h 6 x 2 ",
"4 8 4 4 8 7 k 7 u 8 + + T > a m x x j j k n H ( f 6.(.~.Y.Y.c.W.F.c.b.m.h.D.'.Y.'.q.' <.<.O.V M X . o 2 , + c x 6 ,.n 1 6 4 x 8 ",
"2 7 4 2 7 k u 8 m - 5 7 i 2 m 4 8 7 6 j l A / ;.~ 6.R.Q.G.`.T.m.f.0.c.N.r.r.L.|.H.Y m ..<.=.G 7 . + + +   7 U 6 1 ,.} j 6 2 6 8 ",
"6 8 8 2 8 x x 2 m > G b   5 a - 5 u j j l A $.r.{ y.H.Q.B.D.D.0.N.b.D.Y.c.k.Y.@X=.: 5 - 2 x T m c +       + M + X Y } z 6 6 2 6 ",
"4 7 7 2 8 x u 2 s 7 Y x   _ a 5 u k k z y A | y.{ c.c.W.C.B.N.g.H.J.E.W.H.D.J.)._ $ a +     x A I 8 X 2 o   - 2 O 1 P k 8 x 2 x ",
"8 8 6 2 8 x k 2 a x m - O g.x a 6 y l z j l %.y.7.B.6.W.+XE.J.S.Q.&X3X%X).!.Q.}.i.5 F T a         x x .     $   j X P x 6 M + h ",
"4 2 6 2 1 x n 1 P 2 i a 5 I 2 A 6 A l 1 y l ( s.6.Y.6.(. X/.'.).@X8XwX;X'.XX'.Y.K...5 o i ^ Z o o   8 I x + o   4 o.  Y 4 b 1 j ",
"6 6 8 4 1 M n 8 S 1 7 7 2 V = v 6 y y A L 1 j 8.$.D.v.#X(.[.).'.@X<X2X;XXX@X}.Y.P.H.D.^   F ..Y 2 2   $ E I + + ; ..4 x x x 7 h ",
"6 4 6 4 6 k n h S 2 8 5 2 c O j l 1 1 l A y ( ,.> 6.m.[.oX=X].@X@X-X>X;X@X@XXXY.L.!..Xk.i y x * + 8 + O e 2   . - O.I + L 7 n j ",
"7 6 6 6 2 h x h S 7 8 7 2 x + u j l j 6 i Z ( ( d 9.F.[.=X1X|.$X;X%X;X;X;X@X+X`.|.].Y.;.d u 5 - 2 2 I  .8 . 2 2 - =._ o L 7 n h ",
"h 6 1 6 1 k n x S k 4 x 2 a 1 y 1 y n l l Z A i J r.C.Q.=X&X&X<X>X-X;X-X-X@X+X@X_.%XM.5 5 I u v $   + M 3 X +   o ..E + x x x v ",
"h 2 8 6 8 h K n v u - a 2 7 * y j 1 l I Z A D A * =.H.~.1X&X<X5X1X>X>X>X-X%X@X@XOX).=.o x m + k x e + 2 M 7 . 7 . c x > 4 k k n ",
"h < 4 h 6 k K n k u $ e > 7 4 l A y z L b m T D p ;./.V.*X<X,X<X<X<X<X<X<X<X>X%X,Xa.9   a x 4 I 5 M $   - 2   2 + o 5 2 1 4 k n ",
"h < 4 6 6 k K P k k + e 8 7 y j y z R L i b c   5 d v.f v.3X1X8X5X5X5X8X7X5X5X%Xi.8   + 5 F n 2 k 8 8 o   b I . 5   7 8 6 , l n ",
"1 6 6 h 4 h n } M 2 2 b $ 7 e x 4 / A 2 S x + e = L L 2 I.6X<X6X9X9X6X9X9X0X:X5.e $ .   x h x l h 6 v <   * > $ > 2 : i k + 7 x ",
"4 6 6 6 6 6 L } M 8 + V + 2 + 7 A v x l a 5 2 5 6 z i a L.9X4X3X4X0X0X0X0X4XZ.  ; . .   M k k j h 7 j < = -   > o a 5 5 a 2 2 x ",
"6 6 6 h 6 h n } M x + I 2 2   x R 2 u S * * x 3 6 v x S 1.^.OX9X9X6X6XqX:X5.r   &   . . L x j 6 h 7 u 1 y -   9 o b : 4 a 5 2 7 ",
"6 6 6 6 8 h n E M a 5 x 7 3 - a S * 4 x + - x 2 4 v L ^ + U 5.I.|.4X3X[.w.0 @ . .   . + I v j h 7 7 y 4 x -   c D p O F c 2 ; 8 ",
"h 6 6 h 6 j n Y f 4 i - w - 7 > 2 5 2 * 1 6 y 2 6 j u %.    . % . r B B w # 3 q .   . o S x x j h 7 u 6 v 2   G j.w # :.m $ 5 3 ",
"h 6 6 6 7 7 M P i # m m f - a * . 7 -   6 f 6 6 e 7 6 ,.1   @ . % . # D B $ % 8 .   + $ I x x l k 6 j y u 4 o G J.D : i.B > 5 3 ",
"h 6 6 h 7 j M I x : T g.Z 5 5 > - 8 * O 7 u 6 u e e u %.1   ; q # 0 p g q r V 9 .   $ ; I n x j x 4 h 6 f u - a x.*.d 3.s e ; 3 ",
"h 6 6 h h 7 v P a 4 X.).I a o > a + o 5 6 6 j k 7 7 y | 4   o & e   & ` ! 8 e &   . $ 2 T n l y M < h j u x 4 > ' w.D J w B ; 5 ",
"h 4 h 7 h h h O.b o $.Z.b > ; w ; o + i x 7 6 6 i y u ,.* 4 # % $ ; y i d g 3 . . %   5 Y v u x 7 6 h k k h 6 4 ! [ @.W C C x ; ",
"6 6 7 6 k k x o.f o b =.5 . c G > O + 7 u 6 6 j l y u %.1 : # w $ : i y d N w o . ; o a H l y x k k h k k k h h g W [ ` W G V s ",
"j 8 h 7 h k k o.v 5 5 S e $ =.#.; + 2 i u 7 6 k l 6 k %.5 > $ w $ > 4 i g N w o . r > a L u i x x k 7 7 h k h k p d ! W W G V B ",
"7 6 h 6 k k k o.H i f T C s g.@.2 > 7 a k 7 7 k 2 u L %.i i ; ; % # > 5 g g 0 o % s 5 u L x k x j h 7 h k k x k w w s D U U C V ",
"7 6 h 7 k h x o.H - c / c s a.e > 2 a x k 7 6 h 2 S _ / i w q ; > # $ 5 t t 3 o 0 N ; 5 F M x e h k h x x M k j c 7 5 b U Q W W ",
"j 8 k 7 k k 7  .F > a G > 5 @.o # 2 a a 7 6 6 j m / / S 5 5 w r 0 # o : t t ; # r C ; ; S M x x k 7 h k k x h h m u 2 5 M W W U ",
"7 6 k j k h u  .F f a d > w s $ o 2 a i 6 7 x n I S v f a 5 q r r # O 5 t t 0 # r C ; - c b M M n M x x x n v x l l 7 ; e M C B ",
"7 8 x 7 x k j | b Y 5 5 3 s o e o 5 x 7 6 k m R m 4 + 7 B 5 % r r > # w N t 0 $ q C 3 - a k m K E Y P L P I P R n L n 2 3 c B t "
};
