/* XPM */
static char *_b81db94e1b9411ca39bbf738ccbf48elHCRa8Ai30iocVVQ[] = {
/* columns rows colors chars-per-pixel */
"64 64 212 2 ",
"   c #3F0300",
".  c #440200",
"X  c #4C0500",
"o  c #470A00",
"O  c #4C0B00",
"+  c #540300",
"@  c #5B0300",
"#  c #540B00",
"$  c #5C0B00",
"%  c #4D1201",
"&  c #541200",
"*  c #5C1201",
"=  c #5C1A01",
"-  c #561408",
";  c #5F160A",
":  c #5D1809",
">  c #630400",
",  c #6B0400",
"<  c #630C00",
"1  c #6C0C00",
"2  c #720500",
"3  c #790700",
"4  c #720C00",
"5  c #7A0D00",
"6  c #641301",
"7  c #6C1300",
"8  c #641B01",
"9  c #6C1A01",
"0  c #64160A",
"q  c #6C150A",
"w  c #651909",
"e  c #6B1C0B",
"r  c #731300",
"t  c #7B1400",
"y  c #741B01",
"u  c #7C1B02",
"i  c #731D0B",
"p  c #7B1D0B",
"a  c #661C13",
"s  c #6A1E10",
"d  c #741E11",
"f  c #7B1D13",
"g  c #642306",
"h  c #6D2102",
"j  c #63240B",
"k  c #6D220C",
"l  c #742204",
"z  c #7C2203",
"x  c #742806",
"c  c #7E2807",
"v  c #74230B",
"b  c #7C230A",
"n  c #7D290D",
"m  c #642214",
"M  c #692510",
"N  c #6D231A",
"B  c #662D1A",
"V  c #6A2F1F",
"C  c #6C2B15",
"Z  c #752513",
"A  c #7B2512",
"S  c #732E12",
"D  c #7C2B13",
"F  c #76261B",
"G  c #78261A",
"H  c #732C1D",
"J  c #7D2C19",
"K  c #7E3212",
"L  c #72341F",
"P  c #743725",
"I  c #810E00",
"U  c #831500",
"Y  c #8C1500",
"T  c #841C01",
"R  c #8B1C01",
"E  c #831E09",
"W  c #8B1E09",
"Q  c #951400",
"!  c #931D01",
"~  c #9B1D01",
"^  c #911E0B",
"/  c #841F11",
"(  c #A31E01",
")  c #842203",
"_  c #8C2302",
"`  c #842904",
"'  c #8C2A05",
"]  c #84240B",
"[  c #8C240A",
"{  c #842A0C",
"}  c #8C2B0C",
"|  c #932302",
" . c #9B2402",
".. c #942904",
"X. c #9B2A04",
"o. c #93240A",
"O. c #9A250A",
"+. c #932B0C",
"@. c #9B2C0C",
"#. c #85310C",
"$. c #8B310D",
"%. c #923107",
"&. c #9C3005",
"*. c #94310B",
"=. c #9C320C",
"-. c #832513",
";. c #8C2512",
":. c #852A13",
">. c #8C2C12",
",. c #802719",
"<. c #842C19",
"1. c #8C2E1A",
"2. c #942612",
"3. c #9A2612",
"4. c #932C13",
"5. c #9B2C12",
"6. c #922E19",
"7. c #9C2E1A",
"8. c #853215",
"9. c #8C3313",
"0. c #8D3B16",
"q. c #84321C",
"w. c #8E331B",
"e. c #813B19",
"r. c #8E381F",
"t. c #943314",
"y. c #993010",
"u. c #9B3214",
"i. c #9E3416",
"p. c #9C3313",
"a. c #943A14",
"s. c #9C3A15",
"d. c #93331A",
"f. c #9B341A",
"g. c #953A1C",
"h. c #9B3A1B",
"j. c #A12700",
"k. c #A02400",
"l. c #A22403",
"z. c #AA2505",
"x. c #A32800",
"c. c #A12A02",
"v. c #A72900",
"b. c #A32B03",
"n. c #AB2B04",
"m. c #A2250B",
"M. c #A02B08",
"N. c #A22F0A",
"B. c #A52F0A",
"V. c #A42F0C",
"C. c #A32C0B",
"Z. c #AB2C0B",
"A. c #B02F0F",
"S. c #A23200",
"D. c #A23106",
"F. c #A2320A",
"G. c #A43508",
"H. c #A5340F",
"J. c #A3320D",
"K. c #AA330C",
"L. c #AA3C0B",
"P. c #B0300B",
"I. c #A52F13",
"U. c #A32C12",
"Y. c #AA2C14",
"T. c #A92F1B",
"R. c #A03410",
"E. c #A73513",
"W. c #A03314",
"Q. c #A33414",
"!. c #AA3314",
"~. c #A43A15",
"^. c #AB3915",
"/. c #A33419",
"(. c #AA351A",
"). c #A63A19",
"_. c #A73C1A",
"`. c #A33A1C",
"'. c #A43C1A",
"]. c #AC3E1D",
"[. c #AB3B1B",
"{. c #B13212",
"}. c #B33C16",
"|. c #B33F1C",
" X c #852E20",
".X c #882F21",
"XX c #803225",
"oX c #8C3423",
"OX c #8D3B23",
"+X c #933622",
"@X c #943C22",
"#X c #9E3C23",
"$X c #9D3C24",
"%X c #9B3728",
"&X c #AB3720",
"*X c #A63B25",
"=X c #AC3B24",
"-X c #B33A22",
";X c #A34017",
":X c #AF4217",
">X c #A0421C",
",X c #AD421E",
"<X c #B2401C",
"1X c #B1431C",
"2X c #B8471D",
"3X c #AC4026",
"4X c #A94020",
"5X c #A8462D",
"6X c #B44522",
"7X c #B94520",
"8X c #BB4621",
"9X c #B64920",
/* pixels */
"S.L.G.&.5 U 9XF. .v.v.c.k. . .O.7.o.W W 5.5 3 =X/.W o.2.! [ R ! Q Q ! W W T [ ;.2 E 2.o.W o.' T u 5XT T _.@.|  . .~ ~  . . .C.I.",
"! X.X.&.T ) 9XJ.b.c.j.c. . .O.o.W T T R 5.R t 3X_ t T R T R W o.^ _ W T t u p -.1 T 2.[ ' ' ) ) } $Xt t (.X. . .! !  . . .! ! | ",
" .X.X.=.R R _.X.@.X.X.X.X.+.o._ T R _ [ u.[ t i.5.[ 4.o.} 4.[ } { { n x v x v n 6 y { <.:.{ { ` 6.4.4 _ ].!.F. . . . .| | R o.o.",
"F.M.@.W.| ) `.p...X.X.@.+.' ) ) ' y.i.=.i.+.t [ +.} 4.) ) ) t u y 9 8 g j j 8 * $ $ 7 y z z y y 4 4 , R _.<X8X^.K.X. .X.| o.o.5.",
"Q Y Y R t t 4.4.y.=.=.*.+.} { $.) | =._ ..) t u , 4 1 > , r @ > * O o o % % o . + + $ 1 7 7 < 1 , t 3 3 U X.K.@.M.F.H.~._.p.+.} ",
"Y Y R R t r t t t 4 2 , , 1 7 r T T _ R _ _ u ) ' } ] u } d.{ :.8 = & o o % * * i p u T T u u t R +...R U R R U T U U U t , , 1 ",
"(.U.5.4.2.;.t 4 t t 5 t ) _ ' ) | | X...@.J.+.=.[ } ) r { >.u y A Z i 8 * 6 b d.6.f.7.U.3.4.2.o.R @.J.F.H.F.X... ..._ u 1 , u 9.",
"..R R T [ >.) t R T R ..^.,X~...X.| X...X...| o.+.t.) r ] 1.u r r p -.y 1 7 } *X3.3.( ^ ! ~  .| J.M.@.M.E.E. .J...@.@.) 1 , ` $X",
"_ ..R ) ] >.t.t +.R | !.{.b.X. . .|  .c.X.| | ..5._ 4.r t d.E t t 4 2.2.2 5 [.[.m.m.( ( ( ~ !  .c. . .X.b.X.@.J._ _ ' ' t 1 g.9.",
"_ ..) ) ) } >.r T X.}.}.K. . .M.v. . . .X. .o.@.o.o.7.t t 6.E t 3 t 7.6.2 U (.I.Z.z.z.l. .!  .|  .X.X.X.@.F.X._ R ) +.} u 1 h.d.",
"_ .._ _ T ` [ 4 | |.|.b.k.j.k.m. .!  . . .@.@.@.o.+.i.t t $X6.>.-.;.%X;.> U :XH.B.n.C.j.| | _ | |  .| X.@.X.! U R _ o.+.T 4 d.t.",
"| ..) ) u z ] 4 T ].}. .M.b.!  .!  .b.X.M.R.@.O.+.[ ' , , ;.6.1.,.1.+Xr @ u >X&.b.S.b. .| | ' ' | | X.M. .R U U | ..+.@._ 4 4.+.",
"| .._ T u u ] t 4 i.6X[.[.J.o.R.(.^.]._.(.W.y.+.y.[ u , , u u p 7 e Z 9 $ ` s...X.b. . .X.X.....| X.M.X.R I T _ o.O.@.y.o.4 o.@.",
" ..._ T u p :.u r ] +._ o.T T _ T U U t t t 4 r r , > @ > @ + @ # # * & * { >Xs... .! !  .....| | E.E.R 3 R  .| o.@.@.I.@.3 ..U.",
" . .| _ p p <.p 1 r r 1 < 1 1 1 u r t ) ) u u ) z u u b { c b A ; O O # * l s.~.X.k.~ ~  . .O.^ @.E.@.R U | @.....5.@./.C.3 ! @.",
"~  . .| T u ;.p > b d.4.z u { ` z u ) s.s.} ) { ] 9.>.t.4.:.d.<.; O o & # * z } y.R.U.U.U.U././.,X@.) _ +...X.@.@./.C./.7.2 T @.",
"n.c.c. .) ) +.o.> { y._ ..' _ =.u y [ +.+.' u b ] ] o. . .o.[ 1.F . # # O O = * 8 $ 9 7 7 A ,.] z z z ` =.>X:X[.~.~.i.[ T u u d.",
"c. .v.j...+.@.o.< { o.R _ _ ! ..u 7 ' &..._ u ) T R |  .~ ! | 6.J X # # * O # O & X # # @ 6 > 7 * 6 9 t T T T T R U U t 4 1 r oX",
"X. .j.X.+.p.(.5.7 } O.! _ _ | @.z 1 ' G.| R T [ o...j.l.v.(  .5.:.+ + < n b z b z y y r y 7 @ 9 [ _ o.|  .|  .~ ! Y Y | [ T r d.",
"J.@.U.O.' 5.I.U.2 W O.^ _ R ! +.] 1 ) G.R U ) ) ) | ~ k.l.(  .@.8.6 $ 6 g.t.+.y.@.+.+.' t.) > ) [.(.!.Z.Z.Z.A.P.Z.M.U.7.f.>.r E ",
"3.5.T.T.5.5.Y.m.3 ! U.U.3.o.3.5.c > ' p._ T ) ] ] _  .n.n.b.C.y.8.9 * 7 t.+.T R Y ! _ _ p.z > ) C.m.k.( z.Z.A.Z.{.I.@._ [ :.r 7 ",
"r t 2.f.u.i.(.U.U R U.U.4.o.2.>.6 + z p.*.t.w.oXw.t.@.K.K.M.5.6.9 * 6 9 +Xf.o.o.R o.o.[ g.` 7 } U.M. .m.Z.Z. .~ ! | @.' 6.d.y > ",
"# # 6 h x { t._ y y y y 9 9 9 * O X w v c <.XXXXG i U U U t r 7 # X 6 6 <.d.1.d.;.>.} ] d.{ 7 t.p.@.b.b.X.X.| R R | *.} $.8.9 * ",
"= O X X $ 9 y 7 ` y 7 9 6 9 8 # - O + + @ 6 $ 0 * > > , 2 , > < 6 $ 6 X $ < < > 1 1 7 1 r r 1 } =.=.=.@.&.=.&.p.*.' ' y r 6 $ 6 ",
"J D n b ) T ' &.:X&.t _ s.9.>.9 H H M i 1 @ * + $ < r T @.4.$XoXoX XoXJ e $ $ # * + 7 r r [ U t t r t t r u T r ) r 4 u z z { { ",
"-.b z ) R R | X.2XK.t T p.4.t.9 q Z :.t.' u p 6 6 y i.(.^.@.d.%X%X,.p i i k k 8 * x @Xh.f.&XU.Y.X.' _ _ _ .._ T r T ' +.4.4.} } ",
"u y r u T R R ) |.8Xr t i.+.9.r y z T R R ) t.:.> u 9XK.b.X.o.4.o.5 3 1 r l x h 6 0.a._ |  .Z.A.M.X.@.@.X.R.=.o.4 o.O.^ ^ W U 5 ",
"] ) u u R R T R K.8X4 r W.4.t.r 7 ) R _ R ..'.} , T 2X .X.K.| R I 3 t t y l x x $ a.%.| X.l.( Q  .! !  .! @.U.5.2 o.o.I U ! W ^ ",
"W T T U Y Y R _ Y.-X2 2 3.3.7.T r ) _ _ R | i.{ , t 1XD.c.F.U r t 5 u u 9 9 l l @ 8.' ) V.K.Z.( k.~ ! ! Y | 5.5.2 4.4.5 I U U W ",
"Y Y T T Y Y ) } -X-Xr 1 W o.;.] ] >.' | R | d.<.$ 1 ;X,X,X_ 7 r p y y y y y v y @ z ) T _ X.F.K.l.~ O.O.! +.i.f.4 4.4.] [ ] t u ",
":.{ n b ] :.:.n 6.;.9 * y p 7 6 w A :.s.t.] J s $ 6 w.$X$Xu q s F j e e k F J i @ 9 :.:.>.' ) o.o. .O.O.+.4.t.{ @ 9 l n n K q.q.",
"c z y 9 y u h 8 1 > $ $ 7 y $ + # # @ < @ + $ # $ 6 9 > < + #   o o & & & 6 w 6 < + 9 q 9 b 9 { 4.| o.+.+.' u 6 > + # & O # = g ",
"7 6 9 9 < @ > r T T ) ' } ) 7 7 * $ $ + @ > * 9 9 9 , 4 r < # . . % o O & # $ # # # + X # + # X > @ > 1 4 , , 7 9 $ #   X . o - ",
"{ { ] :.{ b } u._.&.H.J.Q.'.) y 8 8 q q y 7 # 9 ` #.@.@.u.6.v & o m M v v y y y i e e k k k e 7 9 7 u } ' o.+.*.] b J 6 & . X m ",
"{ ) ) p p [ +.+.R. .X.X.=.W.T r y l -.1.1.u @ 7 a.s.(.C.@.i.1.v $ A :.<.-.u ] ] -.-.-.,.-.;.] E E o.5.@.H.K.K.(.o.[ oX,.d + 6 oX",
"T T u t t _ o.R | !  . .C.W.T 4 r y ;.7.*X] < z s.~. .! Q | } { < J ,.T t t T T t u u ] T E T T o.+.O. . .b.M.X.T T E -.-.@ y %X",
"R _ R T R o.O.R  .l.m.j.O.U.T t t _ @.7.&X2., ) s.@.j.l.l.~ | ' r <.D u u y u u y y u u u u T T ) | ..| ..&...` u y y b D + 7 9.",
"T R R R R ^ ! Y l.~ k.~ ! ^ R R T X.H.U.&Xo., ) W.X.k.z.z.~ ! @.r <.{ b ) ) ) z l z z z ) ) R R _ | ..X.&.&._ u z l l J { + y 8.",
"R R R R | o.! ! k.~  .~  .o.W +._ X.b.U.=XE > ] i.O.~ ( ( (  .@.4 :.;.T ) T _ u u ) ) ] R R ! |  .X.X.X.X.R U t y u y D -.@ u 4.",
"R R R | o.o.o.~  .! ~  .| R r T R _ | 5.=XU @ :.d.+.~ ~ ~ b.@.o.4 ;.[ T U T ) T T ) E T T T ^ |  .|  . .R t t T p i < i :.> t ] ",
"T | o.' 4.+.o.| _  . . ._ T T u u ' o.@.4.4 > l 9.] o. .! O.=.` 1 p 6.f.+.' } } $.:.:.>.:.;.2.[ o.@.5.+.U 5 T ] q < s F d < 7 1.",
") +.' ) ' ) T | | | | .._ ) T z ` ' +.4.>.r < e oXd.7.5./.`.:.7 < q i y r y z y 9 7 9 9 9 7 y p ] ) o.[ u u p i s a a N 0 + < A ",
"' t.a.g.t.1.} i.@.@.X.@.*.>.:.{ $.%.} [ E r < 6 9.w.2.o.4.} 9 # X + + $ $ < 6 < $ * + O # O # * > < 7 1 < 1 7 # $ # O # O o 0 H ",
"1 y u c { z T ' T U t t t r 1 6 y z u 4 1 1 < < @ 7 , > , @ # & O 8 e y ` ' ) ` l 9 * # & . . = D :.9.} ] } :.b q e * & X X # # ",
"+ @ @ @ > @ , z +.....) u r r y y u t U U W ] { 7 u t 4 r > o & $ ] d.i.[.(.!./.4.4.p 1 e + + q 6.7.R.C. .V.U.+.W [ -.p i 1 @ + ",
"z 9 < @ + @ 1 t.y.5.@.o.T u u u } } o.o.o.o.u.} i.s.(.i.f.D & X @ ] 4.@.C.Z.( m.U.3.p r Z < + Z 4.3.C.Z.n.n.P.Z.! R t u E -.f p ",
"<.:.b q < @ t `./.R.@...) T T { } ) | ^ Q R R R _ | @.W.d.8.g o $ >.i.@.C.l.( k.m.2.r 7 G ; O Z 4.R ! c.n.n.n.j.M.| U t r u p ] ",
"z :.w.d.u < r h.W.@...| ) _ ' _ ' T | @.! ! X.|  .| @.y.) q = O $ :.p.X.Z.A.( z.U.O.4 r Z * O k t.R R M.K.n.v. .X.| _ ) ) y u z ",
"T u +.p.` r r s.R.=.X._ ) _ ..&._ _ | ..| | | ....%.' u y D k + @ } W.@.Z.z.( z.Z.O.4 r D M # 6 w.W R +.Q.M. . .| | _ R T T u T ",
"_ T  .H.X.u r *.~.D.| R ) _  . ._ _ _ _ | _ _ _ _ +.) y y A e $ $ } i.X.z.z.( n.C.C.T y ,.k # 6 1._ T | @.X. .! | ~ ! R R T W E ",
"R R ~ m./.T 4 p.^.C.! R | | ~ ~ O.o.o.| | _ | _ +.y.>.u i Z d $ + z >._ O. . .m. .i.} b v * O $ ] _ W ..y.E.G.X. . . .| R U U U ",
"R ! ! m.W.U , +.!.m.~ ! | @.l.~ | | ! ! | ! ! ! _ o.>.p i i < + $ b d.d.`.(.3.@.@.f.9.v 9 * X + 7 7 y ) +.*.X.| | ......[ [ _ ) ",
"o.5.m.T.(.U > +.(.Y.3.@.+.@.O.O.m.( ~ ~ ~ Q ! ! ! 2.2.-./ f q > $ k :.:.>.[ _ u y l 9 6 * $ # + X X # # $ < > < < 1 r y p b A A ",
"u T 3.o.5.u , ) 7.W.(./.f.p.(.(./.!./.C.C.O.| o.W W ;.b f q < @ + @ < > > < < > > $ $ 6 6 9 i e : o o O $ # $ 6 $ < 6 7 9 < 1 < ",
"< 1 t 5 r r $ 7 ) _ +.} $.$.y.i.%.%.%.+.} ` z z 9 6 * # # & o o 6 6 6 1 1 r y r 9 9 9 { :.9.1.1.J 8 * 9 n c z c ) [ } } ) u r r ",
"{ u R u u z 9 7 4 4 4 7 9 6 1 4 r r r y 7 7 < 6 9 * # # & : j M v b -.:.{ d.h.0.z y z 9.4.[ W T 8.9 $ z 9.$.) ) ) ..X.@.@.+.o.| ",
"$.t.7.5.t.>Xg.9.y.W.) ) @ $ p...X.&.D.X.=.=.*.t.9.7 + D OXZ <.i p p E [ ;.;.} $.} 7 t.' R +. .R ' 9.@ ) t.T T T _ | ! | | |  . .",
") T Y ! ) _ $.} (.)..._ 7 1 ;XE.b.c.X. .X...o.T [ r @ y w.y n y u E E [ W [ +.t.' r *...! j.z.! [ t.> ` s.' ....R R R R Q R R ! ",
"_ R ^ m.M.| | @.@.{.Y.R.u 5 E.K.K.D.X.| =.t.) r u y @ y 9.b b ) T E W W W _ +.4.T 4 p.X.| l.n.( y.g., p t.} [ [ o.[ R R W W o.W ",
"R R Q ~ ~ | | | ~ Z.!.I.U 4 ..M.b.X.X.@.@.' T r ] -.> < :.] b ] ] [ [ o.[ o._ +.t r =.X. .l.P.( W.h.4 r t.f.u.+.+.[ W T W W R U ",
"o.o.! Q ! 5.5.+.U.T.I...r r @.-XV.I.I.i.2.[ E E p p > @ ] >.1.6.>.:.>.6.6.f.4.[ 1 t p.X.X. .n. .X.^.Y 5 X.H.<X].E.C.@... ...| ! ",
">.5.3.O.o.4.[ U Y Y Y t 1 r T 5.W.5.3.o.E t f ,.oX,.> + > > > @ @ + @ > , , , @ , u t.' X.X.b.! | ^.| 3 5 U _ | _ _ R | o.+.+.+.",
"9 y t t r 1 6 < 2 2 r 7 8 * < 7 z y 9 < $ $ * * # X X X + * * 6 $ $ 6 6 7 r 7 7 > y { [ *.' =.R ) '.' > , 1 r 1 > > > < 1 7 q 7 ",
"e 7 r r 1 7 D @X$Xf.w.8.e.K x n 9 $ + $ & & % % V B P L C S S S S K D D :.<.1.1.$ y { ` +.' @.R ' g.] > :.g.oXu J D J J Z Z i i "
};
