/* XPM */
static char *b5682ae81f7b4b5adf3cbd90006729cfYd9IYHMGm5x4qaNx[] = {
/* columns rows colors chars-per-pixel */
"64 64 256 2 ",
"   c #08090A",
".  c #151414",
"X  c #1C1C1C",
"o  c #161818",
"O  c #101112",
"+  c #2A1C0E",
"@  c #25211D",
"#  c #352418",
"$  c #1A1D21",
"%  c #1C2125",
"&  c #242423",
"*  c #2B2B2B",
"=  c #262728",
"-  c #322D2C",
";  c #2C3235",
":  c #333333",
">  c #3B3B3C",
",  c #363838",
"<  c #2E302F",
"1  c #1E201F",
"2  c #4B170A",
"3  c #551D10",
"4  c #541D0D",
"5  c #701E01",
"6  c #4F2D13",
"7  c #7A2B06",
"8  c #7D340B",
"9  c #662A14",
"0  c #793816",
"q  c #6B3211",
"w  c #463425",
"e  c #4D3326",
"r  c #683F21",
"t  c #3E403F",
"y  c #564607",
"u  c #724D0F",
"i  c #594539",
"p  c #4F4833",
"a  c #774426",
"s  c #6E4E32",
"d  c #7B6723",
"f  c #3A3E41",
"g  c #3F4242",
"h  c #434343",
"j  c #4A4A4C",
"k  c #545454",
"l  c #585858",
"z  c #564F4C",
"x  c #775949",
"c  c #675A51",
"v  c #766F58",
"b  c #656767",
"n  c #767676",
"m  c #822D02",
"M  c #853202",
"N  c #82340B",
"B  c #8A3A0B",
"V  c #933E0A",
"C  c #853C15",
"Z  c #903F12",
"A  c #8C4315",
"S  c #8B451B",
"D  c #89461B",
"F  c #9B4C13",
"G  c #944C1C",
"H  c #984817",
"J  c #9D531D",
"K  c #9A511A",
"L  c #93430D",
"P  c #A3541C",
"I  c #AC5B1B",
"U  c #A75617",
"Y  c #B25E1B",
"T  c #B75B18",
"R  c #A9520A",
"E  c #B6621C",
"W  c #BA631C",
"Q  c #BE681F",
"!  c #B46509",
"~  c #8A4A24",
"^  c #954D24",
"/  c #8C522A",
"(  c #9B5422",
")  c #9A5727",
"_  c #975A35",
"`  c #875233",
"'  c #A45A24",
"]  c #AB5D24",
"[  c #A55A26",
"{  c #B25F24",
"}  c #9D643A",
"|  c #8E6A2F",
" . c #AD6226",
".. c #AD632A",
"X. c #A4612C",
"o. c #B46324",
"O. c #BB6623",
"+. c #BC6925",
"@. c #B3652A",
"#. c #BD6D2B",
"$. c #B6682A",
"%. c #BF702E",
"&. c #A86738",
"*. c #BC6E32",
"=. c #B26C37",
"-. c #BA743A",
";. c #AB7431",
":. c #83600F",
">. c #C4661D",
",. c #D3781A",
"<. c #C16E2C",
"1. c #C36925",
"2. c #C2712D",
"3. c #C9742D",
"4. c #D77329",
"5. c #C27231",
"6. c #CA7A36",
"7. c #D67E37",
"8. c #CD6E27",
"9. c #DA7224",
"0. c #95664B",
"q. c #986B53",
"w. c #917150",
"e. c #A56A45",
"r. c #A97347",
"t. c #BA7C46",
"y. c #BB7D4A",
"u. c #B57745",
"i. c #A97657",
"p. c #B37C5B",
"a. c #B67B54",
"s. c #A26F52",
"d. c #947463",
"f. c #A47D63",
"g. c #B67E65",
"h. c #8C5C45",
"j. c #C27D47",
"k. c #BC8734",
"l. c #B78000",
"z. c #C98508",
"x. c #EC9909",
"c. c #F4AF06",
"v. c #D6843A",
"b. c #CA8933",
"n. c #EC8835",
"m. c #EB8833",
"M. c #E6AC2F",
"N. c #DFB52D",
"B. c #F9D108",
"V. c #F3CB2E",
"C. c #BA834B",
"Z. c #BA8259",
"A. c #B19157",
"S. c #B88867",
"D. c #B68A73",
"F. c #BB9477",
"G. c #BF916E",
"H. c #9F925E",
"J. c #C48449",
"K. c #C48B5C",
"L. c #C38655",
"P. c #CB8F51",
"I. c #EA964B",
"U. c #F1AA53",
"Y. c #C48D65",
"T. c #CA956C",
"R. c #C8956A",
"E. c #C49472",
"W. c #CC9A73",
"Q. c #C99C7B",
"!. c #D29D75",
"~. c #D79D61",
"^. c #CEA17C",
"/. c #D3A37D",
"(. c #DAA567",
"). c #E5B377",
"_. c #F7B673",
"`. c #EFAC6C",
"'. c #D6A55A",
"]. c #F3C872",
"[. c #EDCD68",
"{. c #888888",
"}. c #979898",
"|. c #938F8C",
" X c #B4988A",
".X c #BEA395",
"XX c #A8A7A7",
"oX c #B7B7B7",
"OX c #AFB0AF",
"+X c #C69D84",
"@X c #C8A588",
"#X c #D4AB8A",
"$X c #DAAD8B",
"%X c #D5A884",
"&X c #DAB38D",
"*X c #C8A997",
"=X c #D4AD93",
"-X c #DCB492",
";X c #D9B69A",
":X c #CCB19C",
">X c #E7B78A",
",X c #E3BA97",
"<X c #F4BC83",
"1X c #CDB5A4",
"2X c #DABCA5",
"3X c #D4BBAA",
"4X c #D1B8AF",
"5X c #E1BEA1",
"6X c #E7C29D",
"7X c #FACE91",
"8X c #FDEF94",
"9X c #DCC2AD",
"0X c #DBC6B6",
"qX c #E7C7A8",
"wX c #E6CBB5",
"eX c #EBD3B6",
"rX c #F2D3B4",
"tX c #F5DABB",
"yX c #F6D9BB",
"uX c #F2CFAA",
"iX c #FAE4B9",
"pX c #DFC391",
"aX c #BFC1C0",
"sX c #C7C6C5",
"dX c #DBCDC5",
"fX c #D9D9D9",
"gX c #D9D1CC",
"hX c #E2CEC2",
"jX c #E7D5C8",
"kX c #EBDDD3",
"lX c #E4DBD4",
"zX c #F4DBC3",
"xX c #FBE3C5",
"cX c #FDE6CA",
"vX c #FFEACB",
"bX c #FFE8C6",
"nX c #EDE2DA",
"mX c #EAE1D9",
"MX c #FFEED1",
"NX c #F1E5DC",
"BX c #FFF3D4",
"VX c #FEFBDA",
"CX c #FFF2CC",
"ZX c #DFE2E2",
"AX c #EAE8E7",
"SX c #F2EBE6",
"DX c #F9F7EA",
"FX c #F4F4F3",
"GX c #FEFEFE",
"HX c white",
"JX c #FFFEFF",
"KX c #FEFEFD",
"LX c #FEFEFE",
"PX c #F9F6F4",
"IX c #EDEEF0",
"UX c #DEDFE1",
/* pixels */
"HXHXHXHXHXHXHXHXHXHXHXHXHXKXHXHXHXHXHXHXHXHXHXHXHXHXHXHXHXHXHXKXHXHXHXHXHXHXHXHXHXHXKXHXHXHXHXHXKXHXHXHXHXKXHXHXHXHXHXHXHXHXHXHX",
"HXHXHXHXHXHXHXHXHXHXHXHXKXKXKXHXHXHXHXHXHXHXHXHXHXKXHXHXHXHXKXKXKXKXHXHXHXHXHXHXHXHXHXHXHXHXHXKXKXIXoXaXHXHXKXKXHXHXHXHXHXHXHXHX",
"HXHXHXHXHXKXHXHXHXHXKXHXHXHXHXKXKXHXHXHXHXHXHXHXHXHXHXHXHXHXHXHXKXHXKXKXHXKXHXHXHXHXKXHXHXKXKXHXXX* . . h fXHXKXHXHXHXHXHXHXHXHX",
"HXHXHXHXHXHXHXHXKXHXKXfX}.{.sXKXHXKXKXHXKXHXHXHXHXHXHXKXHXHXoX{.XXKXHXKXHXHXHXHXHXHXHXHXHXKXHXXXO & = & o & fXHXKXHXHXHXHXHXHXHX",
"HXHXHXHXHXHXHXKXHXHX|.$ O . . b IXHXKXHXHXKXHXHXHXHXKXKXAXk . . O > sXKXKXKXHXHXHXHXHXHXHXKXKXl . = & & * . }.HXKXHXHXHXHXHXHXHX",
"HXHXHXHXHXHXKXHXHXn   & & & &   h PXHXHXHXHXHXHXHXKXHXFXf O * & = o $ fXHXKXHXKXHXHXHXHXKXKXFXt . X o . o . n HXKXHXHXHXHXHXHXHX",
"HXHXHXHXHXHXHXHXAX& & & & & & * o oXHXKXHXHXHXHXHXKXKXsXo * & & & = . }.KXKXHXHXHXKXHXHXKXKXfX< 1 & & & @ 1 z KXKXKXHXHXHXHXHXHX",
"HXHXHXHXHXHXKXHXoXX & & & & & & X n HXKXHXHXHXHXHXKXKX}.o & & X & & X b KXKXHXHXHXHXHXKXKXKX|.* * & & & $ - * sXKXKXHXHXHXHXHXHX",
"HXHXHXKXHXKXKXHX|.$ X X X X X X & k HXHXHXHXHXHXHXHXHXb 1 o o o o X & h FXKXKXHXHXKXKXHXKX+Xq ; < 1 & & $ , * G 4XHXKXHXKXHXKXHX",
"HXKXHXKXKXKXKXHXb & X 1 1 1 1 o - > IXKXKXKXHXHXHXHXFXh = & & & & X - * gXHXKXHXKXHXKXHXD.R ..* > 1 & & & , w O.H 4XHXKXKXHXHXKX",
"KXHXHXHXHXKXHXlX, < & & & & @ X : & XXHXKXKXKXHXHXHXSXp - & & & 1 X : @ sXKXKXHXKXKXKX0XU 2.2.w , & @ @ < ; a 3.O.[ SXHXHXHXHXHX",
"HXHXHXKXKXHXlX( w < & X & & X & , = B :XKXKXKXKXHXHXPXi * X X @ o @ ; # jXKXKXHXKXKXKXa.>.#.3.~ < < o X , -  .%.%.U *XHXKXHXHXHX",
"HXKXKXHXHXPXe.>.r * & o X 1 . & < w Q J lXHXKXHXKXHXPX_ & & o o o = = a zXKXKXKXKXKXmX( <.+.#.+.w ; o @ ; a 1.#.2.E s.HXKXHXHXKX",
"HXHXHXKXHX3XY 5.[ & * o o o X - % a 3.Y S.HXKXHXHXHXFX5.w % X o o * * I jXKXKXHXKXHX9XF %.%.#.2.P - % % e +.%.#.%.@.K NXHXKXHXHX",
"HXHXKXKXHXi.o.#.1.e = 1 o . X * #  .2.+.) IXHXHXKXHXSX5.^ % $ . X o a Q 0XHXHXKXKXHXQ.F %.#.#.#.3.' 6 e +.2.#.#.%. .F wXKXKXHXHX",
"HXHXKXKXIX[ O.<.<.K X & X o 1 $ a 1.#.%.H 0XKXKXHXHXSX-.<.r o o o w %.E hXHXHXKXKXHXL.J #.%.+.P S P J F ] o.#.<.2.[ F -XKXKXKXHX",
"HXHXKXKXeXK $.<.#.1.r O o o $ w o.<.<.#.F #XHXKXKXHXSX#.2.2.v o c @.<.W wXHXKXHXHXFX5.' O.<.{ ' C 8 s.` m H @.<.3.C P W.HXKXKXKX",
"KXHXKXHX;XP @.#.#.#.Y s = = e P <.#.<.$.F Y.KXKXKXKXNX#.I ] S.0 p.+.#.W 9XKXKXHXHXkX*.' @.5.2.6.$.Z ~ S ] 3.5.3.^ 9 o.j.KXHXHXHX",
"HXKXKXKX!.U @.#.#.#.o.K.i i a.W <.#.<.@.P j.PXHXKXKXnX] H 0 s.Z q.S P E 9XHXKXPXHXhX1.' 9 0 0 C $.] 0 J [ ~ C 0 9 ' o.-.FXHXKXHX",
"HXHXKXKXK.I  .2.#.#.1.Y.5.=.Y.1.<.*.<.@.' #.SXHXKXKXkX#.2...s.C q...2.1.;XHXKXKXHX9X+...3 2 2 3 9 { ^ C 3 9 0 J 4.{ o.*.nXHXKXHX",
"HXKXHXPX6.o.[ 2.#.@.U S.&.[ Y.1.%.#.2.' ) O.jXHXKXHXhX8 ^ 6.s.7 p.*.' C  XHXKXKXHX#XE @.{ ] C 9 3 C [ 3 J 4.9.n.4.H #.o.jXHXKXKX",
"HXHXHXAX$.@.' 2.o.' 7 q.^ ~ s.Z $.#.3.S ' Q 9XHXPXHX4X2 3 ` Z.V i.e 3 5 F.KXPXKXHXW.E ..8.n.I.m.0 9 S C n.n.I.9.T C 5.Y qXHXKXKX",
"HXKXKXjX$.$.[ 3.<.3.[ i.^ S p.Y 2.3.' 9 $.W ;XHXPXHX1X5 4 r p.L h.5.8.9.).KXKXKXHXY.E @.C 8.9.U.I.Z 9 { `._.m.8.B H $.Y ;XHXKXHX",
"KXKXKXwXE #.D D ^ ^ 1.S.C ^ T.[ [ S 9 G $.E Q.HXKXKX5XI.<.r q.8 0.I.n.m.~.KXKXHXKXJ.o.@.C B 3.7._.7.D I.7X4.e.a.m ' ..T %XKXKXKX",
"HXKXKX;XY #.0 2 4 4 q Y.S ) d.2 9 q O.O...E R.KXKXKX>X9.U.I.h.5 Y.<XU.4.J.HXKXHXPX-.o. .B ^ s.l.n.`.u.<Xb.l.s 3Xa.F @.W T.HXKXHX",
"HXKXHX%Xo.@.' ~ 9 4 2 S.o.9 f.>.8.m.9.K ..E L.KXKXKXp.>.7.7Xj.N ).7XO.u.a.DXHXHXSX%.+...C Y.k.d '.~.I._.u H.;.0X-XL ..O.K.HXHXHX",
"HXKXHXW.W ] { m.I.8.q d.K q W.m.n.7.T C @.O.-.PXHXKXp.e.z.U.(.>.<Xb.l.c uXSXHXKXmXO.+.X.A wXA.6 A.C.`.`.u v k.jXqXG ..1.y.KXHXKX",
"HXKXHXK.+. .J 1.n.U.I.f.9 { >X_.n.9.V Z  .+.-.SXHXSX@X} d [.<Xm.uXs A.r.zXSXKXHXjXO.2.' ^ tX!.+ d ;.`.'.u # b.5XqXK  .<.-.PXKXKX",
"HXKXHXC.1. .G 8 1.4._./.8 7.uXv.u.j.M K ) 2.+.nXHXjXwXA.6 F.$X_.).p H.R.zXjXHXHXwXE 2.' ) rXrXs y | ).P.u y (.zX,XG  .%.#.SXHXHX",
"KXKXPX-.1. .G N s.,.M.6XI U.;Xz.s =Xu.G ' %.W jXKX1XuXP.+ v G._.W.p y P.rXqXHXHX;XE 2.P ) tXVXqXI } `.~.&.b.MXBX;XK ..%.+.nXKXHX",
"HXKXSX*.2...A r.S.u N.6Xn.`.H.H...0X#XB  .%.o.0XKX1XqXyXy | G.].(.d u 7XrXqXKXKX#XW %. .) eXvXvXg.u.7X[.S.=XBXCX$XG @.%.W jXHXKX",
"KXHXNX+.<.@.A #X#X6 H.2X_.`.d.n k.zX5XA ] %.W 2XKX1XqXDXpXA.E.U.@XC.(.DXyX1XKXHX^.W 2.X.^ qXMXvX+XR.iXN.Y.tXvXBXG.A $.2.E wXKXKX",
"HXHXjXQ %.o.G ;X].# s @X>XI.H.p k.qXqXS ] 5.W =XHX:XqXCXzXD.^.8X).D.rXCXtX@XKXKXT.Q #...A ;XCXvXT.-XiXB.R.xXbXBXe.A @.%.E 9XHXKX",
"KXHXwXW 2...K -XiXx y E.).P.n y ~.tXqXS ] <.W /.HX.X6XBXbXQ.2X8XN.*XbXBXrXD.KXKXY.W <. .N Y.DXvXr.).].B.6.zXvXtX0 K @.5.W ;XKXKX",
"KXHX9XW 2.$.G ;XVXtX=. XU.~.F.b.vXBX;XA ..%.W W.HX X#XBXbXY.zX8XB.#XcXCX;Xq.KXKXJ.+.#...G H yXQ.8 ].'.c.! Y.DXY.5 ^ o.%.W %XKXKX",
"PXHX;XE %.@.D -XMXCXE.Y.7X]..X=XvXBX#XA ..#.O.K.KX XZ.DXrX0.].[.c.a.cXDXS.h.KXPXy.1.<.[ ^ L M M Z %X].c.,.Z &.M N ( o.%.W ^.KXKX",
"KXHX%XE %.@.A %XBXvX;X^.CXV.F.eXvXVXG.N ..2.O.J.KX*Xm -XX.S 7XM.x.R Q.iX7 0.KXIX-.1.%...~ K H ] { &.8Xc.$.%.V U C G o.5.W T.HXKX",
"KXHX^.W 2.$.A G.BXcX%X:XCXB.~.xXvXBX} N ..2.#.t.HX*Xm 7 V K >X[.x.1.L B 7 i.HXSX*.#.#. .S Z 7.5.1.Z U.M.@.$.v.<.0 ) o.2.W K.KXKX",
"KXHXT.Q 2.@.S } VXBXi.'.8XB.5.yXBXrX7 A ] *.+.-.HX.XB { $.U u.8Xx.<.1.o.H q.HXnX$.#.<.' [ e.{ 7.7.[ J.b.#.6.3.^ G.)  .<.W L.HXKX",
"KXHXY.Q 2...( B #X#X7 ).U.x.! a.VXa.5 G ] <.+.*.HX:X8 v.6.+.K U.,.@.3.J.8 D.HXkX#.#.1.' _ Q.[ L @.I e.J.v.#.M E.6X^  .%.O.J.HXKX",
"KXKXL.O.2...( A m m V T.7Xc.,.H G M B S ] #.#.$.PX0X} H 3.6.] b.3.6.v.H e.wXKXjXo.<.<.P e.Q.#X_ Z H ] 3.F N i.iX-X_ ] 2.O.j.KXKX",
"HXKXj.O.2.o.G S U ] O.P iXB.+.#.F O.0 D ] #.1.#.SX0XS.e.Z P [ o.v.#.B _ $X2XKXhX+.<.<.J s.%X,X$Xe.N @.H C #XvXvX-X} ] %.+.-.DXKX",
"KXPXt.1.2. .) C 5.7.<.H '.M.o.+.v.o./ e.' <.<.o.nXhXZ.$Xa.Z S #.] N e.uX-XqXHX0XW %.#.( D.=X#X,X-X} Z ~ #XMXvXqX;Xi.I %.#.*.SXHX",
"HXPX-.+.2.I 0.p.( 5.7.{ 2.b.<.v.O._ ,Xp.K %.<.o.mXdX^.#XF.a 0 ~ q s @XxX-XqXHXwXo.%.+.' @X%XK.iX-X$XS ,XzXcXuXZ.qXD.P %.#.#.SXHX",
"HXFX*.+.2.' i.Q.r.B P { [ 7.J.I 7 S.qXS.J <.%.E jXjX$X=XZ.=.&.( =.u.r.2X6XwXHX2XW %.$.X.3XW.Y.BX,X$XE.cXvXvXtXL.,X XP <.%.+.nXHX",
"HXSX#.#.%.U S.E.L.e.Z Z { 5.V C R.K.qX@X( <.2.W hXkX>X=Xr.-.;.X.t.t.u.F.uX9XHX;XE 2.O.&.0XR.T.vXrX-XqXMXvXxXxXL.$X:XP 2.<.O.nXHX",
"HXNX#.#.2.P  XQ.L.%XE.C { Z / qXMXK.#X*X[ +.%.W 9XkXqXF.;.u.=.u.y.y.u.Z.tX9XHX=XW 5.o.e.jXK.W.vXcXtXwXcXvXtXCXK.E.4X( %.#.O.kXHX",
"HXnX+.#.2.J *X%Xa.,X,XY.B _ qXvXCXY.^.3X&.#.<.E 9XkX%XZ.-.t.-.t.y.y.-.y.qX;XHX#XW 2.E i.lXC.$XvXvXcXwXcXvXbXBXR.a.dXX.#.%.E jXHX",
"HXkXo.<.%.J 0X%XC.CX,X>X} qXbXzXBXW.R.hX&.$.2.E 2XnXE.;.u.C.t.t.t.t.u.u.E.@XHX#XW 5.I S.nXu.6XBXcXeXrXvXcXvXBXW.Z.mX&.$.%.Q hXHX",
"HXjXE %.+.X.dX^.Z.vXqX$X-XcXvXbXVX/.K.jXi.E %.W ;XNXZ.u.t.t.t.t.t.C.t.t.r.:XKX^.W 5.U +XkX=.6XBXcXrXeXvXcXcXvXW.Z.SXr.E %.E hXHX",
"KXjXW %.+.&.mXW.Y.bXtXqXrXvXcXzXvX&Xu.kXS.Y %.W &XnXi.-.C.u.u.t.t.t.t.C.e.2XKXW.W 5.U 1XjX..qXvXcXxXtXvXbXvXxX!.u.SXZ.E 5.E wXHX",
"KXeXE 5.E e.SXZ.R.xXvXvXvXvXcXbXBX,X[ jXF.I 5.E #XmXe.u.C.t.t.t.t.t.t.C.&.2XHXE.E 5.U 0X0X=.,XvXvXxXtXvXvXvXqXE.=.FXF.I %.I 9XHX",
"KX0XW 5.E a.FXZ.W.vXvXxXcXvXbXvXBX-X&.kX*XU 2.W #XgX} =.C.a.t.t.t.t.t.-.&.3XHXG.E 5.P lX3Xt.,XzXvXxXtXvXbXMXW.G.=.SX@XI %.I 9XKX",
"HX0Xo.*.I S.FX=./.bXvXrXtXvXcXvXbX-X=.hX3XU 5.T %XhX_ =.u.t.t.t.C.t.C.&._ :XKXS.U #.' AX9Xu.$XrXyXzXeXvXBXrXa.E.=.SX3XU *.U 3XKX",
"HX3XI %.I @XIX=.%XyXMXxXxXvXcXvXuX&X=.0XjXJ 2.Y Q.0X` ) -.t.t.t.t.C.u.) ` @XHXG.P @.X.KX2X&.%X-X-XrX3XcXvX#XS.S.r.SXdXU $.K 3XHX",
"HX3XU %.U 2XSXu.$XqXvXvXvXvXvXvX,X#XZ.0XmXI <.U F.0X~ _ } ;.t.t.y.C.X./ ~ @XHX.XL I e.HX:XP Q.E.E.&XqXBXqX$X^.Y.&.AXAXK  .G gXHX",
"HX3XK $.U dXAXa.-X,XcXcXcXcXvXyXT.+XY.1XPX[ $.U F.3X8 / / ~ } =.=.} ~ ~ ~ D.HXXXe A D.HXgXA a.R.a.S.5X6X%X-XT.a.` SXHX} D w UXKX",
"HXhXK ..J mXnXZ.-X%X,XcXvXMXxX,Xg.E.Y.4XHX&.' F :X4XV &.} / ~ ` / _ e.q.) p.HX}., - XXHXZX> s s.a.S.T.+XE.S.0.i k FXHXn < f fXKX",
"HXfXe J &.PXSXs.$X,XE.,XqXrX-XW.S.T.i.dXHXS.F 9 OXsX# s w.0.q.Z.H.f.f.h.6 |.HX|.* , OXHXfXg f > e z z z i w > > k FXKXn , < sXHX",
"KXgX$ @ v KXIX* s E.Y.Y.%X,X>X$XW.s # UXHX}.# . XXsX% % % 1 = & @ @ $ = $ {.HXfXb & oXHXUX> g g f h b f g g h , g FXHXn = {.PXHX",
"KXsXo $ b HXHX|.O O e i x x x e @ O n KXKXXX$ . |.oX. < , , - < : : : < X {.KXKXKXsXFXHXIXk < : g h l g h > < > OXKXHXZXfXKXHXKX",
"KXAXh   b HXKXHXfXb %         $ k sXHXKXHXXX  = sXKXXXk * & & & & & < k }.IXKXKXHXKXHXHXKXFX}.k : : k * : h {.AXHXHXKXHXHXKXHXHX",
"KXKXKXXXaXHXKXKXKXKXAXoXXXOXoXUXKXKXKXHXHXUX}.AXKXKXKXKXfXoX}.}.}.oXfXHXKXHXKXHXHXKXKXKXKXKXKXKXfXXX}.XXsXIXHXHXKXHXHXKXKXHXKXKX",
"HXKXKXKXHXKXHXKXKXKXHXHXHXHXHXHXKXKXKXHXKXHXHXHXKXKXKXKXHXHXHXHXHXHXKXKXKXKXHXHXHXHXHXKXKXKXKXKXKXKXKXKXKXKXKXKXHXHXHXKXHXHXHXHX"
};
