/* XPM */
static char *_a55485cd33945d7ea94ef69202787e5ikkYnmygXBjrnucc[] = {
/* columns rows colors chars-per-pixel */
"64 64 256 2 ",
"   c #010101",
".  c #0B0002",
"X  c #000A02",
"o  c #01030B",
"O  c #0B030A",
"+  c #020B0B",
"@  c #0B0B0B",
"#  c #0C0B06",
"$  c #130101",
"%  c #1C0001",
"&  c #13020B",
"*  c #1A030D",
"=  c #150A07",
"-  c #00110A",
";  c #010413",
":  c #000B11",
">  c #0A0516",
",  c #1C0312",
"<  c #140A12",
"1  c #170718",
"2  c #001313",
"3  c #171415",
"4  c #240101",
"5  c #2B0100",
"6  c #28060A",
"7  c #340101",
"8  c #3C0101",
"9  c #3B0901",
"0  c #330209",
"q  c #360A0D",
"w  c #2A130C",
"e  c #2C0212",
"r  c #230A13",
"t  c #240A1C",
"y  c #2D0B1D",
"u  c #270716",
"i  c #340B1D",
"p  c #3B0C1C",
"a  c #370717",
"s  c #281417",
"d  c #381519",
"f  c #3A140C",
"g  c #2F211D",
"h  c #121228",
"j  c #280D22",
"k  c #350E22",
"l  c #3B0E22",
"z  c #370B24",
"x  c #281328",
"c  c #341122",
"v  c #3C1123",
"b  c #3B2330",
"n  c #440201",
"m  c #4C0202",
"M  c #48070A",
"N  c #540201",
"B  c #5C0201",
"V  c #5C0A04",
"C  c #570C0A",
"Z  c #571508",
"A  c #420B1B",
"S  c #4B0D1B",
"D  c #490616",
"F  c #5B0D14",
"G  c #530D1B",
"H  c #5C0D1B",
"J  c #530B17",
"K  c #43121E",
"L  c #4B131B",
"P  c #461715",
"I  c #52121D",
"U  c #5D131B",
"Y  c #5B1617",
"T  c #630301",
"R  c #6B0201",
"E  c #660809",
"W  c #770807",
"Q  c #68130B",
"!  c #771608",
"~  c #640C19",
"^  c #670A17",
"/  c #740E14",
"(  c #7B0D13",
")  c #750B18",
"_  c #62121C",
"`  c #6C131B",
"'  c #681416",
"]  c #741315",
"[  c #7B1216",
"{  c #72121A",
"}  c #7B131A",
"|  c #7A1A1C",
" . c #761918",
".. c #52251D",
"X. c #79211F",
"o. c #480D23",
"O. c #530A22",
"+. c #431124",
"@. c #4C1621",
"#. c #561424",
"$. c #650B24",
"%. c #760B25",
"&. c #641423",
"*. c #6B1726",
"=. c #761925",
"-. c #562A2D",
";. c #6B2325",
":. c #732D2F",
">. c #870C08",
",. c #940E0C",
"<. c #89160C",
"1. c #94130D",
"2. c #9C130B",
"3. c #991D09",
"4. c #830D14",
"5. c #8B0C14",
"6. c #870D1B",
"7. c #930D14",
"8. c #990C17",
"9. c #851314",
"0. c #8A1314",
"q. c #8C1A14",
"w. c #84141B",
"e. c #8C141B",
"r. c #891A1C",
"t. c #941315",
"y. c #9B1314",
"u. c #9C1B15",
"i. c #93131A",
"p. c #9C131A",
"a. c #941A1C",
"s. c #9B1A1B",
"d. c #941B13",
"f. c #A50D0C",
"g. c #A90A05",
"h. c #B30E02",
"j. c #BB0E0A",
"k. c #BA0803",
"l. c #A4150C",
"z. c #AC140D",
"x. c #A41A0D",
"c. c #A91B0C",
"v. c #AC1703",
"b. c #B51303",
"n. c #BB1403",
"m. c #B3130B",
"M. c #BC150C",
"N. c #B51B0B",
"B. c #BC1A0C",
"V. c #BA1A07",
"C. c #A40C15",
"Z. c #BB0D14",
"A. c #A31314",
"S. c #AB1315",
"D. c #A31B11",
"F. c #AC1B13",
"G. c #A3141A",
"H. c #AA151B",
"J. c #A21A1B",
"K. c #AB1B1B",
"L. c #B31513",
"P. c #BB1513",
"I. c #B31B14",
"U. c #BA1B13",
"Y. c #B3141B",
"T. c #B21A1B",
"R. c #BB1A1B",
"E. c #8E210C",
"W. c #91220B",
"Q. c #9B2518",
"!. c #8C2619",
"~. c #A5220C",
"^. c #B8220B",
"/. c #AE2113",
"(. c #A3231C",
"). c #AC241A",
"_. c #AA2817",
"`. c #B32315",
"'. c #BB2313",
"]. c #B3241A",
"[. c #BD221D",
"{. c #B8291A",
"}. c #A63012",
"|. c #860E22",
" X c #861726",
".X c #991A23",
"XX c #881631",
"oX c #911633",
"OX c #A41B23",
"+X c #B81A23",
"@X c #862526",
"#X c #982729",
"$X c #882534",
"%X c #903731",
"&X c #A62427",
"*X c #B52625",
"=X c #AE312E",
"-X c #C50E02",
";X c #CB0904",
":X c #D30D01",
">X c #D70B07",
",X c #C31403",
"<X c #CB1503",
"1X c #C41B04",
"2X c #CB1C04",
"3X c #C3150C",
"4X c #CB150B",
"5X c #C41B0C",
"6X c #CC1B0C",
"7X c #D31403",
"8X c #DB1502",
"9X c #D41B04",
"0X c #DB1B04",
"qX c #D4140B",
"wX c #DB140A",
"eX c #D41B0B",
"rX c #DB1A0B",
"tX c #C80A13",
"yX c #C41B13",
"uX c #CC1B12",
"iX c #C31C1C",
"pX c #CB1C1A",
"aX c #C51616",
"sX c #D21B13",
"dX c #DD1B14",
"fX c #D81615",
"gX c #D80914",
"hX c #E80D05",
"jX c #E11404",
"kX c #EA1302",
"lX c #E31A05",
"zX c #E5190A",
"xX c #F41804",
"cX c #E61315",
"vX c #EE1012",
"bX c #CE2302",
"nX c #CC210E",
"mX c #C62406",
"MX c #D52308",
"NX c #C32314",
"BX c #CC2213",
"VX c #C3231A",
"CX c #CD231C",
"ZX c #C42C1A",
"AX c #CB2A19",
"SX c #D32214",
"DX c #D82518",
"FX c #CC311D",
"GX c #E2250B",
"HX c #D61923",
"JX c #E21B20",
"KX c #C92824",
"LX c #D22C28",
"PX c #E23235",
"IX c #CC4333",
"UX c #A42F42",
/* pixels */
"h h u a S S 6 . < & , y a e w s d e e e e d p v v v p i z i a e k y y y t u t t j x j j 1 1 j c O.O.D z j 1 1 > 1 h 1 1 , , & = ",
"x x a D #.L d = < < e p O.S P P d p a a i p v p v p v p z z z z y y y y j j z j j k j t t t j z o.O.A y t 1 h > 1 1 1 j j t r < ",
"z z O.O.*.;.d s < < e O.*.*._ Y L L A A A K K K v +.v v z v v v y i y j i c k k i y k y t y k z o.o.a j 1 1 < 1 1 , j z c y r 3 ",
"o.J ^ %.X.;...w r 4 a $.XXXX|.{ U Y J S L S S o.A A A l v v v v i j k i k k p k i i i p p p a p v l j , < < 1 r t z z +.c i u r ",
"O.^ ) 6.|.| Y f q 0 D %.oXoX6.) ` ~ H H H H G S A A A z l l l v k i i i i a a p A A D L L S G D v c u , , , r y i p o.o.v y u & ",
"H ^ 4.7.p.0.Q C J D ^ %.oX|.) W { ^ ^ ~ ~ #.H G D D A l +.z z l c v c i i a a D D S J Y &._ F J +.v u u 6 e a K O.#.O.O.A i e * ",
"_ ' 5.8.A.A.0.] ' ^ %.XXXX} Q F { } ) ` ` ` _ H S O.+.+.+.l z z v l v p p p D D G H U &.*.} ' H #.+.z a a p G #.&.&.O.O.A p t t ",
"Y Q 4.2.S.S.y.e.} } =.XX X` Z Z  .} } } =.=.*.&.#.O.@.o.l l z z k l p +.K S S S I F _ ` =.=.` ~ #.O.o.A D S #.=.*.*.$.J A l c x ",
"<.>.e.s.OXC.8.OX.X8.6.4.( / {  .' ) { { } } { ] ' ' F J M d d K J F Y _ Y Y L J F ' ` |  Xe.5.5./ { ` E E =.=.=.~ H J L K d g d ",
"4.4.,.s.OX.XC.OX.Xp.e.5.9.} | | { { / } } w.w.[ ] ] ^ F J G L I C Q ' ' ` _ U U ' ~ { w.e.i.p.t.( r. X/ / =.=.' F H J I L I @.@.",
"<.,.t.s..XG.y.G.G.p.e.e.w.w. X@X] / [ [ r.r.e.q.5.9.( ) { ` ` ~ / /  .| | { ) ` } } w.e.8.p.A.G.8.OX.X.Xw.w.` C C J F U ` $.*.*.",
"d.t.t.s.y.8.y.8.8.p.7.e.q.r.r.r./ / [ w.e.s.p.y.8.p.8..Xe.e.6.( 4.9.q.e.e.w.w.6.e.i.i.8.G.S.H.Y.Z.+X+XOXi.r.{ E Q ~ ' { { } w.|.",
"d.u.u.y.y.1.7.,.8.t.t.t.e.i.i.r.( ( 4.0.s.J.G.S.A.C.S.OXJ.p.8.8.,.t.t.t.i.8.8.7.G.G.G.C.L.L.U.P.Z.aX+XC.7.<.9.!  . .r.} 6.4.5.8.",
"u.u.u.1.1.1.1.,.t.t.t.t.t.t.t.i.9.4.0.t.G.K.F.S.z.m.L.Y.S.S.G.C.2.2.2.A.A.A.A.C.H.H.S.L.L.P.B.P.R.Z.S.f.2.1.1.q.d.a.@Xa.6.5.6.8.",
"1.3.u.1.1.u.u.d.u.y.p.p.p.y.8.i.q.0.t.y.J.K.I.L.m.m.m.S.F.D.l.A.D.x.F.A.A.S.S.S.C.S.L.L.U.U.N.m.U.F.z.f.l.f.2.A.A.J.OXs.e.5.6.7.",
",.1.1.,.1.u.(.u.s.J.J.J.s.G.y.8.i.t.t.A.H.I.L.m.m.m.m.z.z.z.D.l.F.F.F.F.F.T.T.Y.L.L.L.P.U.N.N.v.F.~.F.F.S.f.g.C.S.K.K.J.t.9.e.e.",
"<.<.<.d.D.G.K.K.OXH.G.u.t.d.q.q.d.A.m.tXtXtXtXtXiXL.l.f.g.Z.tXHXtXaXiXyXM.M.B.B.M.M.M.M.M.M.3XP.U.L.H.L.F.S.F.I.l.c.l.l.l.l.x.x.",
"uXyXaX3X3Xk.k.k.j.m.z.c.~.Q.}.Q.W.W.l.z.z.m.z.z.3.3.W.W.u.D.F.L.B.3X3X3XyX5X3X5X5X5X5X4X4XsX4X3X^.~.~.v.v.h.b.h.uXsXqXqXwX>XgXwX",
"g.g.v.V.3X3XsXfX4X;X-Xn.b.b.b.h.^.V.NX5XyXuXNX'.c.x.~.~././.N.V.SXsX4X4X6X5X,Xk.4X1X4X<XqX>X7X7X<X<X2X<X2XeXeXMXdXdXdXsXqX;X>XqX",
"4 7 n Z ! q.#X].LXLXdXcXcXvXvXvX;X;X;X;X:X;X;X;XfXsX4X-X;X7XrXwXrXwXeXeXSXsX5XB.yXuXuX6X6XeX9XwXhXvXhXcXcXDXCXKX`.Q.W.<.! Q Z V ",
"X X X X = w 9 m ' [ 5.8.G.H.+XiXpXCXCXKXKXKXKXCXk.3X;X;X7XlXlXMX:X7X9XSXBX'.`.F.].).).].`.].'.R.+X+XH.G.7.4.( Q m 9 5 % . .     ",
"o     o   . . . . . $ $ % % 4 5 n n 9 9 8 9 n N B >./.'.mXbXbXbX9X0XMXBXN.2.>.R T E E C E V V C f w w = $ $ . . . . . . . . . . ",
". $ . .   .     + + X X       X         X   . % 7 ( *XKXNXbXbXbXGX0X1X^.).q.N 7 4 % $ . . . . .   X X     X           . . . @ & ",
"X   X   X   X       . . . $ $ &   X X o X o . 5 N .XLXcXwXkXxXlX:Xk.g.z.=X%XU 4 . O o ; ; ; : o O & $ . . . . X   X X X X X X X ",
"  X     . & & & & & . O     X X X X X o > o % n G.B.eX2X^.}.! 9   X . 7 2.PXHXW 4   + 2 :   X X X X #   . . & . < . .     - X X ",
". . .     O O o >   o o           #   o 3 s n R *X5XnXBX3.B 7 4   X . 4 W F.VXG.' w @ O . .   X X   X   o o O o o O o X         ",
"$ $ . o o o o : : o o o o   . . $ w d q Y X.q.c.NXAXZX~.T 5 $ o o o   . 9 R D.KX#X9.^ m 7 % o X # .     +   +   o o o . . $ % s ",
"0 5 % $   o o + : o o @ & % 6 0 5 _ =.9.u.{.NXnXn.FX_.B 5 & > ; ; o o   . w ! =XU.P.Z.8.W M 4 $ d % $ $ .     -     . $ 4 0 #.:.",
"=.=.U M 4 $ . . 3 $ 6 f 0 M U ~ B #X&XS.6XrX0X2XNX{.! 5 $ > h ; ; o o + X . n E.M.wXvXgXS.( F M ;.C m M 5 % % g % 4 5 8 m ^  X=X",
"&X&X#Xw.E N M C Y C C ' E ] r.a.5.&XVX4XjXlX8X1XIX! 7 $ O o o o o     o X   % N U.cXvXzXM.x.Q.Q.(.u.<.q.R N Q @XQ / ! q.s.K.+X*X",
"L.L.U.I.A.y.y.(.Q.>.2.D.2.l.U.F.F.VX6X8XxXkX7XZX#Xm $ o + o         .   o X . 5 G.sXzX8X,XmX6XsXsXuX6XyXm.g.z.[.[.[.VXVXAXpXsXuX",
"k.j.3X3XM.j.M.iXLXP.P.yXb.b.5X5XI.B.-X8XxXkX7XKXV 5 . o X   . . X X . . ; o o % 0.yXMX9XmXbXlXhXjXwXzXzXcXzXrXfXdXdXrXwX:X:X7X8X",
"P.P.P.P.L.tXtXgXgXgXgXsXuXB.^.N.b.^.2X,X9XAX`.! 4 $   X     $ $ . < o o : o . % N (.LX9X8XrXnXbXmXbXMXGXkXhXhXxXkXhX0X8X7X9X7X7X",
"t.s.#X.XOXOXOX*X+XaXaXpXaXV.V.B.V.uX9X7X9XSX`.! 5 $   o X   $ $ . . X + + + . 4 B _.DXeX8XrX9XMXbXbXMXMXMXMXzXDXDXAXZXZXZXZXZXZX",
"7 8 7 8 8 n m N / 9.Q.I.U.M.3XqX7XrXjXhXjXdXU.q.7 $   + ; o O * % . X X X X # 5 T ).DX7X0X0XeX9X0X0X9XmX'.`.Q.E.R T V V V T B V ",
". . . . . . . . % 9 V ! 2.5XrXwX7X0XwXhXjXsX`.W.8 $ o ; ; o O r d .   X X   $ 4 W ].DX8XwXlX9X0XlXMXSX'.E.Q 9 % $ $ . $ $ $ $ $ ",
"+ + : : o o o +   . % m >.NXdX7X4XmX9X7X9XMX`.!.8 $ X X o O . w -.4 . =   . % 5 <.{.SX8XlXlX7XrXwXcX'.<.N 4 .   + o o o o     o ",
"X X X o o o o + X   . 5 ! {.DX;X1X1X9X9X9XMX'.=XN % w . . w 5 J :.n 4 % $ $ 4 n d.AXrX8XlXlX2X9XeXCXl.N 4 . X - X o ; o o o +   ",
"X   X O O > > ; + X . % T (.KX4XnX6X9X8XjX8XSX{.<.V Y 5 7  .R q.#XR 7 7 f 7 8 R (.AXrXjXzXlX7XbX6XU.>.8 $   - 2 : > O & o X X X ",
"X   . & % * O O     . % m Q.KXSXSXeXkXkXhXhX0XBX).<.%XN B &Xf.+X=Xq.m m ;.Y Q %X].DXwXkXlXlX2X2XNX`.! 7 $ X     o O & & $ .   X ",
"  .   .     o o o o & 5 B *Xk.7X2XeX9XdXrXcXeXsXmX5XV.n.n.2XsXqXsX,Xh.g.l.Y.[.VXSXMX0X0X0X0XqX4X4XKX!.9 .   o o o   X X     . . ",
"    . . .     o o o & 4 T =XM.4X2X2X6XrXrXrXrXqX4X5XB.V.1XsXeX7XrX4Xj.m.R.iXVXpXeXrX0X0X0X7X6X4XaXT. .7 .   X   .     X X     . ",
"o   .   .     o o o & % N #X`.V.5X1X2X9XqXrX7X9X2X1XmX,X4XeXrX7X7X7X4X4XpXCXpXsX0X8XjX0X0X7X4XyXiX1.N 4     o   .     X X     . ",
"      . . .     o o O $ 8  X(.l.N.V.nX6XrX8X7XrX<X2X2X2XMXMXrX7X7X7X<X4XuXuXqXqX8X8XlX8X<X3XM.L.+XW 5 $   X o   . .         o O ",
"o     . . .     o o   . 4 Q @X>.2.c.U.BX6X9X9X9X,X2X2XmXeXDXsX;X7X9X4X4X4X4XqXrX8X0XMXeX5XI.y.7.#XB % . +   o . $ .     X   X O ",
"o o   . . . .   + o o . $ P %XT W <.K.*XVX5X4X4X,X1X1X1XnXpX4X;X6X5X5XyXyX3X4XsX7X9XnXNX).d./ ^ @XC $ o X +   . $ . .       o O ",
"o o   . . .     o + X + $ q :.m N W a.*X[.P.3Xn.n.V.V.V.B.iXaXZ.V.N.^.'.L.M.M.3X3X5XNX*X#X{ M 8 U M $   X X o . $ $ .     o o O ",
"o o   . . . .     o o o . % :.7 n E w.&XT.L.b.h.V.B.V.m.U.iXaXZ.g.l.I.`.I.z.h.h.b.U.]._.r.H 0 5 0 0 . X + +   . $ $ .       o o ",
"                        . @ 3 3 . $ 6 Y #X&X1.>.Z.tXy.2.H.+XOX7.p.i.E %X%X7 N B |.|.UXXXM d =                                   ",
"                            X @ . . % L XX#Xq.W C.f.9.9.#X&XoXE W ! n :.;.4 8 8 ^ ^ $X$.8 q #                                   ",
"                              o     . a =.$X*.B e.W N Z :.$XH 7 M M % ....# 4 5 D D :.O.4 r                                     ",
"                                o o   r #.*.L 8 ~ M 6 w ..@.q % 6 4 . g g   $ $ a a -.l $ & . o                                 ",
"                                o o   & p L r $ p 0 # # 3 r & . # X   3 3     . t , b s . O O o                                 ",
"                            X   +     . e e . . r * + + . .           + +       @ . 3 <   . . O                                 ",
"                                  X     % % . o * . X X   .   X   o       . .   X   @ + . . . .                                 ",
"                                    X . % $   + * .   X . . .       X . . . . . #   -     . . . .                               ",
"                                                                                                                                ",
"                                                                                                                                ",
"                                                                                                                                ",
"                                                                                                                                ",
"                                                                                                                                ",
"                                                                                                                                ",
"                                                                                                                                ",
"                                                                                                                                "
};
