/* XPM */
static char *aea320b1c53a46bebea1fa65bfaab56cjGO4WRtVpIdsYrV6[] = {
/* columns rows colors chars-per-pixel */
"64 64 156 2 ",
"   c #040404",
".  c #0C0C0C",
"X  c #110F12",
"o  c #141414",
"O  c #181816",
"+  c #1C1C1C",
"@  c #242424",
"#  c #282627",
"$  c #292A27",
"%  c #262729",
"&  c #2B2B2B",
"*  c #322C2E",
"=  c #38292C",
"-  c #2E302F",
";  c #2D2F32",
":  c #322F30",
">  c #3D2E33",
",  c #343434",
"<  c #3B3235",
"1  c #363837",
"2  c #383836",
"3  c #363638",
"4  c #373938",
"5  c #3B3B3B",
"6  c #42292C",
"7  c #553737",
"8  c #673A3D",
"9  c #3E403F",
"0  c #41413F",
"q  c #3F3F41",
"w  c #3F4342",
"e  c #434343",
"r  c #464648",
"t  c #48474C",
"y  c #4B4B4C",
"u  c #4F4F51",
"i  c #4F5052",
"p  c #535354",
"a  c #565B57",
"s  c #565659",
"d  c #585659",
"f  c #565959",
"g  c #5B5B5C",
"h  c #645B5C",
"j  c #60605E",
"k  c #5E5E61",
"l  c #605F64",
"z  c #5D6363",
"x  c #636363",
"c  c #666568",
"v  c #67686A",
"b  c #6B6B6C",
"n  c #6F6F71",
"m  c #706E71",
"M  c #6F7170",
"N  c #737373",
"B  c #7A7174",
"V  c #777679",
"C  c #7B7B7C",
"Z  c #82474D",
"A  c #8B4550",
"S  c #7F7E80",
"D  c #838383",
"F  c #878789",
"G  c #87888A",
"H  c #8D8D8D",
"J  c #8E8E8E",
"K  c #8B8B8B",
"L  c #909090",
"P  c #919193",
"I  c #939393",
"U  c #929294",
"Y  c #959595",
"T  c #979797",
"R  c #939393",
"E  c #989896",
"W  c #999999",
"Q  c #9A9A9A",
"!  c gray61",
"~  c #9F9F9F",
"^  c #9C9C9C",
"/  c #A19FA0",
"(  c gray63",
")  c #A0A0A0",
"_  c gray64",
"`  c #A7A7A7",
"'  c gray65",
"]  c #A4A4A4",
"[  c #A9A9A9",
"{  c #AAAAAA",
"}  c #AFAFAF",
"|  c #ABABAB",
" . c gray70",
".. c #B2B2B2",
"X. c #B5B5B5",
"o. c #B7B7B7",
"O. c #B3B3B3",
"+. c #B9B9B9",
"@. c #BBBBBB",
"#. c #BFBFBF",
"$. c #BCBCBC",
"%. c #BABABA",
"&. c #C0C0C0",
"*. c #C1C1C1",
"=. c #C3C3C3",
"-. c gray77",
";. c #C5C5C5",
":. c #C6C6C6",
">. c #C4C4C4",
",. c #C8C8C8",
"<. c #CBCBCB",
"1. c gray80",
"2. c #CDCDCD",
"3. c #CECECE",
"4. c gray81",
"5. c #CCCCCC",
"6. c #D3D3D3",
"7. c #D0D0D0",
"8. c #D5D5D5",
"9. c gray84",
"0. c #D3D3D3",
"q. c #DADADA",
"w. c gray86",
"e. c #D8D8D8",
"r. c gainsboro",
"t. c #DDDDDD",
"y. c #DCDCDC",
"u. c gray88",
"i. c #E1E1E1",
"p. c #E2E2E2",
"a. c #E4E4E4",
"s. c gray90",
"d. c #E6E6E6",
"f. c #E7E7E7",
"g. c #E4E4E4",
"h. c #E9E9E9",
"j. c #EEEEEE",
"k. c #EFEFEF",
"l. c #ECECEC",
"z. c #EAEAEA",
"x. c gray95",
"c. c #F3F3F3",
"v. c #F1F1F0",
"b. c #F6F6F6",
"n. c gray97",
"m. c #F4F4F4",
"M. c #F3F3F3",
"N. c #F8F8F8",
"B. c #F9F9F9",
"V. c gray98",
"C. c #FBFBFB",
"Z. c gray99",
"A. c #FDFDFD",
"S. c #FEFEFE",
"D. c white",
"F. c #FEFEFE",
/* pixels */
"D.D.D.D.D.D.D.D.D.D.D.D.D.D.D.D.D.D.D.D.D.D.D.D.D.D.D.D.D.D.D.D.D.D.D.D.D.D.D.D.D.D.D.D.D.D.D.D.V.D.D.D.Z.Z.Z.D.D.D.D.D.D.D.D.D.",
"D.D.D.D.D.D.D.D.D.V.D.V.V.D.V.D.D.D.D.D.D.D.D.D.D.D.D.D.D.Z.Z.C.C.D.D.D.D.D.D.Z.D.D.D.D.D.D.D.D.D.l.} +.Z.Z.Z.Z.D.Z.D.D.D.D.D.D.",
"D.D.D.D.D.D.D.D.D.D.V.D.D.D.D.D.V.D.D.D.D.D.D.D.D.D.D.D.D.D.D.D.D.D.V.D.D.D.D.D.D.D.D.D.D.D.D.D._ & o o 7 ,.D.D.D.D.D.D.D.D.D.D.",
"D.D.D.D.D.D.D.D.D.D.D.q.H D $.D.D.D.D.D.D.D.D.D.D.D.D.D.D.D.<.Q +.D.D.D.D.D.D.D.D.D.D.C.D.Z.D.] . + # # + + 9.D.Z.D.D.D.D.D.D.D.",
"D.D.D.D.D.D.D.D.D.D.D + . o X a z.D.D.D.D.D.D.D.D.V.D.D.x.c O o o e 0.D.Z.D.D.D.D.D.D.D.D.D.D.f O # @ @ $ . Y D.V.D.D.D.D.D.D.D.",
"D.D.D.D.D.D.D.D.D.b . @ & # & . 5 M.D.D.D.D.D.D.D.D.D.D.y . # # $ O @ u.D.D.D.D.D.D.D.D.D.D.x.e o + + + + o b D.Z.D.D.D.D.D.D.D.",
"D.D.D.D.D.D.D.D.a.# @ @ @ @ @ # O } D.Z.D.D.D.D.D.D.D.3.+ # @ @ @ % O Y D.V.D.D.D.D.D.D.V.D.9.- $ - , - & @ r V.D.D.D.D.D.D.D.D.",
"D.D.D.D.D.D.V.D.+.+ @ @ @ @ @ @ + C D.V.D.D.D.D.D.V.D.~ + @ @ + @ @ + b D.V.D.D.D.D.D.D.D.D.K & , , , , ; 3 & @.D.V.D.D.D.D.D.D.",
"D.D.D.D.D.D.V.D.K + + + + + + + @ p D.D.D.D.D.D.D.Z.D.N + + + + + O @ r b.D.D.D.D.D.D.D.D.V O , , & , , & 2 & + ] D.D.D.D.D.D.D.",
"D.D.D.D.D.D.D.D.x # + + @ @ + O & 3 k.D.D.D.D.D.D.D.V.y % + @ @ @ + ; & 6.D.D.D.D.D.V.D.b o - & 5 & 3 , & 3 # & o _ D.D.D.D.D.D.",
"D.D.D.D.D.V.D.4., - @ @ @ @ @ + , @ Q D.V.D.D.D.Z.D.j.5 & @ @ @ @ + 3 + $.D.V.D.D.C.D.X.+ 5 ; % 2 & , & , - & 5 & # s.D.V.Z.D.D.",
"D.D.D.D.Z.D.3.@ @ , @ + @ @ + @ 3 # o Q D.Z.D.D.D.D.x., & @ O @ + + , + :.D.D.D.D.D.D.a & ; 9 & & , # # 5 $ & 5 4 + H D.V.D.D.D.",
"D.D.D.D.D.N.5 # @ ; % O + + O @ , + & + 3.D.C.D.D.D.x.4 @ @ O O o # & + ,.D.V.D.D.D.w.# , : w ; @ 3 @ # 3 + & 5 5 # e D.D.D.D.D.",
"D.D.D.V.D.[ @ 5 # @ & + O O O & @ & 5 @ v D.C.D.Z.D.x.5 @ # O O + # # # *.D.D.D.V.D.[ O 3 , 7 & # @ @ # @ & & 5 5 & @ q.D.D.D.D.",
"D.D.D.D.D.p # 3 3 @ % + O O + ; + , w * & s.D.D.D.D.l.w , @ + O + @ $ , $.D.D.D.C.D.C O , 3 5 & & @ + + $ & & 3 9 & + ..D.Z.D.D.",
"D.D.D.D.s.& - , 5 # + @ O + + @ + & e , O ..D.V.D.D.f.e , @ + O + + & & *.D.V.D.D.D.a + , 3 5 & & - # & & & & & 5 & + H D.V.D.D.",
"D.D.D.D.$.+ - , 5 & + + O O + + @ ; 5 , O D D.C.Z.D.s.e & & p + p & & $ &.D.Z.D.D.x.e @ - 5 , + , @ a e # , , # 1 & + M D.Z.D.D.",
"D.D.V.D.Q + , , 9 & + 5 & & 2 + & & 3 , + z D.D.D.D.i.5 & , c @ v & & @ o.D.Z.Z.D.q., & & 5 & 5 , # , , & & 2 # , @ # p D.D.D.D.",
"D.D.V.D.V + & 2 2 @ # g 3 2 a + 5 $ , , @ e b.D.D.D.t.5 # , x # x , & + [ D.Z.D.D.=.& & & 5 2 r & & # & & & 5 & , & & 5 k.D.D.D.",
"D.D.D.D.a @ & 4 , 5 , j 3 3 h @ 5 & & & # 3 i.D.V.D.9.& @ 3 j @ x , , + ! D.Z.Z.D.{ $ & & - , 5 $ & & & & & - @ - & & , q.D.Z.D.",
"D.D.D.M.r & # 3 3 e $ x 2 5 x @ 3 , & - $ & ,.D.V.D.3.& 5 9 j @ x 2 2 + L D.C.Z.D.L @ - & @ - 3 & & & & & & & # - & - # -.D.Z.D.",
"D.D.D.i., * & - $ 9 # c 2 2 x @ - & & 3 & # } D.V.D.*.& 5 5 x + j 5 , @ S D.Z.Z.D.V @ - # # , & & & & & & & ; @ & & , @ } D.V.D.",
"D.C.D.5.& - # & # 5 $ v , , v @ & $ # - - # Y D.b.D.{ @ 5 5 j + x 5 & + N D.C.Z.D.x # * # @ , , & & # $ - & 5 @ @ $ , @ Y D.Z.D.",
"D.V.D.X.@ , # # & , # b & , b # , $ @ # , @ C D.V.D.Y + , e j + g e & + j D.Z.D.D.u & & # + 3 & & # 9 2 & & 5 & + # & @ D D.Z.D.",
"D.Z.D.~ @ - # @ & , $ b - , b @ 3 & + # & % v D.V.D.C @ & r j O j r - @ r D.D.D.x.e & & @ $ 5 & & @ p 5 % & 5 , # & & # b D.D.D.",
"D.Z.D.F @ - # + , , & M & & M & , 2 + # & % p D.D.D.x # * r g + h r - & 3 N.D.Z.s.2 - & @ & 5 & & & # & & $ 2 2 @ & & & a D.D.D.",
"D.Z.D.N # & # @ 9 & - N & & N & , e @ & & & r m.D.D.y , # u a + j y & 2 & s.D.D.9.; , @ + - 3 & & & & & & & e 5 + # $ ; r V.D.D.",
"D.D.D.j # & @ # 5 # , N & & N * & e + & $ - 2 f.D.k.5 2 @ p d + g u & 9 + 5.D.D.:.$ , # @ @ , & & & & , & & e - + @ $ ; 7 k.D.C.",
"D.D.D.u & & @ # 5 & , N & $ N & 3 e + # @ , - e.D.<.@ 2 @ p a + a i ; w o ( D.D...# , # + + r ; 3 5 & $ r y t @ O @ & , 1 g.Z.Z.",
"D.D.m.e , & @ + , - , N @ & V 2 e 0 + @ # , $ -.D.~ X 5 @ p p O g a 4 7 o N D.D._ @ 2 $ + @ r e f g p 5 $ e 5 # @ @ & , ; 6.Z.Z.",
"D.D.s.2 , & + O 5 5 5 D 5 @ V a y & O @ # , % O.D.W . r - j b + i M r & o M D.D.L # 2 # + 4 y s k g p x i , @ y , + & 4 $ ,.Z.Z.",
"Z.D.q.- , & @ + e e g U g y V 5 2 & & + # 2 @ ( D.E o r e C S p c a & & & b D.D.C # 3 & + e c n q , x k g v p k & + & 4 % X.Z.Z.",
"D.D.,.& 3 & + & u p m K p g I y % r e + & 2 @ J D.Y @ a l m c r C b , u , c D.D.M # 3 & + 5 V e u p g u , k n s ; + : 3 @ [ D.C.",
"C.D.+.# 2 & @ & x n p V 5 5 D V z x 5 + $ 2 @ S D.Y @ V p y a q y n m v % c D.D.x & 2 & + & q p b g p c s e r u 4 + & 4 @ Y D.C.",
"C.D.{ # 3 & + @ v t d J g u C p v g 5 + $ 4 # M D.Y + u y v x g k r u p 3 x D.D.a & , & + 5 x e g b r b , p k f # @ & 4 # D D.C.",
"V.D.Q @ 5 & @ @ 5 y v K p k L u q u e + & 3 # x D.Y + g y c x g g w s g # a D.b.r & , & + 5 l e e g p r q s g k & + & 4 # V D.D.",
"C.D.K @ 4 & + : x p e N p x x e x x 3 + & , & p D.Y @ c 5 r x p e r g x & d D.v.e & 3 & O 3 l y 5 y a 5 5 d g p # + & 2 # b D.D.",
"D.D.C @ 3 : + & g y 5 a a y p d d k 7 + & , & r D.T O x y 5 s p , y g g @ d D.f.5 * , & O 5 x p & y a 0 & s x r + @ & , # x D.C.",
"C.D.N # 2 & + # g d 5 e x r & y k f ; + & , * q D.W + x p & p g , e k p O g D.t.3 , , & + 5 k k y u j p 5 p h y O @ & 3 & p D.D.",
"D.D.x # 4 & + & g g , q g p * y k f @ + $ , , 3 C.~ O g x s p k r r x p . j D.8.& , , # + ; k x V u V b g l g r O + & 3 & y C.D.",
"C.D.a & 3 & + & a k l u g a q y k f + + & , , ; x.~ . g l b g s c b k s . g D.5.& , , # & & g d g d u g n k x r + & & 3 & r b.Z.",
"D.D.p & 3 & @ + s g N k g g v v k f + + & ; 3 & z.] . f g s p g g x k g   j D.&.$ 3 , # e & c g s r s u i s b w + 9 @ , , 5 v.D.",
"D.n.e & , & & + p g f s g g c l s k + @ @ , 3 # u.| . g k i g k y u b r   c D.+.# 3 , # a + z g u x p b e g b # & u @ 3 - 5 f.D.",
"D.x.e - 3 # 5 $ s l s r g p r s z k X q @ , 2 @ 9.}   a y 3 q 5 q & w & X b D.} @ 2 - & b o e f x S f S e p t + , c + 2 , , i.D.",
"D.l.5 & , @ p $ 3 k u n s N s y b 5 O p # , 4 @ <.} . & 2 & , - & : $ 3 + v D.] @ 2 , , S o 4 y 4 3 k @ 5 y q & - S + 3 , * q.D.",
"D.a.3 , 2 + x & + s i V x b p e u - + b $ - 3 @ =.} X o $ - , , , 3 3 , + x D.~ @ 2 & 5 J O # @ 3 y e r r g g * & L # , , & 0.D.",
"D.t., , 2 + C & @ r q % g : : u e 5 + V , - 3 + +.} o + * 3 2 3 , , 2 & + j D.E @ 2 # r Q O @ 5 k p n c p s g 9 & [ # , , & 3.D.",
"D.9.& , 3 @ L * @ + 3 u u i r a g 5 o K 5 & 2 @ } ... # 5 5 , , 3 3 e & @ g D.H @ 4 @ g _ O @ N v p x x a V K 5 & @., - 3 $ :.D.",
"D.6.& , , # _ & + , c s k a d d g y O Q r & 2 @ ] ..  & 5 3 , 3 3 , , * + d D.F @ 5 + n | X , F s s u k i v z + , :.w & 3 # $.D.",
"D.,.$ 3 , & X.& + z V p g f g m L s o ] p @ 3 @ / X.. , 5 3 2 3 2 , $ - O p D.S # 5 + F O.. e D p k p k f % o % $ 7.y % 2 # +.D.",
"D.=.# 3 & 5 :.# @ V c s g g s y a # + { b @ 2 + Q ... , 5 , 2 3 3 2 - , o a D.V @ 5 O ~ +.. r C s s u p f k & @ + e.z @ 5 # X.D.",
"D.$.# 2 & e 0.@ # D g g g g l q O % + [ D + 5 @ L | X , 5 5 5 9 e , * - o g D.V @ 5 + o.@.. w M s m n n C i % % @ t.V @ 2 + } D.",
"D.+.@ 2 # a i.# & S a s s p p x 5 # o _ Q O 5 @ J ` . , 2 , , > - * - - o g D.b + 3 + 3.o.. 5 x c z c D k , % + @ s.L + 5 + { D.",
"D...@ 3 @ b s.& % N d N D C G k & # o ] X.O 4 @ F `   - * * , & - , & & . j D.b @ , @ s.O.o r s e 8 Z = ; 7 + X + f.{ + 3 + ] D.",
"D.} + 5 + F z.@ & x c p h B k 3 , + X | 1.+ 2 + D [   @ & 3 2 2 , , & @ . g D.b + & & D.} . & & q > g s w ; o o + s.=.+ , O { D.",
"D.] + 5 + _ z.+ : s w 7 A 6 % r % O . { i.@ , + C |   + @ - 5 2 - & @ + . g D.J o @ e D.`   @ $ r v v l 1 + o + + t.i.@ @ + 3.D.",
"D.[ O , + $.z.+ @ % 5 q ; e y 5 + o . ] n.& ; + C |   @ + + @ & $ @ + + . g D.[ @ o N D.,.+ O # & p a 3 # O o + , k.D.e + & t.D.",
"D.*.+ # + 9.s.O + # 5 N C b e & o + X ^ D.5 @ o T } . + + O + O O O + + . c D._ 2 & ) D.i.e & @ # @ + & + O + , p x.D.b & e 6.D.",
"D.q.@ + 3 V.z.& O @ # q g 5 & + . @ + +.D.c O . | ,.. + + O + + O X + + . K D.H & 5 | D.u.9 e e 2 2 5 3 , 5 e 0 y x.D.V 5 & ,.D.",
"D.6.@ O a D.M.& o + + & $ & + o O + + i.D.Y O O _ =.@ & @ @ @ @ @ @ @ & @ D D.i.v # X.D.t.5 e 5 5 e b 5 e q e 5 e m.D.D & K V.D.",
"D.*.O + b D.D.E + X O @ # @ O + o O D V.D.] + o U @.o & , , , & * , , - O D D.D.D.6.x.D.x.p & 4 e e p 7 0 5 , 5 ..D.D.s.q.D.D.D.",
"D.z.u   b D.V.D.q.b # o o X o @ g 5.D.D.D.}   : :.D.{ a , @ @ @ @ @ , p ~ x.D.D.D.D.D.D.D.n._ f 3 , p & 3 r K s.D.D.D.D.D.D.D.D.",
"V.D.D.{ :.D.Z.C.D.D.z.$.....+.i.D.D.Z.D.D.i.~ z.D.D.D.D.u.+._ _ _ $.i.D.D.D.D.D.Z.Z.D.D.D.D.D.D.e...Q [ ,.b.D.D.V.D.D.V.Z.D.D.D.",
"D.D.D.D.D.D.D.D.D.C.D.D.D.D.D.D.V.D.D.D.D.D.D.D.V.D.V.D.D.D.D.D.D.D.D.D.V.V.D.D.D.D.D.D.D.D.Z.Z.Z.Z.Z.Z.D.D.V.D.D.D.D.D.D.D.D.D."
};
