/* XPM */
static char *c72b9021eaae4316963babe1447b3a83GdMAe5NllAqsp7du[] = {
/* columns rows colors chars-per-pixel */
"64 64 242 2 ",
"   c #121E1E",
".  c #23190E",
"X  c #361804",
"o  c #271D12",
"O  c #1A211F",
"+  c #292119",
"@  c #382618",
"#  c #3E2602",
"$  c #061F23",
"%  c #042326",
"&  c #01262B",
"*  c #0C2528",
"=  c #01292D",
"-  c #0C2A2C",
";  c #0C2223",
":  c #142525",
">  c #122A2B",
",  c #1B2726",
"<  c #012C32",
"1  c #062B33",
"2  c #013136",
"3  c #01333A",
"4  c #01393E",
"5  c #122F32",
"6  c #252A27",
"7  c #342D23",
"8  c #32332A",
"9  c #562C08",
"0  c #462A19",
"q  c #542C18",
"w  c #59341A",
"e  c #55310F",
"r  c #652604",
"t  c #6A3808",
"y  c #743A07",
"u  c #61331C",
"i  c #683917",
"p  c #753A18",
"a  c #712715",
"s  c #4C3424",
"d  c #463324",
"f  c #593723",
"g  c #472D22",
"h  c #6A3B24",
"j  c #683720",
"k  c #773E24",
"l  c #345318",
"z  c #7C4304",
"x  c #7A4208",
"c  c #784619",
"v  c #57422A",
"b  c #654429",
"n  c #7D4B22",
"m  c #7C4727",
"M  c #7B5835",
"N  c #774C2E",
"B  c #58722D",
"V  c #5B5A1A",
"C  c #013A41",
"Z  c #003740",
"A  c #88391A",
"S  c #89380F",
"D  c #953726",
"F  c #854807",
"G  c #98460B",
"H  c #884916",
"J  c #934715",
"K  c #8B5219",
"L  c #955817",
"P  c #AA500C",
"I  c #9D601F",
"U  c #884929",
"Y  c #97492A",
"T  c #84532B",
"R  c #885527",
"E  c #935D2B",
"W  c #98582A",
"Q  c #8A5934",
"!  c #935E34",
"~  c #9A5937",
"^  c #8C4A33",
"/  c #A85828",
"(  c #A55B36",
")  c #B75C35",
"_  c #AC5332",
"`  c #8C6238",
"'  c #9A6537",
"]  c #9D652B",
"[  c #A46429",
"{  c #A3633C",
"}  c #A76839",
"|  c #B86A39",
" . c #AC743C",
".. c #CB5809",
"X. c #D45906",
"o. c #E15E03",
"O. c #D66A06",
"+. c #E86704",
"@. c #FA6C01",
"#. c #F26E03",
"$. c #E87406",
"%. c #F67400",
"&. c #FA7401",
"*. c #F67A00",
"=. c #FA7D01",
"-. c #C4723E",
";. c #825C40",
":. c #B15A45",
">. c #9A6746",
",. c #927251",
"<. c #A96946",
"1. c #B46B47",
"2. c #AC7A4D",
"3. c #A87548",
"4. c #BB7C4B",
"5. c #B87848",
"6. c #A56D58",
"7. c #BA6E56",
"8. c #A57855",
"9. c #B37C51",
"0. c #B87A58",
"q. c #967666",
"w. c #B77962",
"e. c #C67A46",
"r. c #C57B58",
"t. c #CA6F4E",
"y. c #C27A6B",
"u. c #5A9034",
"i. c #629730",
"p. c #68AA33",
"a. c #718D4F",
"s. c #76BD41",
"d. c #7D8F69",
"f. c #79C144",
"g. c #F78101",
"h. c #FB8201",
"j. c #FC8A01",
"k. c #F8860A",
"l. c #F78E12",
"z. c #F29335",
"x. c #E6913E",
"c. c #85D538",
"v. c #BB824C",
"b. c #AC8258",
"n. c #B48253",
"m. c #BC8553",
"M. c #BC8955",
"N. c #BA875A",
"B. c #82BD5F",
"V. c #8F8A6D",
"C. c #B88B66",
"Z. c #87A766",
"A. c #C6844D",
"S. c #C48452",
"D. c #C58D55",
"F. c #CB8B55",
"G. c #C38D5A",
"H. c #CB8C5A",
"J. c #CA8257",
"K. c #D38D5B",
"L. c #D48A55",
"P. c #CC945C",
"I. c #C89258",
"U. c #D3945E",
"Y. c #D6995E",
"T. c #EB9B51",
"R. c #E8A25D",
"E. c #C58863",
"W. c #CC9663",
"Q. c #CD9963",
"!. c #C69468",
"~. c #D39462",
"^. c #D49C64",
"/. c #DB9B64",
"(. c #D49D6B",
"). c #DB9A68",
"_. c #CE8E72",
"`. c #E19E69",
"'. c #D7A26B",
"]. c #DCA46C",
"[. c #DDA96D",
"{. c #D8A065",
"}. c #DBA572",
"|. c #DCA974",
" X c #DAA677",
".X c #CCA174",
"XX c #E3A36B",
"oX c #E1AA6D",
"OX c #EBA66A",
"+X c #E4AD73",
"@X c #E5AA77",
"#X c #E6B175",
"$X c #E5B37B",
"%X c #E9B57B",
"&X c #ECB97E",
"*X c #89D64A",
"=X c #92E74D",
"-X c #A4F064",
";X c #9FCB72",
":X c #BE9585",
">X c #ADA297",
",X c #D59D86",
"<X c #DBAE89",
"1X c #E5B482",
"2X c #EBB583",
"3X c #E6B986",
"4X c #ECBB83",
"5X c #ECBD8B",
"6X c #E6B88B",
"7X c #F1BD89",
"8X c #E9BD92",
"9X c #F1BD92",
"0X c #E4AF86",
"qX c #CFB3A9",
"wX c #EEC18C",
"eX c #EFC186",
"rX c #F1C086",
"tX c #F2C48C",
"yX c #F4C88E",
"uX c #EDC292",
"iX c #EEC79C",
"pX c #F3C693",
"aX c #F5CA95",
"sX c #F5CC9B",
"dX c #F8CE9C",
"fX c #F5C897",
"gX c #F8D19F",
"hX c #F4CEA2",
"jX c #F8CFA3",
"kX c #F5D1A3",
"lX c #F9D2A4",
"zX c #F7D4AB",
"xX c #F7D8B7",
"cX c #EDC9AA",
"vX c #D7F6BD",
"bX c #F6DBC3",
"nX c #F9E3CA",
"mX c #FAEAD7",
"MX c #E2FEC4",
"NX c #FDF4E7",
"BX c #FEFFF9",
"VX c #FFEEE4",
/* pixels */
"& & & & & & & & & & & < & < & 1 = = = 1 = 1 1 & < = 1 1 1 < 1 1 < 1 < 1 < 1 < < 1 < = < = = = 1 = = = = & & & & & & & & 1 & & & ",
"& & & % & & & & & & & = = & = = = < = < < < < < < < = < 1 = < = < < < & < < < 1 1 1 1 < = = = = = = = = < & < & & & & & & & & % ",
"& & & & & & & & & < & & = & = = = & = = < = = < < < < 1 < < & & ; $   $ % & & < 1 = = 1 < 1 1 = & & = = < & & 1 & & & & & & % & ",
"& & & & & & = = < & & < = = < = < < < < = < < < < < < % O @ f ^ >.>.>.>.N f @   & = 3 1 1 = < = < < = = & & & = < & & & & & & & ",
"% & & & & & = & = = < & = = = < = < < = < < = = &   @ U 0. X9XhXzXzXxXbXxXxXqX7.f o % 3 < < < < < < = = = & = = & & & & & & & & ",
"& & & = & = & = = & = & < < < < < < = < < < < O f <. XjXzXzXhXhXlXlXlXzXbXbXmXNXnX,Xk o & < < = & < < = < < = = = < & & & & & & ",
"& & & & = & = = = < < < < < & < = < < < = & @ 6.cXbXxXcXsXpXpXsXdXdXdXlXxXxXnXnXVXBXVX_.q   1 1 < < & < & = < = & = & < & & & & ",
"& & & = & = = = = = & < < & < < < < 1 < * k ,XnXnXxXcXsXfXpXfXpXaXaXdXdXgXlXxXxXmXmXNXBXbX>.+ = < < < < < < = = = = & < & & & & ",
"& = = = = = = = < < < < & < < < < < < & j 0XbXxXxXcXsXaXaXtXyXtXyXaXyXyXyXyXaXgXxXnXNXNXBXBX_.+ & < < < < = < = < & = = & & & < ",
"& & & & & = = & < & < & < < < < < < 1 @ E.cXcXhXiXfXpXpXtXtXtXyXtXaXaXaXaXdXyXaXgXxXnXmXmXNXBXC.o = < < < < < < < < = & = = = & ",
"& < = = = < < < < < < < < < < < < 2 : ( 8X6X8XuXuXwXtXrXrXtXtXyXyXdXaXaXaXaXaXaXaXdXgXxXnXNXmXNX<.O < < < < = < < < & & = & & = ",
"= & = = & < & < < & < < < < < < < & h  X<X1X1X5XeXeXrXrXtXtXtXyXaXaXdXaXdXdXaXaXaXyXyXaXgXbXmXmXbXm * < < & < < < & < < = = & < ",
"1 & = = = = < = < = < < < < 2 < < 6 <.,X X@X#X%X%X&XrXeXeXtXtXpXdXdXdXsXgXaXaXaXaXyXaXyXyXlXxXbXmX<X0 = < < 1 < < & < & = & = = ",
"& = = = < < < < < < < 2 2 2 2 2 = f N..X'.oXoXoX%X4XeXeXtXtXyXaXdXdXdXdXgXdXdXaXdXaXdXaXyXaXcXzXcXzX^ % < < < < < < < < < = = = ",
"= = = < < = < = = 2 < < < 2 < 2 = N !.!.'.'.oXoX%X4XrXeXrXrXtXaXpXsXdXgXaXdXaXdXaXdXaXyXyXwXtXsXiXjXr.O < < < < < & < = < < = = ",
"= = = < < = < < < < < 2 2 2 < 2 - Q C.!.P.^.{.[.#X&X4X4X4X4XtXpXdXsXsXgXgXgXdXgXgXdXdXyXyXyXtXeX9XcX X0 < < < < < < < < = < = = ",
"= = < < = & < < < < 2 2 2 1 2 1 - ^ C.C.P.Y.^.].#X%X%X&X&XeXtXpXsXjXkXhXdXdXdXdXsXdXdXfXpXtXrXeX4XuX0Xh & 2 < < < < < = < & < & ",
"< = = < < < < < < < 2 1 2 2 2 2 6 ~ C.N.G.I.P.].oX[.#X#X%XeXwXuXsXdXjXkXkXdXkXlXkXgXdXdXdXyXrX4X%X6X6XU % 2 2 < < < < < < < < 1 ",
"= = < < < < < < < 2 2 2 1 2 2 1 6 ~ C.N.S.D.I.{.{.[.+X#X#X4XwXpXpXsXkXkXlXlXkXdXlXgXdXdXdXyXrX&X+X|.1X^ * < 2 < < < < < < < = < ",
"1 = < < < < 2 < 2 2 1 1 2 2 3 2 , ~ b.N.M.D.I.Q.{.[.oX#X%X&XwXpXiXsXfXsXsXkXlXlXlXlXjXfXaXtX4X&X+X[.1X~ * 2 1 2 < < < < < & < < ",
"= < = < < < < < 2 1 2 2 2 3 3 2 > R b.n.M.F.I.P.{.[.[.#X%X4XwXuXuXaXpXaXdXsXdXsXlXhXfXiXuXwX4X%X#X}.|.' : < 1 3 2 < < < < < < < ",
"< < < < < < < 2 2 1 2 2 3 3 3 3 > n 8.n.M.I.P.Q.{.[.#X#X4X4XwX5X4X3XwXtXuXpXaXiXsXfXuXwXwX4X&X%X#X'.|.<., 2 < 2 2 2 < < < & & < ",
"1 < = < < = < 2 2 2 2 3 3 2 3 3 1 m 8.b.M.P.Q.P.{.[.#X4X7XrXwXwX5X4X2X1X5X5XuXuXuXwX3X&X$X+X|.[.[.[.|.} : < 1 2 < 2 < < < < < < ",
"< = < = 2 2 < 2 < 2 2 2 3 2 3 3 1 k 8.b.I.Q.Q.(.'.[.%XeXrXtXwXwXtXaXdXuX8X5XwXuXwX4X3X1X$X%X%X%X$X[.}.{ , < 2 2 < 2 < < < & < < ",
"1 < = < < < 2 2 < 2 3 2 3 3 3 3 < h >.b.G.Q.{.Q.^.[.%XeX4X2X4X1X X$X5XsXhXiX5X5X3X3X3X5XpXfX4X%X#X$X@X{ > 1 3 2 < 2 2 < < < < < ",
"< < < < < < 2 2 2 2 2 3 3 3 3 3 , p >.b.N.!.(.W.Q.[.%X&X1X+X4.' ` n E N.1XfXuX3X1X3XuXaX$XN.M.}.+X|.+X( : < 2 2 2 < < < < < < < ",
"< = < < < 2 2 2 1 2 3 3 3 3 2 8 1.L.;.8.N.P.Q.P.P.[.oX{.E.' ! 6.9.8.T p  .|.uX3X1X3X1X1.i b U ! M.'.oX} 6 2 2 2 2 < < 2 < < < < ",
"< < < < < 2 < 2 2 2 3 3 2 3 1 m ) ~.Q.2.n.N.I.D.F.U.P.9.~ _ E.y.y.7.~ m p v.3X3X1X%X! u w._.1.T m 2.!.{ 6 2 2 2 < 2 2 < < < < < ",
"< < < < < 2 2 < 2 2 3 3 3 3 > / _ ~ oXD.9.N.M.S.A.5.1.' _ ,XV.u.a.>Xw.U m { ].6X5XN.p t.^ M 6.:.m ! 2.( 6 2 3 2 2 2 2 < < < < < ",
"< < < < < 2 2 < 2 3 3 2 3 3 6 _ J.<.S.I.n.n.m.v.A.5.~ p C.>Xp.MX-Xu.qX6.m ' }.tX5X' :.T B.*Xu.>X8.m ` R , 2 2 2 2 < 2 < < < < < ",
"< < < < < 2 < 2 2 3 3 3 3 3 7 ) 5.a ^ Y.n.n.v.r.A.P.!.1.qXV.=XZ.B *XV.,Xm ~ @XiX1X9.,.f.vX;Xc.d.qXi ^ U > 2 2 2 2 < 2 2 < < = < ",
"< = < < < 2 2 < 2 3 2 Z 3 3 7 t.1.A U I.n.n.v.S.L.L.9X8X_.q.p.*Xs.f.V._.<.} @XjX1X,X,.=XB l -Xd.:Xp { m 1 2 3 2 2 2 < 2 < < < < ",
"< < < < 1 2 2 2 3 2 3 3 3 2 8 | ~.r.' ~.m.2.m.F.U.`.).6Xy.t.b i.p.M 7._.!.S.%XhX5XK.6.u.=X=Xi.q.E.H.e.f 2 3 3 2 2 < < 2 < < < < ",
"< < < 2 2 2 1 2 2 3 3 3 3 3 8 / ).E.<.Q.m.3.m.P./.XX@X7X<Xr.) D D :.0.(.(.+X@X9X9XD.r.^ V B Q 7.0.(.5.g 1 3 3 2 2 2 2 < < < < < ",
"< < < < < 2 2 1 3 3 3 3 Z 3 5 Y H.}.9.m.m.3.n.U./.`.@X7X9X$XE.t.1.N. X5XuXXX/.7XdX~.E.J._ Y :.<.N.^.t.+ 3 2 3 2 2 2 2 2 < < < < ",
"< & < < < 2 2 1 2 2 3 3 3 3 < s -.Q.!.^.v.3.9.H.~.T.XXXX2X9XjX9X8XiXjXiX6XU.`.2XpX(.'.1X_.9.9.!.}.].| 6 3 3 3 3 2 < < 2 2 < < < ",
"< < < < < 2 2 2 2 2 3 3 4 3 3 5 A e.Q.{.W  .2.S.K.L.L.L.`.@X0X9XuXuX5XuX(.J.H.F.Y.| }.wX9X7X7X2XXX).( , 3 3 2 3 2 < 2 2 < < < < ",
"< < < < < 2 2 < 2 3 3 3 3 3 4 3 , U | / S ! 3.9.J.J.e.L.L./.`.XX@X X|.%XH.J r S a r M.3X0X0X@X`.K.r.U > 3 3 2 2 2 2 < < < < < < ",
"< < < < < 2 2 2 2 Z 3 3 3 C 4 3 3 5 @ 6 h Q >.5.e.e.e.e.L.K.).).(.}.[.M.b.3.>.m b } {.'.).(.~.H.4.} m < 2 3 3 2 2 2 < 2 < < < < ",
"< < < < < 2 1 1 2 1 3 3 3 4 3 4 4 4 C 3 d T ;.} | -.-.-.e.L././.].E.b @ + @ d v s v ` !.).^.~.J.1.( g < 3 3 3 2 2 < 2 2 < < < < ",
"< & < < < 3 < 2 2 3 3 3 3 3 4 C 4 4 C 4 8 U M ` } } | -.e.L.U./.W.s . + o o 6 o o o . f E.'.H.e.<.Y 6 2 3 3 2 2 2 2 1 2 < < < < ",
"< < < < < < 2 < 1 2 3 2 3 3 4 3 C 4 C C 5 U Q Q E } / | -.e.U.].2.+ @ s b h h f d 7 @ o M ^.S. .~ j < 3 Z 3 2 3 2 2 2 < < < < < ",
"< < < < < < < 2 2 2 3 3 3 3 Z Z 4 4 C C 3 h ! M R ] [ ) | e.U.{.>.o i m D A _ D p w @ + M P.4.{ Y 6 2 Z 1 3 2 2 2 2 < < < < < < ",
"< < & < < < 2 2 2 2 2 3 3 3 3 3 4 4 C C 3 f ~ ! T L I [ ) | L.^.m.>.1.>.7.^ a A Y c N s >.F.| W h = < 3 3 3 2 < 1 2 2 < < < & < ",
"< = < < < 2 2 2 < 2 2 3 3 3 3 3 4 4 C C 2 s Y ' R K L L [ [  .S.'.|.'.m.7.K.).r.:.<.{.M.I.e.~ J 6 2 3 3 3 2 2 2 < 2 < < < < < < ",
"< < < = < < < < 2 2 2 2 3 3 3 4 3 3 4 4 3 f W ` L c F F F L [ v.Q.}.{.D.<.J A p W n.I.F.4.E J s < 3 3 3 2 2 2 2 2 2 < < < < < 1 ",
"1 = < < = < 2 < 2 < 2 2 2 2 3 3 3 4 3 < f y 9 T L H x F x z K } v.{.5XuX1X3X X'.].].D.3.K G h - 3 3 2 2 2 2 2 2 2 < < < < < = < ",
"< < = < < < < 2 < 2 < 2 2 2 2 3 3 2 < J %.X w ! K K c t z z x K } v.'.uXjXdXkXaX4XQ.' H G i 5 2 2 3 2 3 2 2 < 2 < < < < & < & < ",
"& < < < & < < < < 2 2 2 2 3 3 2 2 , J h.P 9  . .K c K x t t z z F ] 5.Y.+X4X%XoXI.E H G g & 2 3 3 3 2 2 2 2 1 2 < < < < & < & < ",
"= = 1 & < < < < 2 < < < 2 < < 1 s P =.h.P n I.M.] n c c t 9 t z z F K I | v. .[ K P +.X.G p d 5 1 < 2 2 2 1 2 < < < < < < < & < ",
"& < < < < < < < < < < < < , g J $.=.g.j.k.v.Q.Y.M.] c x c t 9 t x z z z z F z F 9 z j.h.h.=.#...J d - < 2 2 1 < < < < < < < < & ",
"< & & < & < < < < < 1 6 h P #.=.g.g.j.j.j.l.T.{.{.D. .M c i t 9 9 t t t t t t R @ # j.=.h.=.h.h.=.#.P 6 & < < 3 < < < < & 1 & < ",
"& = & = < < & 1 & 6 A O.=.h.h.h.g.=.=.g.g.j.h.l.R.[.^.M.5.' n i e e e i c c n E f r j.=.g.h.=.=.=.h.j.O.j * = 1 1 & < < < = = = ",
"& = = & < = < * q ..=.h.=.=.=.=.=.=.=.=.h.g.k.g.j.z.+X|.P.I.M.' c c c c c T T E 0 F j.=.=.=.=.=.=.=.g.j.*.J , = < < < = & < = = ",
"= = = = = = & q o.=.%.%.*.=.=.*.=.=.=.=.h.h.h.j.j.g.k.T.|.'.Y.'.D.` n n n T E c X O.=.=.=.=.=.=.=.=.=.=.h.h.P > & = = < = < = = ",
"& = & < = & q +.=.%.*.*.=.=.*.*.=.=.=.=.=.*.=.g.g.g.=.=.l.R. X'.+XP.` T U T R i t j.=.=.h.=.=.=.=.=.=.=.*.=.=.J * = < & = & & = ",
"& & & & & 0 X.=.&.=.=.*.=.*.*.=.=.=.&.=.*.=.=.=.h.h.h.h.=.=.z.1X8X+XK.5.3.3.9.3.O.j.h.h.=.=.=.=.=.=.=.=.=.&.=.@.u & = = = = & = ",
"< < & & : P =.%.*.=.=.*.=.=.=.=.=.=.=.=.*.=.=.=.=.=.=.=.h.=.&.l.OX$X`.`.).XX}.x.=.=.=.=.=.=.h.=.=.*.=.k.=.&.&.&...@ * & & = & = ",
"& & & % u @.*.%.*.=.*.=.=.=.=.=.=.=.=.*.=.=.=.=.=.=.=.=.h.=.=.=.=.z.OX@X@X0XT.=.=.h.h.=.h.h.=.&.&.&.=.=.=.&.&.&.@.G 6 > & = < & ",
"% & % O ..=.=.=.=.*.=.=.=.*.=.=.*.=.=.=.=.=.*.=.=.=.h.=.=.=.h.=.h.=.k.z.T.T.k.=.=.h.=.=.h.=.=.&.@.@.@.&.&.&.&.@.&.o.u , * & & & ",
"& % % q @.=.=.*.*.=.*.=.*.*.*.*.=.=.h.=.=.=.%.%.%.&.=.=.=.=.=.=.=.h.=.=.=.=.=.=.h.=.=.=.=.=.&.@.@.@.@.@.&.&.=.=.&.&.G @ * - & & ",
"& & $ G =.=.=.*.%.&.*.&.%.%.&.&.*.=.=.=.=.=.%.&.%.%.%.*.*.=.h.=.h.=.=.h.=.=.=.h.=.h.=.=.=.%.@.@.@.@.@.@.&.=.=.=.=.=.X.0 & & & & ",
"* - 0 X.=.=.=.=.*.*.*.*.%.*.%.*.*.=.*.=.=.*.*.%.%.*.=.=.*.*.*.=.=.=.=.=.=.=.=.h.=.=.=.=.=.%.*.=.&.&.&.*.=.=.=.=.=.=.+.w % & & & ",
"@ e G #.k.=.h.=.=.=.=.h.=.=.h.=.g.=.=.h.h.=.h.=.h.=.=.=.=.h.g.=.g.=.=.=.h.=.h.=.=.h.=.h.=.=.g.=.=.k.=.h.=.h.=.h.=.=.%.y % % & & "
};
