/* XPM */
static char *e622d1402c724d4d884d2abbca3b1c49eN3OqCMJYs1VRXM1[] = {
/* columns rows colors chars-per-pixel */
"64 64 227 2 ",
"   c #3C0203",
".  c #3D0A0C",
"X  c #3A070A",
"o  c #3E1010",
"O  c #450003",
"+  c #4A0104",
"@  c #4C070A",
"#  c #440B0D",
"$  c #4A0D0E",
"%  c #470708",
"&  c #520305",
"*  c #5D0405",
"=  c #55060A",
"-  c #5C0609",
";  c #54090B",
":  c #5C0A0A",
">  c #520807",
",  c #450E11",
"<  c #4C0E11",
"1  c #520D11",
"2  c #5E0E11",
"3  c #451112",
"4  c #4C1214",
"5  c #4B1619",
"6  c #4C1C1A",
"7  c #4A1A19",
"8  c #521415",
"9  c #5C1314",
"0  c #541619",
"q  c #5A161A",
"w  c #551A1B",
"e  c #5B1B1D",
"r  c #47110F",
"t  c #630405",
"y  c #610609",
"u  c #6C0609",
"i  c #640B0C",
"p  c #6B0B0D",
"a  c #680507",
"s  c #730B0E",
"d  c #640E10",
"f  c #6C0E11",
"g  c #740D12",
"h  c #790E13",
"j  c #7E0F18",
"k  c #641213",
"l  c #6C1214",
"z  c #6D1519",
"x  c #631B1C",
"c  c #6B1C1D",
"v  c #651518",
"b  c #741315",
"n  c #7B1316",
"m  c #73161A",
"M  c #7C1519",
"N  c #74191C",
"B  c #7C1A1D",
"V  c #6E100E",
"C  c #54221F",
"Z  c #5D211E",
"A  c #4F221F",
"S  c #67211F",
"D  c #73221F",
"F  c #5D1D21",
"G  c #571F20",
"H  c #611E21",
"J  c #761B21",
"K  c #7B1D22",
"L  c #771722",
"P  c #542321",
"I  c #5D2222",
"U  c #552A25",
"Y  c #5B2A25",
"T  c #5C2D2A",
"R  c #572E2A",
"E  c #5F332E",
"W  c #4F2320",
"Q  c #632325",
"!  c #692325",
"~  c #642926",
"^  c #662429",
"/  c #6A262B",
"(  c #642C2A",
")  c #6C2A2D",
"_  c #682D27",
"`  c #752124",
"'  c #7D2225",
"]  c #7E232A",
"[  c #712A2F",
"{  c #7D2D2B",
"}  c #64332E",
"|  c #6B332E",
" . c #6E382E",
".. c #6E2C32",
"X. c #6E2530",
"o. c #722C32",
"O. c #752F39",
"+. c #653631",
"@. c #6E3532",
"#. c #653A33",
"$. c #6C3C35",
"%. c #6C3F38",
"&. c #733235",
"*. c #723D36",
"=. c #763339",
"-. c #7B353C",
";. c #763A3A",
":. c #7B3A3E",
">. c #7C3434",
",. c #73342F",
"<. c #6C423A",
"1. c #6F493E",
"2. c #73453C",
"3. c #7B433C",
"4. c #74463C",
"5. c #7D3B41",
"6. c #7E4541",
"7. c #744C43",
"8. c #7B4C43",
"9. c #724741",
"0. c #7D5146",
"q. c #7D5449",
"w. c #7B5548",
"e. c #81141B",
"r. c #811A1E",
"t. c #841317",
"y. c #831D22",
"u. c #881E26",
"i. c #842225",
"p. c #882127",
"a. c #83252B",
"s. c #8A242B",
"d. c #842A2D",
"f. c #8B2A2E",
"g. c #90262E",
"h. c #90282F",
"j. c #80322D",
"k. c #862B32",
"l. c #8D2C32",
"z. c #862B35",
"x. c #922D35",
"c. c #952F39",
"v. c #902630",
"b. c #8E3133",
"n. c #843834",
"m. c #8D333B",
"M. c #8D3E3A",
"N. c #853A35",
"B. c #923236",
"V. c #95333A",
"C. c #9A343D",
"Z. c #953A3D",
"A. c #983B3E",
"S. c #8C423C",
"D. c #82453C",
"F. c #823D44",
"G. c #863E49",
"H. c #9D3642",
"J. c #953C43",
"K. c #9B3B43",
"L. c #953B46",
"P. c #A13A46",
"I. c #A13D48",
"U. c #814442",
"Y. c #844C45",
"T. c #854C49",
"R. c #894D4B",
"E. c #8B4547",
"W. c #924343",
"Q. c #934B45",
"!. c #994945",
"~. c #954A4A",
"^. c #9B4D4A",
"/. c #9A4349",
"(. c #835346",
"). c #8D5044",
"_. c #84544A",
"`. c #8B544C",
"'. c #835A4D",
"]. c #8C5A4E",
"[. c #95524B",
"{. c #9B534E",
"}. c #945A4F",
"|. c #98544B",
" X c #8E4D52",
".X c #984C53",
"XX c #8E5351",
"oX c #865F52",
"OX c #8D5D52",
"+X c #925653",
"@X c #9D5651",
"#X c #935C54",
"$X c #9C5C53",
"%X c #98565E",
"&X c #965C58",
"*X c #985D5B",
"=X c #97565E",
"-X c #A4414A",
";X c #A0504F",
":X c #A34D56",
">X c #A15554",
",X c #A15B55",
"<X c #A4525A",
"1X c #A35E58",
"2X c #866052",
"3X c #8C6254",
"4X c #8F6959",
"5X c #936255",
"6X c #9A6256",
"7X c #956559",
"8X c #9B655A",
"9X c #956A5B",
"0X c #9C6B5D",
"qX c #9A715F",
"wX c #A26A5D",
"eX c #A1635A",
"rX c #9E5C62",
"tX c #9E6E61",
"yX c #9D7162",
"uX c #A26B62",
"iX c #A27464",
"pX c #A47866",
"aX c #A57A69",
"sX c #A97C6A",
"dX c #A87767",
"fX c #AB806E",
"gX c #AB8270",
/* pixels */
"@X{.>X@X>X>X>X>X>X,X>X$X$XeXtXtXiX8X].+XOX+X&X&X&X6X8X&X&X&X+X+X+X+X%X+X+X@X+X+X+X+X$X&X&X0XpX0XiXpX8X|.|.|.^.|.[.{.^.@X^.{.{.@X",
"H.P.P.I.I.I.P.P.P.H.H.H.P.H.$XpX}.! ) ) / ) ) [ [ [ o.=.-.n.F.F.G.G.E.G.G.F.F.N.-.=.O.) / ! }.iXiXQ.d.b.f.f.f.h.x.x.V.V.H.H.H.H.",
"K.K.I.I.K.K.B.m.c.H.P.H.P.s.~.sX;.8 I w I ~ ! ~ / / / / o.o.-.O.n.-.-.-.-.-.:.-.O.) _ / [ q ) pX0Xa.d.f.f.b.f.b.l.k.k.b.B.C.V.J.",
"V.x.c.V.C.l.k.x.V.V.c.l.C.y.W.gX| 8 I Q ^ ^ ^ / Q _ / / [ [ [ o.o.o.X.o.o.[ o.X.[ ) ) ! / x ) yX6Xb ` ` ' a.a.f.f.a.f.f.l.l.x.x.",
"x.v.l.l.x.x.c.c.x.c.x.a.k.y.M.sX,.$ Q e e Q H ~ Q ! ! ! / / ` ) / H ^ [ [ [ X.[ / / / / / e Q aX8XV N D B ' i.i.s.s.p.s.s.l.f.f.",
"s.a.J s.s.v.g.v.g.s.g.g.k.e.S.sX*.$ e e e F H x H Q ^ ! ! ! / / ! ! / / H H x Q ! ! Q S S e Q pX5Xi b D B r.B i.B y.y.i.i.p.p.p.",
"u.K y.u.u.u.u.u.u.s.p.p.p.j Z.gX4.$ e w q q w I x x I H ^ H ! H ! H H F F e e e e Q e S w 0 Q pX6Xi V m b b z m B B r.y.y.u.u.u.",
"r.y.y.y.y.y.u.y.r.r.u.r.e.g 8.fX3.$ 8 4 7 4 q q e e e e 8 e H e e F e 0 0 5 0 0 w 5 4 e e 8 Q aX0Xi i V b b V l n M b n m M r.M ",
"t.e.M M e.t.e.M e.t.e.g q #.OX5X_.# 4 $ 3 8 8 8 8 8 < 3 , # # , , 3 8 8 4 3 8 4 # . . , $ # Y yXiXx t y u p s s s g h h b h n j ",
"e e e F F H e x v H Y #.q.&XY.(.7X6 5 4 3 4 4 3 4 3 3 3 7 7 7 7 5 5 5 4 7 7 7 7 6 P W U R #.2X).5X4.1 9 k 9 k v k v v x x x e x ",
"9.7.8.w.q.q.q.oXoXOX3X5X].).`.`.}.4X_._._.q._.0.q.q._.w.9.3.6.8.0.8.0.oX2X2X3X9X9X7X9XtX7X7X].(.(.].'.w.w.w.7.7.7.7.7.7.7.7.1.4.",
"sX8XY.6.3.T.R.`.`.`.R.T.T.T.T.T.XX9X+XR.R.`.E.T.R.R.XXXX#X5X].Y.T._.#XwX|.Q.[.Q.[.[.@X+X[.S.Q.Q.Q.S.!.{.^.!.^.!.!.!.Q.!.^.{.wXaX",
"`.8 , $ < 4 w F F F ^ ..&.&.=.=.-.=.5.5.O.=.O.o.o.) ) X./ &.&X`.`.].N.' ' a.B V g B i.f.b.B.Z.A.K.K.L.K.K.Z.B.x.s.y.M g s g M.pX",
"~ 4 F H F F e F I Q Q Q ) @.O.&.&.&.=.:.:.=.O.@.O.o.o.o./ q ;.dX5XB N a.d.k.d.f.f.f.f.f.f.B.B.B.B.B.B.b.f.l.l.f.b.b.d.d.f.n ' iX",
"~ 0 F w F G e e F F F F ^ / ) ..o.o.&.o...) ..) ) ) X.[ ) e ..aX[.i K { ' a.a.i.a.' ] a.f.s.s.f.f.i.' f.f.f.f.f.f.a.s.f.f.i.D iX",
"Y 8 w w w w F e e w e F F H I Q ~ ^ ^ ^ ^ ! ! ^ / / ^ / / e ) yX).a N N ' r.i.i.i.i.' i.i.a.p.s.i.` a.s.s.p.p.s.p.s.i.p.s.e.B iX",
"Y < w w 0 0 0 0 w w w Z e Z F F F I H H Q Q ^ ^ ^ ^ Q ^ H q _ sX).a N N r.D r.r.B i.i.y.i.i.y.i.K p.i.i.i.i.u.i.i.K J y.i.n B iX",
"( $ 8 8 0 0 w 8 7 8 9 8 0 w 8 w w e F H x F H e H H H H H 8 ( sX).p N n B M M B B B e.r.r.r.r.r.r.y.y.y.r.i.r.y.y.y.N B K g K yX",
"| $ 4 4 4 4 4 8 4 8 8 8 8 8 8 4 8 4 w 0 w F e e e F F e e q ( sX[.u n V b M m M b N b M e.B e.B r.M r.r.r.r.r.r.r.M r.r.m h { pX",
"*.% 4 $ , , 1 < 1 1 $ $ 1 4 3 $ 3 , # , # 8 q q q q w q q 1 @.aX3Xi s s s h g g g h h h j n j n t.n j t.t.e.e.t.t.t.e.j n p 8.aX",
"3XU C C w w A 6 6 6 6 7 w 6 w U R R R P P W G P P P C P U U '.tXqX4.Y S x x v c c x c c H c ^ ~ ^ ~ Q Q Q Q S S S ! S Q ( <.0XpX",
"eX+X`.[.`.`._.`.).`.`.].2X3X'.3XOXOXXX5X5XOXOXOX].OXOX#X5X0XiXiXiXyXyX4X3XOX3X2XOX2XoXOXoX4X3XOXOX].9X5X5X3X3X3XOX2X3X5X0XiX0X0X",
"I.-X-XA.C.C.c.c.c.V.V.C.W.,X5XY.OX~.L././.I..X:X:X:X:X<X<X<X<X<X%X~.Q.~.~.!.E.W.W.W.W.J./.~.8X#X_.#X[.b.b.b.B.B.Z.Z.A./.K.K.K.-X",
"l.l.s.p.p.y.p.p.u.p.u.y.y.e.[.7X+Xa.z.z.m.F.m.V.L.L.L.L./.L./.L.L.] L N L L L J L L L J m g d.3XOXM.b n b n n N M r.y.y.a.s.f.x.",
"N B u.u.K u.u.y.u.u.u.y.u.h N.sXE.m ] ] ] a.] ] k.z.k.k.z.z.k.z.a.K ! ] a.] k.] d.] k.a.k.K N 5X6Xb b N N z N B B y.B y.y.r.y.y.",
"y.i.y.K B K u.y.y.y.y.B r.g j.gXn.b K K K K K ] K ` ] ] ] a.a.] K J K K K K K K K J c L J K N uX|.p N b l b M M M M B B B y.y.y.",
"e.r.r.r.r.y.y.r.r.B B e.B s >.aX[.f L N m m N N v z z L J ` K N L m N N N N J m N N z v J L z tX5Xa b l b n n b n n M M B M M r.",
"B B e.r.M M M M M M M M n s j.aX8Xp d z l z b l z l l z b l l l f z l l l l b l l l l b l l d 8X5Xp V b b V b l l n n b n n M e.",
"b n b l d l l b M n n n n u j.fX).* : i p p p i p i i p i i p i p p i i i d i : i i p i i i k 0X0Xi p V V l V l g b g b n n M l ",
"d p d i i d d i i i d i p a 3.0X3.& @ > ; > : * : : i ; > > @ > ; - : : : > > - * > : : : * 2 0X7XV a i i V f s V V b p i d i ; ",
"y y y : y * * * y * - * * q 7X`.Y.+ + + + + + + + + + O O           O O O O + O #   O + + O +.5X5XS t i i t u u u s t t t * * y ",
"~ ~ T } T Q Q Z I Q Q Y #.'.OX3.5X4.Y T Y Y Y C C Z P C C Y E E T Y C C P P R E <.#.E T C <.7XY.(._.} ~ _ ~ Z Q S Q Y S ~ ! Q Q ",
"0XqXyXyXuX9X9X9X5X7X9X9XaX&X_.&XuXiXiXuX0X0XtX*XOXXXOX&X7XyX0XOX`.7XyX8X#X}.}.}.$X$X0X0XtXiX8X}.#XwXwX0X0X9XqX0X0X0X8XwX8X8XiXiX",
"yXuX0X`.T.D.U. X X+XrX*X&X7X*XrX=X%X%XrXrXrX X5.-.-.O.o.o.:.#X3.3.5X|.f.f.x.B.B.V.C.c.B.b.B.B.x.x.x.c.K./././.A.K.C.B.g.y.r.m.iX",
"0X&.) ) ) ....) O...=.5.F.F.5.5.F.F. X%X XF.o.o.o.../ ..) F U.].'.).b B B.f.B.B.B.B.B.x.x.x.c.x.c.V.x.V.H.K.C.C.V.x.x.f.d.s.e.!.",
"_.8 F I I F F Q I ^ ^ ^ ..-.5.5.5.O.-.-.O.[ o.o.../ / ) ) ^ =.5X}.m p a.' a.d.f.f.f.f.x.x.x.c.B.V.B.z.z.l.C.c.C.C.V.c.C.l.l.s.Q.",
"*.4 x w w e I I ^ ^ ^ H ^ ^ ^ / / ) ) ) X.) o.) ) ) / / ^ H ) yX).t N i.B i.s.a.p.s.f.f.f.h.h.l.l.x.l.a.a.a.k.x.x.x.l.l.l.l.y.`.",
"| 4 w 5 w q w e F F F ^ Q F ^ ^ ^ / / / / / / ^ ! ^ ^ ^ F F @.sX}.* m D D r.i.i.i.i.i.i.a.s.s.s.s.s.a.K K K K a.s.s.s.s.s.s.] 8X",
"| 4 0 4 w q q w e e F F Q G H Q H / ! H ^ ^ ^ ^ ^ H H F e q T.sX7X: l N M D M B B i.B N r.i.' u.p.p.p.K L L J L N L N y.p.i.K wX",
"| $ 0 8 0 8 8 w w F q e w x x Z H H H H H H x H H F e F w 8 8.0X3Xk V k b m b n n B M B B z M K B N N z v L z N m z z m B b b }.",
" .$ 4 3 8 8 8 8 8 0 8 8 8 e e q F H F e e F F e x w q w w 1 _ OX(.S t k V b b b b n n n M e.n l k k k k z f l l l d d f l f v 9X",
"4.# # $ , $ $ @ $ 1 $ r 4 8 8 q q q 9 8 q q q 8 8 8 w < 8 $ $.0X].3.& y y a y i u p p s i i i - - = - : : 1 1 @ ; < 1 @ ; @ 9.dX",
"tX8.7.1.<.<.<.#.#.#.#.} ( ( } ( T T } +.} } } @.#.#.#.%.*.2.3XY.Y.5X8.$.*.<.%.*.2.2.4.4.4.<.*.$.@.@.$.$.9.2.4.*.2.0.8.8.8._.iXdX",
"&XeX1X1X1XeX$X$X,X$X6X8X0X5X_._.`.XXOX3X#XOXOX#X#X&X&X7X8X0X7X0X5XT.+X}.XX+X+X#X&X5X&X&X5X0X0X].OXOX0X6X#X].`.}.0XiXwX0XuXuX6X8X",
"f.s.s.a.s.h.V.x.h.s.p.y.f.}.OXY.5X6.;.;.:.;.5.:.5.5.5.5.:.:.F.5.5.-.o.X.X./ / / / o.O...) O.+X].Y.OX[.s.Z./.Z.W.J.Z.K.K.K.Z.V.l.",
"l.l.V.V.V.V.B.B.m.B.f.f.M r.#X5X6.G / Q Q ^ ^ ^ ^ ..) ..o.@.) ^ I I T / ) ......) ) ) / ) F =.5X_.8XB B b.B.B.V.Z.Z.A.Z.V.B.m.c.",
"d.' a.f.f.h.f.f.l.f.d.a.f.s M.9X@.4 F w w F F F e F H ^ ^ ^ ~ I F F ^ ^ / / / ) / ! ! / ^ H @.OX5Xj.y ' D i.a.i.f.a.f.f.f.f.f.l.",
"s.s.i.s.f.s.a.f.p.a.i.' a.n n.5X) < w 0 0 w w e e F H I e H Q ^ ^ ^ I ^ ^ ^ H Q ^ ^ ^ H I F ^ OX].y V ` N D i.i.i.a.a.p.a.a.p.p.",
"i.i.i.r.i.i.i.y.i.i.i.B i.g n.].) , 4 5 4 3 4 8 0 w 0 0 0 w w e H H Q Q Q H H H Q H Q I I q S 0X#X* l N N B D B ' r.i.B D K i.y.",
"B B r.B B B B B B M B M D s >.0X( $ 3 $ 4 4 4 4 4 4 5 4 4 r 3 4 w e e F F F F G F e e F F 8 ~ aX5X* d N m l N M N M B N e.B B B ",
"M M m b m b n b b n m b b a D.fXT # 3 r , 3 3 3 3 3 4 4 4 4 8 4 5 e e q e 0 4 0 q q q q w $ 3.dX8X: i k l l z l l b m b b n b n ",
"V V i i s s s V V g V V p 9 5XiX4.X , # . . . r $ # % X X X . X # $ < 8 8 8 w q 0 8 8 , 4 # @.iX7X: * i i i i p p V V V V s s b ",
"i i k k e e k i i 2 : i 9 '.yX0XtX#.3 r # # # # % . o 7 6 6 A A 6 6 6 6 5 5 4 4 4 3 3 3 $ # Y iXyXZ & ; : - - * : y y y 2 2 e 9 ",
"0.oX2X3X4X9X4X'.w.q.'.'.4XfXpXpXpXaX5X'._.q.q._.'.2X5X8X9X9X7X8X5XOX].'.3X7X3X2X'.]._.(._.q.OXdXpX3X_.8.8.8.8.8.8.8.8.8.'.'.'.'.",
"iX{.{.^.^.!.^.;X^.;X;X^.^.{.|.|.{.@X1X,X1X,X>X{.,X;X,XwXaX7X(.`.].0X#XT.T.6.3.;.3.T.T.T. X9X5X`.}.+X&X*X*X*X#X*X&X+XE.T.`.8XpXpX",
"W.b s s b t.r.a.s.x.B.V.C.C.C.C.V.C.c.x.s.u.y.y.u.c.c.x.Z.#X`.Y.OX_ w 0 0 0 G F ^ ) ..=.5.o.5.5.-.:.5.5.&.......o.H e F x q Y.dX",
"d.p M N z M i.r.r.i.y.i.i.p.s.f.f.s.s.s.p.s.s.p.p.s.v.v.s.s.[.5X3.  6 F I F Q I Q ( &.=.&.&.&.=.=.;.=..._ ) ) / / ../ / ) F ( iX",
"D V B D b N B B B B B y.K y.y.y.y.p.u.y.K y.u.u.a.u.u.y.u.M Q.pX .% w I e G G F Z Z Q ~ ( ) ........^ ^ / / / ~ ! ^ ^ ^ ( F ^ uX",
"D p b b M M n M B B B B B B M r.y.r.r.r.y.y.y.y.y.y.y.B K h S.pX| % 8 w 0 G w e w e e Z F Q Q ^ ~ H ^ Q Q H Q Q ^ ^ H ^ Q e Y iX",
"D p m l V l n M n M M M e.r.M B e.r.r.r.r.r.r.r.r.y.y.r.m h M.fX| % 8 w 0 0 w 0 w w 9 C q e w e e H F F F H Q Z F F F F F q F iX",
"D * i V i l b b b n n n n M n M M M M M M M M M M B M e.r.g M.fX@.% 8 8 8 0 8 0 8 8 w 8 w 8 8 8 4 w e e Z e 0 e Z e e q w 8 Q iX",
",.t i V V V s V g g b b b n n n n n M n M M M M M j n n M s S.gX$.% 4 8 4 8 8 8 1 8 8 8 8 8 4 4 4 8 q w 9 8 8 w q 0 0 q w ; ~ pX",
"2X; : u u p u s p s s s p s g s g g h h h h n h h h h h n i ).fX4.% 3 $ $ $ , < 4 r r 4 4 4 4 8 4 1 4 8 8 8 1 1 8 1 4 4 8 % } sX",
"pX9.Y Z x x S H x x S S Q S ~ Q S c c c c c c c c c c ! Q #.9XdX3XU P P C W G G C C Z C U C R Y C C C w w C C w C C F C C C 0.aX"
};
