/* XPM */
static char *_e16b64c95d44f04c87b14438cc2d50fMFg1dnFyZJg4zfmP[] = {
/* columns rows colors chars-per-pixel */
"64 64 220 2 ",
"   c #794F3F",
".  c #764B3B",
"X  c #7C513E",
"o  c #75503D",
"O  c #774D44",
"+  c #765244",
"@  c #7C5344",
"#  c #7B5945",
"$  c #74544A",
"%  c #7C554C",
"&  c #765B4F",
"*  c #7E5A4C",
"=  c #765D52",
"-  c #7D5C53",
";  c #7C5B55",
":  c #7D6155",
">  c #7E6358",
",  c #824F3D",
"<  c #84513E",
"1  c #854F43",
"2  c #835444",
"3  c #8A5545",
"4  c #835947",
"5  c #8B5846",
"6  c #83564C",
"7  c #8A564C",
"8  c #845A4C",
"9  c #8B5C4D",
"0  c #935A45",
"q  c #945C4C",
"w  c #995E4C",
"e  c #905648",
"r  c #845751",
"t  c #845C53",
"y  c #8B5D53",
"u  c #845E59",
"i  c #8D5D59",
"p  c #8A5551",
"a  c #925E52",
"s  c #995F51",
"d  c #925E5B",
"f  c #85614F",
"g  c #8D604D",
"h  c #93604D",
"j  c #9C614E",
"k  c #846254",
"l  c #8C6254",
"z  c #8E6957",
"x  c #84645A",
"c  c #8B645B",
"v  c #856A5D",
"b  c #8C6A5D",
"n  c #936354",
"m  c #9B6453",
"M  c #956957",
"N  c #996956",
"B  c #93655A",
"V  c #9B665A",
"C  c #936A5D",
"Z  c #9A6B5C",
"A  c #99725F",
"S  c #96715E",
"D  c #A0634E",
"F  c #A16655",
"G  c #A66957",
"H  c #A2665B",
"J  c #A36B5C",
"K  c #A96D5D",
"L  c #A4725F",
"P  c #AB715D",
"I  c #8C6661",
"U  c #876B62",
"Y  c #8C6C62",
"T  c #946661",
"R  c #936C63",
"E  c #9B6C62",
"W  c #966E69",
"Q  c #9F6D69",
"!  c #8C7266",
"~  c #8E7369",
"^  c #947264",
"/  c #9B7365",
"(  c #967967",
")  c #94746A",
"_  c #9B746B",
"`  c #947A6C",
"'  c #9C7B6D",
"]  c #9E7670",
"[  c #967C70",
"{  c #9C7C72",
"}  c #947771",
"|  c #A46D62",
" . c #A96F62",
".. c #A56E69",
"X. c #A37365",
"o. c #AB7364",
"O. c #A37B67",
"+. c #AC7967",
"@. c #A3756B",
"#. c #AC756B",
"$. c #A37A6C",
"%. c #AB7C6D",
"&. c #B07464",
"*. c #B3776C",
"=. c #B27C6D",
"-. c #AD7671",
";. c #A47C73",
":. c #AC7D72",
">. c #A57E78",
",. c #AA7F78",
"<. c #A07773",
"1. c #B37D74",
"2. c #B67C74",
"3. c #9D826E",
"4. c #978072",
"5. c #9D8275",
"6. c #9E8378",
"7. c #9F8878",
"8. c #A5816D",
"9. c #AA816E",
"0. c #B3816E",
"q. c #B88067",
"w. c #A48274",
"e. c #AC8274",
"r. c #A58A76",
"t. c #AB8A76",
"y. c #A4857A",
"u. c #AB847B",
"i. c #A58A7D",
"p. c #AC8B7C",
"a. c #B38374",
"s. c #BB8476",
"d. c #B38976",
"f. c #B4857B",
"g. c #BB857B",
"h. c #B38B7D",
"j. c #BA8B7D",
"k. c #BB8B77",
"l. c #AD917D",
"z. c #B4917E",
"x. c #BA937E",
"c. c #C1877A",
"v. c #C48B7C",
"b. c #C98D7D",
"n. c #C38875",
"m. c #C1927F",
"M. c #CC917F",
"N. c #AF8481",
"B. c #A78981",
"V. c #A68A80",
"C. c #AD8E85",
"Z. c #AC8C82",
"A. c #A58681",
"S. c #B18582",
"D. c #BD8581",
"F. c #B48D83",
"G. c #BC8D83",
"H. c #B78E88",
"J. c #B98F89",
"K. c #AD9186",
"L. c #AD9284",
"P. c #AF948A",
"I. c #B49384",
"U. c #BB9384",
"Y. c #B59986",
"T. c #BC9986",
"R. c #B49288",
"E. c #B69589",
"W. c #B4948A",
"Q. c #BC958A",
"!. c #B5998B",
"~. c #BB9A8C",
"^. c #BD9C92",
"/. c #B99990",
"(. c #BEA28D",
"). c #BCA193",
"_. c #B5A294",
"`. c #C28D83",
"'. c #C88E83",
"]. c #C28F89",
"[. c #C48B87",
"{. c #C29384",
"}. c #CA9384",
"|. c #C29A86",
" X c #C89987",
".X c #C3958A",
"XX c #CB958B",
"oX c #C39B8D",
"OX c #CB9B8C",
"+X c #D0968F",
"@X c #D29A8D",
"#X c #D09583",
"$X c #CB9691",
"%X c #C39D93",
"&X c #CC9D92",
"*X c #CC9F99",
"=X c #C69895",
"-X c #D29C94",
";X c #D49C95",
":X c #C1A28D",
">X c #D0A18D",
",X c #C2A293",
"<X c #CBA294",
"1X c #C4A499",
"2X c #CCA49A",
"3X c #C4A99A",
"4X c #CBAB9C",
"5X c #C8A997",
"6X c #D2A394",
"7X c #D9A297",
"8X c #D3A49A",
"9X c #D3A99B",
"0X c #DAAA9E",
"qX c #DBA49B",
"wX c #CDB09E",
"eX c #E0A698",
"rX c #CDADA0",
"tX c #D7ADA2",
"yX c #DBB1A5",
"uX c #E0AFA3",
/* pixels */
"8 k @ $.$.% y 8 f g 8 X / d.@ f 4 4 9 8 X 9 e.l 5 l M 9 n g 4 0.Z 8 l l y l y r / ,.8 b t y k c t r A.t - - t u - - u y.c i c R ",
"* * % ) / - 8 t @ * t % / ' # f t % 8 8 l z w.C z 8 4 8 8 l 8 / S 8 8 8 t l t k b $.c C t x c x x u { I - ; $ ; - u > ) i - % u ",
"A.A.i.!./.K.K.V.!.P.C.F.^./.u.Z.u.P.W.u.E./.%XQ./.R.R.1XR.~.E.^.Y.z.I.r.,XE.L.I.E.~./.Y.Z.!.!.Z.C.K./.P.L.V.V.P.6.7.6.L.B.6.y.A.",
"} ) ) ) } } ) Y !.{ I U ) Y x b - >.B.k x Y U b c I ^ R.R Y Y R R ! ( b I.w.b ( b v Y x b { ` x U U x U ! U ~ i.! ~ ! } 6.{ { 6.",
"% % @ % @ 8 8 @ e.l   @ 6 4 @ @ . Z O.  X @ X @ @ 8 l 9.9 8 4 4 @ 6 t 6 ;.C % r r % r 6 t W T % % % $ $ % % - ) - ; % % - % u t ",
"' $./ $.$.' $.' T.e.$.O.%.$./ O.@.d.j.O.%.$.e.%.%.O.$.j.O.9.X.O.-.@.;._ G.f.@.;.:.u.>.>.,.S.Z.>.] ] >.] ] _ ] Z.W ^ I ) T I I T ",
"Z.C.i./.^.i.H.C.E.p.F.u.I.^.w.e.u.w.w.e.h.h.&XF.F.p.F.F.U.I.p.=XH.w.u.e.p.p.u.u.Z.Q.] w.' y.{ { ] ) !.{ { 5.5.i.B.V.B._.B.Z.C.C.",
"; U ; } ` & x ; ; & > $ W y.; % % - % t - c Z.x - - b - x c - y.) - x x t k x - ) { $ : - - = $ & $ { = $ = = = = : > 5.> > > x ",
"U U > 5.y.U ~ Y Y W b R { C.W ~ W c k R ^ R Z./ R c ^ x Y ^ v u.] C c R Y b Y b ' y.x Y Y U R b x b i.v v U x > > > > i.U > > > ",
"W.!.W.1X1X!.^.~.%X/.F.I.Q.Q.h.Q.I.|.OXh.G.I..XI.Q.p.Q.%XF.F.F.Q.Q.I.F.F.%XQ.p.F.F.%XN.F.F.~.^.F.Z.p.~.p.Z.Z.Z.!.L.L.B.!.6.Z.P.P.",
"z b z z c c M l d./ 3 l 9 9 6 q 5 o.0.5 h N 5 Z B 9 E k.E Z Z n B T B y f.E y n y T B i y <._ r y y 8 t t k b ] - Y c I c I W I ",
"8 8 f 8 4 8 8 9 d./ 2 g 9 9 9 4 , N +.< 2 5 5 g 9 9 n d.l n l y 6 a y 9 1.B 6 y a B B c y @.E 8 y 8 6 8 t 8 C ) $ k t - u % u t ",
"l.i.L.P.W.L.Z.!.%X~.F.Q.h.Q.I.F.h.Q.OXG.h.F.oXh.F.Q.F.2XR.C.u.Q.h.u.I.t.oXh.z.h.Q.I.I.E.h.,X~.p.F.h.E.r.p.r.!.W.i.L.V.V.B.6.V.K.",
"[ ~ ` y.y.) ! ' W ) ) ) ' F.;._ $.O.@.:.:.$.%X;.$.p.] >.>.w._ R.e.A $./ / S $.R t.w._ $./ ' _ / ^ _ e.v ( b ) Y ` [ } B.6.) } [ ",
"f * * ^ A * * 8 8 4 4 4 M e.9 3 5 5 < 5 9 9 a.n 9 9 l y B B y e.Z y n y 9 9 n 4 @.@.y n 8 4 9 8 4 y / 8 * * * % - - u { U x ; u ",
"A / S h.x.9.e.9.e.%.0.X.a.OXJ +.P +.+.P o.+. Xa.:.X.a.O.:.a.%.OXk.a.%.%.%.e.%.%.g..XO.:.%.@.:.-.%.:.G.:./ :.^ ;.;.{ ] Q.] ;.>.>.",
"r.d.9.t.h.' d.9.U.j.d.a.a.a.k.s.k.k.OX%.k.d.k.j.k.h.U.OXf.h.h.e.a.j.=.j.6Xa.f.f.f.f.g.,.1..XD.:.:.@.1.$.;.%.F.F.>.y.>.u.i.F.u.C.",
"f f k * f * k * / ^ 8 k 4 2 9 4 @ A d.@ 4 y 8 8 l t C $.c B T i l B l c %.B 8 y y y B u y $.c r 8 4 @ 8 k * ^ ) $ t - = - - - x ",
"! v ` U ! ! ! ! y.6.c ) b Y R b C :.F.c @._ T R W T <.S.W ] ] W / ] _ _ F.y.R ] / W ] W W H.] W ^ A b b ^ v { 6.v ) ~ ! ~ ~ ! ` ",
"W.L.E.!.^.W.W.R.^./.F.I.F.2XU.U.G.G.}.g..XG.XX.XG.]..X&X]..X=X=XQ.I.%XI.*X%XF.Q.*X*XQ.W.H.%XQ.Q.I.T.:Xp.I.i.C./.Z.L.P.).L.L.L.!.",
"n n n X.:.y d q n a s a e c.w w 0 w j w q 0 n.K w F a s H F F 2.%.n X.M n Z Z n :.%.a M y 9 V n 9 Z :.8 t c % u u ; I H.x c u x ",
"3 3 2 Z X.2 a 6 7 1 a 3 e s.q 0 w 0 0 q 0 0 v.K 0 m e q m m a %.#.q Z N n m N h %.%.q B q 7 n n y Z -.y 6 c ; - I ; I W.c Y c c ",
"p.p.Z.W.%XC.!.F.~.R.Q.F.G.8X{.T.|.z.x.z.T.z.5XT.Y.T.Q.,X~.E.H.%X.Xj.j.{.OXF.{.I.*XOX.XQ.G.2X`.Q.Q.oX%XI.H.R.^.W.P.B./.).P.P.W.W.",
") ~ } ! ~ ) ~ U B.>.) ) ^ b W ^ R t.(.Y ( ' _ _ { ) y.!.{ ] } W _ ;.E ;.S.E E / T B _ T E J.R C C C l b ^ U C.{ U ! ~ > ~ U ) [ ",
"x + % % + - % $ ] / O % 9 6 O 7 6 d 2.7 p d p p i d d 2.i i T p c r t y u.6 t r t 6 8 % 6 u.t % * * @ t - u 6.! ; ; ; ; U > > ! ",
",._ ;.w.u.t.>.>.H..X:.,.%.d.%.s.2.s.+X2.g.2.[.2.D.[.[.*XD.D.D.D.h.a.1.e.&Xf.j.j.U.j.G.j.j.$Xf.h.e.f.F.t.u.y.%XF.B.B.B.H.C.B.C.!.",
"8.' $.t.T.9.8.' 8.e.e.9.8.>X0.9.a.a.`.a.k.s.-XU.1.a.2.S.a.f.f..Xv.%.1.o.s.%.=.a.}.0.X.o.+.+.P +.o.a.G.-.@.@.:.<.] ] >.H.] _ <.;.",
"X # # f ' # # @ o o 4 @ < 9.g < < < X 1 4 2 %.Z 4 4 r 2 y y 9 @.Z 3 9 3 3 3 2 3 0.m 2 , 2 < < < 2 n X.6 6 6 6 % % r i >.% t t 6 ",
"C z l R F.b R Y / b E T C {./ B / S X./ _ R Q.f.' <.>.$.y.>.<.J.S._ >.:.e.e.<.;.=XH.h.e.e.e.e.e.@.d.x.O.$.w.;.5.{ ' y.~.{ y.>.' ",
"~.F.S.I.2XF.H.F.=X*XQ..XG.$Xv.G.j.x.6X{.{.h.oXT.Q.G.Q..XJ.F.,.J.J.f.H.H.=XJ.F.S.G.F.G.f.F.%XG.d.e.h.h.w.t.p.E.p.w.w.4.Z.w.y.w.L.",
"X.9 9 9 n 9 8 9 Z =.9 m 3 5 q q q w n.w j j q j F m m *.F q q 5 a 7 y y @.9 y 9 9 2 4 3 n a.h 2 5 h 9 9 y 9 @.b - l * t l r 8 / ",
"O.9 f g y M l n X.U.9 N m q J j F D M.j F P j K K G K }. .K  .m J B n Z v.Z J Z X.Z Z Z N m.Z Z X.Z B Z T B h.@.y W b c _ Y c e.",
"E.p.t.p.~.I.i.z.~.:XI.T.|.5X{.T.m.@XOX{.}.m.6X{.{.@X`.6X&X{.}.6XOX{.{.{.-X{.x.Q.<X{.j.U.U.>Xx.U.h.2XoXh.I.F.Q.K.p.i.W.).W.W.P./.",
"v Y x Y r.S b b b B R S E u./ N M Z B M Z B d.X.B E C V E Z M :.Z N n n n B l l S.@.k 8 8 4 y l 8 w.( k b k x t x % Y { ; x ; > ",
"@ k @ x ;.k l 8 9 8 B 9 9 e.Z n B B a n E n a.:.E E @.B E ..T D...| V | d Q E B H.,.c T c r d t 8 e./ r b t l t x t ^ >.x k x x ",
"h.e.e.j.|.d.j.d.j.{.U.s.g.@X`.m.}.`.+X`.'.`.+X@XXX}.+X7XXX$X'.eX+X;XXX$X;X;X$X=X;X*X].$XXX&X.Xg.j.OX|.h.{.h.oXI.h.u.I.oXu.S.Z.^.",
"x.Z X.X.L O.O.L %.m.o.J o.o.P &.P G b.P G P G G &.K G #XP K G G G K K F s. .V  .| J V | F m.J J Z N N A Z Z k.$.B / n B B E B u.",
"%.@ g 8 X g g 9 N a.5 9 h 5 4 h 0 h q.D 0 D 0 0 F 0 0 n.m w w < 0 q w 0 2.q q V B q m h 9 s.0 q 5 2 2 g 9 9 %.N 9 l 8 * y k 8 $.",
"(.3.l.r.l.l.t.t.z.:Xt.z.h.x.x.h.m.x.>Xm.x.m.OX}. X{. X6XOX{.{.XXXX{.OXj.9X{.OXQ.<XQ.oXQ.oX9XI.Q.z.T.U.z.z.l.,XY.p.l.I.Y.i.L.i.^.",
"r.r.w.r.(.t.r.t.r.8.t.z.8.|.T.$.9.9.P 9.1.O.Q.j.O.$.f./ :.e.:.G.f.%.e.$._ <.N.] I.<.;.W ] / / O.^ Y.t./ $.( ' ( ( ( i.!.' [ { 5.",
"8 9 y 2 -.E 3 7 q 3 p q e *.*.q h n 9 a V 7 1.@.7 y a p d a p 2.#.y d 9 7 B i c f.E r i B t y y % $./ % l r t t t * ] ] $ - u - ",
"%.O.:.%..Xf.#.1.@.2.2.2.2.XX}.=.s.s.g.s.'.[.;XXX[.`.[.'.[.[.[.;X}.s.s.c.`.j.g.f.&X=X[.G.g.j.f.j.1.OX.X:.f.,.u.<.e.u.H.Q.<.>.>.A.",
"4XE.Q.~.,XoXQ.oX~.tXT.|..XOXoX{.}.M.qXM.'.g.v.c.s.c.v.;Xv.c.`.`.}.n.v.b.@Xn.g.a.g.k.a.a.0. Xa.o.@.:.f.,.f.S..XH.u.,.S.S.>.,.N.=X",
"i.k & k : k k * C e.k 8 8 8 k g m a v.N m w a m q a m g.V m V q h q 5 m %.g n y 9 9 a n n a.g 4 y 8 t t y t _ R % r $ % % u u A.",
"Y.Y z ^ C A S z / h.N N Z A @.O./ _ oX$.O.>.;.u.<.e.>.%X;.$.>.$.e.w.;.w.%Xu.H.B.i.y.u.u.{ /.' w.{ ( ( ( ! ! r.` ` 4.` } } 4.[ _.",
":Xz.U.|.<X|.U.U.m.6XU.{.OX>X6XOX9X<XyX=X2X<X9X<X&X=XoX2XoX=X2XtX<XoX=XQ.2X^.*X^.rX!.Z.Z.u.!.y.F.z.Y.Y.L.Y.I.(.Y.l.L.!._.P.L.V./.",
"h 9 M n %.L h N h N m m m +.&.j m h s e G s =.o.w w w s s s F 2.#.H H s V V n a D.X.a a n V a a 9 X.A 9 q 8 y 6 t l / $.t y - k ",
"Z Z Z g h.O.n h n h n N h k.0.m F G G F K w b.n.H K  .H &.J F v.*.K &.K H *.#.H '.g.#... .V H | a g.%.q Z V Z Z Z V 1.j.B E / T ",
",X~.~.oX~.|.T.<XoX<XT.oXOX<X<X>X&XOX0XOX&X|.6X&X&X|.$X0X%X&XXX+XXXOXXXXX7XXXOX.XXX6X.XXXXX-X$XOX-XQ.6X.X|..XOXQ.Q.{..XI.Q.~.Q.2X",
"Y._ ) ( ^ ( ^ Y _ E./ ^ ^ C S S ^ E F./ E E C C T B / e.E E E E n / M X.h.Z Z B Z B l l E u.C l C l l l k b r.C 8 x x k c k b R.",
"Q.C b b t z b t l I.l l B k l l B l j.V C Z B n Z B X.a.E Z Z Z M O.l $.U.C ^ C R C / R / F.C b C v k k 8 x t.v x v v x ! U v L.",
"2XF.H.Q.U.Q..X.XU.tXQ.m.{.OXOX.X}.{.yX{.XXOX<X@XOXOX-X7XXX}.{.6X<XoXU.oX9XQ.<X.X<XoX~.Q.|.4XI.Q.Y.,X~.I.E.E.4XI.^.!.(.).(.!.!.4X",
"@.@.@.$.D.f.%.-.-.1.:.1.:.}.G.+.=.+.=. .%.o.b.m.J *.|  . . .J `.a.V | E Z | %.E U.e.n E Q X.B E Z f.h.E / @./ _ T R F.t.b c R R ",
"c c y y <.@.y y l 6 n n y 1...3 N 5 9 5 m q 0.9.5 N 9 0 m m q s.#.5 E V y V V 9 a.-.y V n l a B y @.-.6 y y 9 l y r @.<.t l b t ",
"%XE.Z.t.~.~.p.p.h.Z.F.z.t.<XT.h.U.x.|.x.|.U.9X6X{.OX|.5X|.|.{.9X6XQ.OX&X9X<XOX.X<X2X%X&XQ.=XQ.oX.X<X<XI.Q.Q.oXE.~.I.%X%X~.%X%X,X",
"Y.i.i.5.w.u.i.t.F.,Xl.h.h.U.Y.I.I.z.<Xz.x.t.h.e.h.t.U.|.e.e.8.$.O.O./ e.~.e.;.;.O.O.;.' e.Q.O./ ' $._ ;.;.e.).$.^ ) ' ^ ) ) ` Y.",
"p.^ * - l t l l 8 p.c 8 l 8 8 l l y f.l y n y l l y y G.V n M c l 9 l R h.l ^ f 8 c l 8 c h.8 k k 8 c k * R t.k u & - k v : ' i.",
"$X.XF.f.h.u.;.e.f.&Xk.:.a.a.1.a.f.1.2Xf.h.f.g.G.{.G.`.yX.X].G.{.{.x.{..X9Xh.oXU..XT.Y.h.I.2Xu.F.h.h.u.e.F.h.Q.p.Q.p.%XF.p.Y.,X4X",
"F.H.Q.G.2X6XG.Q.G.|.G.j.g.OXoX[..X.X$XQ..XG.qX*X`.J.[.$X[.].D.-X.X2.a.1.G.f.j.a.&Xj.f.a.f.f.%.f.:.oXG.@.h.a.e.e.f.;.<X>./ >.W ' ",
"x y c t ' :.8 t r y y 8 8 @.X.l C B l 9 B r ,.:.y y y 6 y B y :.X.y y 9 n B n 9 g.C y y y y y i O ;./ % y t 8 t * t u.b x b 8 k ",
"W.L.L.4.!.3X5.r.5.5.5.' ( I.t.3.5.3.' ` 7.( ~.Y.{ 8.r.w.e.t.5.~.z.e.h.h.h.w.e.t.:Xh.$.5.u.t.e.;.e.Y.E.p.l.r.L.L.L.L.3X_.Y.!._.3X",
"L.Y.L.y.L.~.l.~.~.4X:XQ.E.5X,XY.(.(.wX(.(.z.3X,XE.Y.(.5X:X~.p.:XU.x.Q.Y.<XI.h.I.h.r.r.u.I.:XL.r.i.5.r.r.y.l.(.5.y.r.5.4.` ! L.!.",
"@._ C l i B y B 9 a.E a y V Z V Z Z j.L Z n n a a n n k.E V y m N B y C F.C B l l l l c C w.y k k k z t t _ i.* k x k k k : 5.r.",
".XD.:.-.-.*.-.#.V -X*.| H V H | J J +Xo.J X.F  .| H J @X . .&.+.X.$.X.O.6X| O.e.:.:.,.@.:.oXR :.$./ { $.' e.T.w.t.i.E.~.Y.W.3X3X"
};
