/* XPM */
static char *_73050074c064880b5d80e9ec11c1ff2FwEazcxrj1bp0ang[] = {
/* columns rows colors chars-per-pixel */
"64 64 205 2 ",
"   c #00082B",
".  c #000737",
"X  c #000D31",
"o  c #000A3D",
"O  c #00173D",
"+  c #001444",
"@  c #001B47",
"#  c #00154A",
"$  c #001D4C",
"%  c #001E52",
"&  c #00234D",
"*  c #002354",
"=  c #012A54",
"-  c #002559",
";  c #012B5C",
":  c #082C5C",
">  c #03315C",
",  c #0C345C",
"<  c #13395D",
"1  c #012D61",
"2  c #033364",
"3  c #0B3464",
"4  c #0C3A65",
"5  c #04356A",
"6  c #0A376A",
"7  c #063A6C",
"8  c #0B3B6C",
"9  c #053867",
"0  c #133C6E",
"q  c #173D68",
"w  c #073971",
"e  c #0C3C71",
"r  c #113E72",
"t  c #11426C",
"y  c #0D4274",
"u  c #0D457B",
"i  c #0E497C",
"p  c #134374",
"a  c #1C4475",
"s  c #154877",
"d  c #1A4B76",
"f  c #14457A",
"g  c #1A467A",
"h  c #15497C",
"j  c #1B4B7C",
"k  c #1C527E",
"l  c #21467A",
"z  c #244D7D",
"x  c #224975",
"c  c #22507C",
"v  c #2C547D",
"b  c #285074",
"n  c #164C81",
"m  c #1C4D82",
"M  c #184782",
"N  c #175183",
"B  c #1D5284",
"V  c #1D5489",
"C  c #1F5A86",
"Z  c #214E83",
"A  c #235385",
"S  c #2B5585",
"D  c #2D5985",
"F  c #24558A",
"G  c #2A568A",
"H  c #255A8C",
"J  c #2B5B8D",
"K  c #205986",
"L  c #305685",
"P  c #375E82",
"I  c #325C8C",
"U  c #265C92",
"Y  c #2B5D92",
"T  c #2E5F99",
"R  c #325E92",
"E  c #395D91",
"W  c #2C618E",
"Q  c #27608D",
"!  c #33628D",
"~  c #3F6589",
"^  c #256292",
"/  c #2D6294",
"(  c #2D6499",
")  c #2D699B",
"_  c #2F6895",
"`  c #326394",
"'  c #396595",
"]  c #336997",
"[  c #3A6A97",
"{  c #33659A",
"}  c #3B6699",
"|  c #346A9B",
" . c #3A6C9D",
".. c #36719E",
"X. c #3B719F",
"o. c #356CA2",
"O. c #3B6EA2",
"+. c #3D6EA8",
"@. c #3671A3",
"#. c #3C72A4",
"$. c #3E79A6",
"%. c #3575AB",
"&. c #3D75AA",
"*. c #3779AE",
"=. c #3E7AAC",
"-. c #3C7BB1",
";. c #436C9C",
":. c #43719D",
">. c #49719B",
",. c #4A7297",
"<. c #426FA3",
"1. c #4A6FA2",
"2. c #4374A5",
"3. c #4973A4",
"4. c #4379A6",
"5. c #4A7AA6",
"6. c #4376AA",
"7. c #4976AA",
"8. c #447AAC",
"9. c #4B7CAC",
"0. c #537BA6",
"q. c #517CAC",
"w. c #447CB1",
"e. c #4B7EB2",
"r. c #527EB2",
"t. c #4781AE",
"y. c #4D81AD",
"u. c #5382AD",
"i. c #5986AD",
"p. c #4581B4",
"a. c #4D82B4",
"s. c #4D84B9",
"d. c #4D8ABB",
"f. c #4786BC",
"g. c #5284B4",
"h. c #5A85B5",
"j. c #5589B5",
"k. c #5A8CB6",
"l. c #5386BA",
"z. c #5986B9",
"x. c #558BBB",
"c. c #5B8CBC",
"v. c #5591BE",
"b. c #5C91BD",
"n. c #638DB6",
"m. c #618DBD",
"M. c #6393BE",
"N. c #4E8BC1",
"B. c #558DC2",
"V. c #5B8EC2",
"C. c #5C8FC8",
"Z. c #5493C4",
"A. c #5C92C3",
"S. c #5F98C5",
"D. c #5E93C9",
"F. c #5E9BCA",
"G. c #608EC2",
"H. c #698EC3",
"J. c #6294C4",
"K. c #6994C4",
"L. c #659AC6",
"P. c #6A9BC6",
"I. c #6396C9",
"U. c #6A96C9",
"Y. c #659ACA",
"T. c #6A9BCC",
"R. c #719CC7",
"E. c #649BD0",
"W. c #6C9ED2",
"Q. c #749FD4",
"!. c #6CA1CC",
"~. c #67A2CE",
"^. c #71A6CF",
"/. c #73A3CD",
"(. c #6DA2D3",
"). c #6AA4D7",
"_. c #73A4D4",
"`. c #7AA7D3",
"'. c #75AAD5",
"]. c #79AAD5",
"[. c #74A6D9",
"{. c #75AADB",
"}. c #7BACDC",
"|. c #7EB1DB",
" X c #7AAEE2",
".X c #7CB3E3",
"XX c #7FB4EA",
"oX c #80ABD8",
"OX c #88B1DF",
"+X c #80AFE3",
"@X c #83B4E4",
"#X c #88B7E6",
"$X c #84BAE6",
"%X c #8ABBE6",
"&X c #8CBCEB",
"*X c #82B9E9",
"=X c #90BBE8",
"-X c #8FC2EF",
";X c #93C2EE",
":X c #8CC2F4",
">X c #99C8F4",
",X c #9FD5FF",
"<X c #A1CDFA",
"1X c #AEDEFF",
"2X c #B2DDFF",
/* pixels */
"M.!.L.k.M.-X-X'.t.b.b.(.L.4.b.'...Q t.t.y.t.A.b.!.b.v.L.!.^.^.P.^./.M.u.d i.k.y.a.A.&./ B.s.e.o.n @.] C J ] y.c.M.$XT.9...$.8.h ",
"'.k.i.b.!.^.!.j.y.M.S.c.9.#.x.T.4.X...j.(.!.|.~.k.k.b.k.i.b.!.M.P.M.^.n.d i.y.j.9.b.e.a.B.w.-.B.B.| U Y / J I M.b.|.-X_.a.4.| ^ ",
"k Q j.~.b.X.] | t.4.4.] ..9. .Q ..H ] 4.S.*XL.(.'.k.b.|.'.b.!.|.R.P.>X/.t X.] 5.2.a.#.6.+.l.N.:XW.{ x.Y.H.e.E r./.c.Q.'.@X X#.V ",
"t.y.k.j.t.y.y.#.k K 4.W C ] ] #.N ..i ) #...4.4.Z.] | M.!.j.y.M.].^.>XR.t ! y.b.9.9.&.U U l.e.W.W.r.Y.c.<.q.q.G.K.n.Q._.Y.l.F h ",
"..t.t._ C $.v.t._ V ^ i 2 y i V @.@.#.^ ^ @.h o.4.| _ ] $.x.c.5.y.:.:.[ 8 W L.c. .{ 8./ 6.l.w.r.&.6.6.T M 1.H.H.} H.U.H.3.G T { ",
"j.b.~.v.$.j.Y.^.{.8.] | | #.) V V ) u N N h H N y y 9 ; = y K B t 8 = a d D ] 9 J h T F T M F T V T Z Z Z E T l E 7.G F f 5 M w ",
",X|.v.t.t.d.S.Z.%.| w.Z.p.8.s.@.o.^ @.( | -.8.8..._ [ @./ K X.g.y.y.4.j.L.J.a.G 1 - 1 r V F 6.N.w.+.T Z Z M - - % - - 1 w M T +.",
"S.v.t...) t.v.d.a.p.w.B.w.o.-.V #.&.f.8.$.@.x.8.t.p.x.a.#.#.9.2.j.y.9.[ X.9.4.a.V.C.6.l.w.e.N.+.B.s.C.6.7.w.Z <.r.T T Y +.s.6.e.",
"V _ t.a.8.| =.x.s.d.#.p.#.( =.V o.s.B.w.w.6.#.8.#.8.{ x.f [ [ } a.s.4.W F K { e.9.8.Y.e.T o.T e.w.%.%.e.+.e.O./ T T o.o.o.N -.&.",
"4.x.L.I.x.s.l.v.x.s.8.s.C.( w.U e.o.o.w.C.V.+.V  .2.2.} j ` 6.6.J A y y V { 6.g.Y { G.e.Y o.E w.N.w.w.^ H 8./ g.} +.#.B T w.N.&.",
"j.A.L.b.g.a.l.g.t.W.T.#.6.U 6.U e.A Y 2.F m o.7.Y c.J.A B P._._.O.V f _ e.6.+.a.{ Z { G G 6.7.l.N.w.@.n | W.O.I.7.h V V %.&.o.N.",
"4.4.2._ _ 4.V.P.a.9.6.e.e.f m O.o.T 6.O.H G.#Xg.G z.9.G R ;XK.c.8.8.8.l.V.e.2.e.U M F G o.r.r.l. XB.| h Y x.F R O.J d 5 m o.( &.",
":.g.b.g.q.a.9.2.g.2.F 9.9.J r A J ; 5 p 2 g J 3 8 a 3 6 I Q.! } A w.w.( { 8.w.O.7 f { } J F Z G o.T r M r E 7.1.E G 0 r m m M 7 ",
"> t d d t 8 = $ + ; + $ * ` F A G - 3 A ; o * 8 a z p . @ 3 = : f h M V Y H f y M e e 5 - % 1 5 - - + 5 0 L 1.G E : + 0 r 1 e e ",
"t > & @ = 8 d z  .J g d ; p A 3.r I ;.;.3.r.3.z z L v : L >.n.M.D.&.&.).XXs.U T T e % % 1 f F A E E 6 l l q # . + % l 1.L G r % ",
"y.2.X.y.b.c.4.` P.g.g.8.[ 2.g.g.c.g.9.c.U.h.7.h.z # . D K.n.;.3.A.d.w.A.).D.+.U h e h o.r.V.Y.V.Q.Q.r.q.7.;.0 E E a 1.H.Z Z G 1.",
"*.%.@.p.-.N.p.%.-.Z.B.B.V U s.o.8.A.a.a.9.#.` g.8.j y J c.A.{ H v.^ ^ %.s.$.( x.f.8.x.S.F.$.$.^ T e.w.+.=.8.a.Y.E.{ w.w.T { <.V.",
"*.*.*.%.*.*.f.Z.N.N.B.Z.U -.B.^ #.l.8.9.#.8.9. XY.Y.I.6.2.A.a.@.d.v.Z.$.$.j.%.o.C $.~.d.@.^ %.=.&.N.o.V U o.w.E.w.( ) 6.w.6.o.U ",
"d.d.v.#.s.| w.Z.8.@.j.s.V g.I.#.O.9.| 6.e.x.V.XXa.8.D.c.#.#.#.8.F.d.d.a.f.9.6.C.H F 8._ _ ) @.@.=.x.p.o.=.9.s.Z.B.U 5 e m A 6.B.",
"5.j.j.t.y.W W x.P.9.c.4.s x.T.9.8.e.#.8.8.g.d.(.A.#.g.s.O.8.a.e.v.v.l.8.9.a.7.e.8.F t.#.#...( a.s.Z.p.@.=.a.c.Y.[.l.| V.B.G +.Y.",
"n.R.M.i.>.! ! M./.5.5.J 3 9.P.g.x.c.e.a.6.a.g.Y.A.Y 2.J.c.l.x.I.8.a.8.2.z.z.9.} h.J r.r.c.e. .6.w.a.8.| | ..8.g.(.x.2.W.[.3.7.x.",
"v b = < x ,.u./.n.i.u.~ > ! n.K.r.8.#.a.s.b.e.#.Y A | | ( 6.9.8.S.A.7.9.c.z.z.q.7.I 7.6.J.W.x.2.2...[ { W J G F 9.} G 9.U.W.c.<.",
"v < X   X & & & x v c a @ = p g 2 ; ; e y j 7 ; / J.J.7 - { | y / g.} d g G R r <.I } R }  .a.t._.x.4.X. .2.2.2.2.j 8 * ; A R A ",
"i.~ v < & O = = = > + 8 j Y F 6 H ] [ { y V | l.#.8.D.L.s.H 2 8 p F / a.z. .3.r.z.r # # 2 = y t k 7 4 p d j 8 * * * ` ' g 0 3 2 ",
",.n.M.i.>.5.I P.m.c.e.9.V.V.e.x.I.6.9.r.V.Y.V.Y.l.6.Q.Y.W.2.V.V.a.t.x.!.T.@XK.j.G 9.b.| ..W Q h ` [  .F ;.J S j  .3.m.q.h.g.r.I ",
"b i.n.i.T.j.u.P.2.g.x.l.2.H U +.( Y O.{ } e.e.V.r.x.V.9.J.{ { O.Q ..S.b.a.t. .W j.L.&X(.b.S.L.S.g.x.u.2.9.g.g.m._.z.G.K.c.r.K.Q.",
"_ X.,.b 5.[ ` g.9.2.7.e.+.U U Y Y } 6. .o.7.3.6.e.7.l.O.l.}  .{ ..C $.4.4.` _ ` W / x.A.| 4.t.t.]  .{ #.2. .A F h.Z p ' J G S S ",
"k.i...! 2.9.A P.V.2.+.w.w.e.s.+.+. .R G G ` G M e.G 7.7.{ <.U.O.b.| X...4.X.] ` y.} K 2.X.t..._ 9.2.[ 9.r.g.` J p j } q.S R } E ",
"[ ! h.c.P.P.m _.e.} R j r G 3.7.9.{ g f m F G A 7.J 7.7.R 7._.g.2.9.j.k.u.K.5.` 0.c.S 5.g.:.5.x.{ #.l.J.+.U f M Z Y { <.T r.r.T ",
"k > X.J 2.' q 9.S ' 0.q.3.' I z z m p g f r m m g F A m F { <.9.b.:.;.q.' D : 3 S 1.a 3.}.m.u.x.x.9.e.D.D.e.m % u } r.7.S G T O.",
", & 4 @ = * * , ; & O @ * & @ : - e r f p r j f 5 g e 6 g m j R R * * l l 3 3 L l - + 3 h.h.S p f n ( F w w F G f T T M Z G G F ",
"W 5.[ 9.:.u.9.D 4 ; , S >.L b ;.R 9.O. .O.e.U.z.<.{ O.<.{ O.<.} ' ! 3.Z q 0 I ;.a : I : * $ * J / V ( V T o.e.+.+.C.e.5 w 6 w 6 ",
"W $.t.4.a.c.c.x.2.2.2 m.h.9.z.7.j.4.x.9.2.A.g.#.[ O.U.[.`  .G.g.9.c.j.y.5.y.u.! 5.! j.[ + d ;.2.` _ &.a.v.$.B _ y.b.b.t :.3.} ;.",
"$.t.$._ 4.c.t._ g.2.A x.9.9.J.|...^ #.#.|  ._ A 2.} O.g.` R h.g.y.y.t.j.j.k.M.y.[ ! K.u.= i.T.2.X._ ] $.y.$...L.~.S.G k >XoXOX' ",
"Q $.a.a.v.x.#.] [ Y 2.J.J.9.2.z.4.....9.4.| 2.[ 6.[ K.P.K.g.} J.c.j.8.y.y.4.j.4.[ A.T.3.J }._.P.b.a.s.a.y.$.X.L.b.k.X.a =X=X<X`.",
"_ ] #.9.4...4.A.4. . .2.g.8.9.a.a.g.4.a.j.4.x.8. .Y. .I.z.S ' g.j.j.4.#.| 2.c.t.#.T.m.G 2.x.5.c.4.4.a.4...] ^ 4.W b.L.K h.M.m.>.",
"#...| 2.4...2.c.a.a./ d 2.O.J.h.j.A.$.8.a.y.x.#.g.W.` g.9.9.J 6.8.g.e.8.4.x.'.I.x.r.l.Z <.7.q.T 4.9.g. .J | | ..] '.[ X.`.;X;Xk.",
"_ v.Y.b.j.x.c.x. .x. .A #.[ x.9.g.j.] C ] 4.c.c.6.T.2 9.J.L.J.` g.D.A.x.t.a.c.8.r.7.O.e e.V.U.7.3.3.g.O.! 4.4.] X.y.k ] b.@XK./.",
"F x.A.| / 8.c.b.{ 2.{ s J / } 2.9 7 ; $ ; y y A { h 3 8 G y.[ { a.8.#.w.<.U Y Z F o.Z w <.+.O.7.R R 7.7.2.x.a.2.[ X.b.j.5.y.& ! ",
"> s s 2 8 j B s 7 2 2 * y j 2 Z 7 h ] [ [ J 2 s h 8  .Y F j h h V 7 5 U / V Y ( Z M T V.J 6 w M 8 % : 1 - ; = $ O t Q ] 5.[ t ! ",
"F 9.{ ` j j j A 3 [ D.x.J.J.8.j.D.J.J.x._.J.A.P.8.g.9.c.J.x.x.{ { F n # 5 U T T m T M F F m 1 % # + ; 2 3 t s J g._ ! ] t W ! d ",
"5.B 8 ' J f y 2 A J.(.g.c.W.V.c.a.A { 2.g.g.e.g.9.X.9.a.#.[ c.9.{ 8.l.n w m ( m U M m J m w 5 O.J 3 ; G { g.a.L.b.k.j j k.i.v ! ",
"q.7.g.c.J._.'.G 8.g.2. .9.4.8.6.9.s 9.g.9.c.x.7.J B L.(.j.4.x.6.&.A.C.+.6.+.6.| m M T f m R f Z 7.7.g I J P.!.b.L.k ] 1X<Xh.u.;.",
"j j ' 9.G.J.T.[ e.l.[ 2.a.2.y.9.` G OXA.3.c.g.9.2./ c.4...#.4...l.D.( #.W.x.e.D.e.M r 5 M g f } r.U.<.3.` x.T.g.g.M.[ k.K.<X1XR.",
"} } ;.7.T.z.z.2.2  . .{ [ 2.a.Y > A Q.7.O.e.2.J.#.2.j.#.L.{.x.$.s.#.f ] s.#.#.a.Y m F Z Z 2 g U R A p { 2.X.y.9.[ x.A n.;.c x 0.",
"r R ;.<.q.R F Z h ` :.9.x.j.2.h 3 g 3.J 7.9.O.}.] 2.H K a.'.v.j.a.B y #.[ a.V.] 7.g.2.g - 1 J H R p 8 ` g.a.c.4.&XK.S 3.* * $ . ",
"# % 1 D r % 3 ' J 7 p { | A 2 - 7 5 7 - y 3 2 F h / C ..] ] i 7 G 9 9 N f J B s l.9.l.J.6.O.` } O. .} _ B ] ! J 5.g.;.c $ % - : ",
"g Z p r - O.+X{.}.I.}.{.I.x.d.T.T.Y.c.J / B d s 8.x.2.(.| | @.8.$.x.t.8.#.C - a. .e.@XXXW.<X#X X'.{.{.J.9 9 3 4.c.h.U.q.>.L >.i.",
"Y F U +.w.s.e.l.e.B.-.w.o.o.T N.B.$.d.p.8.p.) p.x.S.w.Z.o.@.D.B.p.s.D.e.w.B.w.o.e.N.e.e.+.7.T +.A w.8.2._ 9.D.;Xj.b.^.].-X!.M.M.",
"U ( -.w.C.w.&.-.w.N.o.+.o.+.T ( H ^ =.) %.F.d.Z.8.p.8.s.#.8.s.o.H @.f.-.+.w.-.w.+.+.T T 6.s.F U { A J 9.c. .{ 4.y.c.L.! y.:.y.! ",
" XE.6.V e.w.e.s.w.w.6.6.w.N.w.w.=.) 8.%.#.=.^ | V / s.#.#.e.6.( V o.%.( o.&.+.C.+.V 6.l.+.o.w.s.8.` 2.9.l.2.c.l.5.x.].j.%X^.^.y.",
"w.&.U e C.B.s.&.w.r.s.+.o.+.+.( ) H %.w.8.@.^ #.f N l.o.O.&.{ o.o.o.o.o.e.s.+.C.T +.s.U 6.s.e.6.e.| 2.#. .x.&X&X'.j.k.y.^.k.M.M.",
"U T / h V.8.+.[ l.x.x.8.+.#.6.o.( 8.d.@.( @.o.{ V h e.o.2.+.A T ) ( ( +.G.B.o.7.e.u T { Y T 6.F [.3.2.K.J.&X>X#X@X/.u.5.k.P.^.|.",
"I.e.A ; F Y | 2.e.#.6. .7.8.l.<.{ @.#.o.( | 6.s.H f { { 8.&.M U ( U Y ( w.w.{ e.+.V Z Y 7.{ F 7.g.{ Y 9.3.'.R. .5.P.c.g.M.;X-X].",
"' f - * s A J / c.7.g.8.9.2.9.O.8.o.{ O./ n m / V V F F R o.r Z U m V F Y T T { G G F M G G.r.A } J J Z j 9.c.' z.Y.J.h.L.OXOXOX",
"% - 3 h Z d p p 7 ; p e 3 - p 8 5 h h V Y { O.T Y O.` m e g 5 m h w n F Y Y r 5 w M M F M e 1 R Z - ; ; e Z 9.r.g.' ' 9.L.5.j.-X",
"` G 3.c.g.}  .r.r.} A p 2 G  ./ o.l.l.&.T | C.x.W.l.U F <.<.O.U M F #.H m m Y h Y Y <.T Z g M e.` F d D G s p 0 - 3 * ; ; - d A ",
"g.2.e.a.9.J.+X[.Y.'.m.6. .J.Y.P.2.d.C.(.I.V.Y.V.r.O.U e.W.G.G.W.[.l.6.+.+.O.x.l.r.C.E o.<.T r.7.T.@X#X&X&X}.Y.8.<.` } e.O.A f 2.",
"9.2.9.6.G #.l.o.7.{.(.D.e.J.6.O.8.8.2.t.w.w.B.e.F J m +.C.C.V.V.e.8._ a.g.x.I.x.9.l.V.V.U.Q.J.G.g.J.a.a.l.J.T.c.2.O.e.c.6.o.m g.",
"( / e.V.Y #.C.e.o.g.6.6.{ x.a.e.) w.8.%.o.8.8.n o.o.F { e.l.8.| ( a.2.x.8.6.+.m F ` x.a.e.e.Z U  .2.:.9.#.` 2.a.2.| [ &.J F f #.",
"{ { w.s.M ( N.N.s.+.o.N.Y l.D.l.| a.f.=.@.=.$.y C.e._ x.x.&.{ &.^ $._ $.| 8.8.#.4.l.| a.x.O.8.X.F ] #.4...J ..8.9.( n e.w.F U B.",
"U { #.6.V C. XE.l.o.o.E.U w.&.T %.f.p.t.%.@.&.C +.s.&.D.w.| Y &.t.@.) =.a.=._ O.8.2.[ #.2. .y.~.y.t._ W 4.Z.L.9.| | U s.C.&.s.C.",
"%.w.+.%.M w.w.o.&.+.T w.M o.w.w.*.Z.F.F.x.p.*.i H p.&.B.@.8...%.....d.v.).A...s.a.8.A.4.#.2.J a.b.v.4.$.x.Y.x.^ @.8.w.^ %.o.&.o.",
"&.+.U o.u U T o.U -.%.f.M o.( &.N.).~.p...p.=.i ^ / N s.w.9.@.a.F.S.-Xp.y.4.K $.t.v.2.t.x.4.$.Q $.v.~.~.v.t.x.Z.p.( &.u T N T w."
};
